<?xml version="1.0" encoding="utf-8" standalone="no"?>
<!DOCTYPE svg PUBLIC "-//W3C//DTD SVG 1.1//EN"
  "http://www.w3.org/Graphics/SVG/1.1/DTD/svg11.dtd">
<svg xmlns:xlink="http://www.w3.org/1999/xlink" width="1080pt" height="504pt" viewBox="0 0 1080 504" xmlns="http://www.w3.org/2000/svg" version="1.1">
 <metadata>
  <rdf:RDF xmlns:dc="http://purl.org/dc/elements/1.1/" xmlns:cc="http://creativecommons.org/ns#" xmlns:rdf="http://www.w3.org/1999/02/22-rdf-syntax-ns#">
   <cc:Work>
    <dc:type rdf:resource="http://purl.org/dc/dcmitype/StillImage"/>
    <dc:date>2025-11-12T07:32:17.850661</dc:date>
    <dc:format>image/svg+xml</dc:format>
    <dc:creator>
     <cc:Agent>
      <dc:title>Matplotlib v3.10.7, https://matplotlib.org/</dc:title>
     </cc:Agent>
    </dc:creator>
   </cc:Work>
  </rdf:RDF>
 </metadata>
 <defs>
  <style type="text/css">*{stroke-linejoin: round; stroke-linecap: butt}</style>
 </defs>
 <g id="figure_1">
  <g id="patch_1">
   <path d="M 0 504 
L 1080 504 
L 1080 0 
L 0 0 
z
" style="fill: #ffffff"/>
  </g>
  <g id="axes_1">
   <g id="patch_2">
    <path d="M 56.18 462.04 
L 1069.2 462.04 
L 1069.2 25.8 
L 56.18 25.8 
z
" style="fill: #ffffff"/>
   </g>
   <g id="patch_3">
    <path d="M 102.226364 462.04 
L 496.461613 462.04 
L 496.461613 25.8 
L 102.226364 25.8 
z
" clip-path="url(#p10004b79ef)" style="fill: #ffa500; opacity: 0.3; stroke: #ffa500; stroke-linejoin: miter"/>
   </g>
   <g id="patch_4">
    <path d="M 496.461613 462.04 
L 1023.153636 462.04 
L 1023.153636 25.8 
L 496.461613 25.8 
z
" clip-path="url(#p10004b79ef)" style="fill: #ffff00; opacity: 0.3; stroke: #ffff00; stroke-linejoin: miter"/>
   </g>
   <g id="matplotlib.axis_1">
    <g id="xtick_1">
     <g id="line2d_1">
      <path d="M 83.415934 462.04 
L 83.415934 25.8 
" clip-path="url(#p10004b79ef)" style="fill: none; stroke-dasharray: 2.96,1.28; stroke-dashoffset: 0; stroke: #b0b0b0; stroke-opacity: 0.5; stroke-width: 0.8"/>
     </g>
     <g id="line2d_2">
      <defs>
       <path id="m25e45ed31d" d="M 0 0 
L 0 3.5 
" style="stroke: #000000; stroke-width: 0.8"/>
      </defs>
      <g>
       <use xlink:href="#m25e45ed31d" x="83.415934" y="462.04" style="stroke: #000000; stroke-width: 0.8"/>
      </g>
     </g>
     <g id="text_1">
      <!-- 2020-03-22 -->
      <g transform="translate(54.358122 476.638438) scale(0.1 -0.1)">
       <defs>
        <path id="DejaVuSans-32" d="M 1228 531 
L 3431 531 
L 3431 0 
L 469 0 
L 469 531 
Q 828 903 1448 1529 
Q 2069 2156 2228 2338 
Q 2531 2678 2651 2914 
Q 2772 3150 2772 3378 
Q 2772 3750 2511 3984 
Q 2250 4219 1831 4219 
Q 1534 4219 1204 4116 
Q 875 4013 500 3803 
L 500 4441 
Q 881 4594 1212 4672 
Q 1544 4750 1819 4750 
Q 2544 4750 2975 4387 
Q 3406 4025 3406 3419 
Q 3406 3131 3298 2873 
Q 3191 2616 2906 2266 
Q 2828 2175 2409 1742 
Q 1991 1309 1228 531 
z
" transform="scale(0.015625)"/>
        <path id="DejaVuSans-30" d="M 2034 4250 
Q 1547 4250 1301 3770 
Q 1056 3291 1056 2328 
Q 1056 1369 1301 889 
Q 1547 409 2034 409 
Q 2525 409 2770 889 
Q 3016 1369 3016 2328 
Q 3016 3291 2770 3770 
Q 2525 4250 2034 4250 
z
M 2034 4750 
Q 2819 4750 3233 4129 
Q 3647 3509 3647 2328 
Q 3647 1150 3233 529 
Q 2819 -91 2034 -91 
Q 1250 -91 836 529 
Q 422 1150 422 2328 
Q 422 3509 836 4129 
Q 1250 4750 2034 4750 
z
" transform="scale(0.015625)"/>
        <path id="DejaVuSans-2d" d="M 313 2009 
L 1997 2009 
L 1997 1497 
L 313 1497 
L 313 2009 
z
" transform="scale(0.015625)"/>
        <path id="DejaVuSans-33" d="M 2597 2516 
Q 3050 2419 3304 2112 
Q 3559 1806 3559 1356 
Q 3559 666 3084 287 
Q 2609 -91 1734 -91 
Q 1441 -91 1130 -33 
Q 819 25 488 141 
L 488 750 
Q 750 597 1062 519 
Q 1375 441 1716 441 
Q 2309 441 2620 675 
Q 2931 909 2931 1356 
Q 2931 1769 2642 2001 
Q 2353 2234 1838 2234 
L 1294 2234 
L 1294 2753 
L 1863 2753 
Q 2328 2753 2575 2939 
Q 2822 3125 2822 3475 
Q 2822 3834 2567 4026 
Q 2313 4219 1838 4219 
Q 1578 4219 1281 4162 
Q 984 4106 628 3988 
L 628 4550 
Q 988 4650 1302 4700 
Q 1616 4750 1894 4750 
Q 2613 4750 3031 4423 
Q 3450 4097 3450 3541 
Q 3450 3153 3228 2886 
Q 3006 2619 2597 2516 
z
" transform="scale(0.015625)"/>
       </defs>
       <use xlink:href="#DejaVuSans-32"/>
       <use xlink:href="#DejaVuSans-30" transform="translate(63.623047 0)"/>
       <use xlink:href="#DejaVuSans-32" transform="translate(127.246094 0)"/>
       <use xlink:href="#DejaVuSans-30" transform="translate(190.869141 0)"/>
       <use xlink:href="#DejaVuSans-2d" transform="translate(254.492188 0)"/>
       <use xlink:href="#DejaVuSans-30" transform="translate(290.576172 0)"/>
       <use xlink:href="#DejaVuSans-33" transform="translate(354.199219 0)"/>
       <use xlink:href="#DejaVuSans-2d" transform="translate(417.822266 0)"/>
       <use xlink:href="#DejaVuSans-32" transform="translate(453.90625 0)"/>
       <use xlink:href="#DejaVuSans-32" transform="translate(517.529297 0)"/>
      </g>
     </g>
    </g>
    <g id="xtick_2">
     <g id="line2d_3">
      <path d="M 271.520228 462.04 
L 271.520228 25.8 
" clip-path="url(#p10004b79ef)" style="fill: none; stroke-dasharray: 2.96,1.28; stroke-dashoffset: 0; stroke: #b0b0b0; stroke-opacity: 0.5; stroke-width: 0.8"/>
     </g>
     <g id="line2d_4">
      <g>
       <use xlink:href="#m25e45ed31d" x="271.520228" y="462.04" style="stroke: #000000; stroke-width: 0.8"/>
      </g>
     </g>
     <g id="text_2">
      <!-- 2020-04-01 -->
      <g transform="translate(242.462416 476.638438) scale(0.1 -0.1)">
       <defs>
        <path id="DejaVuSans-34" d="M 2419 4116 
L 825 1625 
L 2419 1625 
L 2419 4116 
z
M 2253 4666 
L 3047 4666 
L 3047 1625 
L 3713 1625 
L 3713 1100 
L 3047 1100 
L 3047 0 
L 2419 0 
L 2419 1100 
L 313 1100 
L 313 1709 
L 2253 4666 
z
" transform="scale(0.015625)"/>
        <path id="DejaVuSans-31" d="M 794 531 
L 1825 531 
L 1825 4091 
L 703 3866 
L 703 4441 
L 1819 4666 
L 2450 4666 
L 2450 531 
L 3481 531 
L 3481 0 
L 794 0 
L 794 531 
z
" transform="scale(0.015625)"/>
       </defs>
       <use xlink:href="#DejaVuSans-32"/>
       <use xlink:href="#DejaVuSans-30" transform="translate(63.623047 0)"/>
       <use xlink:href="#DejaVuSans-32" transform="translate(127.246094 0)"/>
       <use xlink:href="#DejaVuSans-30" transform="translate(190.869141 0)"/>
       <use xlink:href="#DejaVuSans-2d" transform="translate(254.492188 0)"/>
       <use xlink:href="#DejaVuSans-30" transform="translate(290.576172 0)"/>
       <use xlink:href="#DejaVuSans-34" transform="translate(354.199219 0)"/>
       <use xlink:href="#DejaVuSans-2d" transform="translate(417.822266 0)"/>
       <use xlink:href="#DejaVuSans-30" transform="translate(453.90625 0)"/>
       <use xlink:href="#DejaVuSans-31" transform="translate(517.529297 0)"/>
      </g>
     </g>
    </g>
    <g id="xtick_3">
     <g id="line2d_5">
      <path d="M 403.193234 462.04 
L 403.193234 25.8 
" clip-path="url(#p10004b79ef)" style="fill: none; stroke-dasharray: 2.96,1.28; stroke-dashoffset: 0; stroke: #b0b0b0; stroke-opacity: 0.5; stroke-width: 0.8"/>
     </g>
     <g id="line2d_6">
      <g>
       <use xlink:href="#m25e45ed31d" x="403.193234" y="462.04" style="stroke: #000000; stroke-width: 0.8"/>
      </g>
     </g>
     <g id="text_3">
      <!-- 2020-04-08 -->
      <g transform="translate(374.135422 476.638438) scale(0.1 -0.1)">
       <defs>
        <path id="DejaVuSans-38" d="M 2034 2216 
Q 1584 2216 1326 1975 
Q 1069 1734 1069 1313 
Q 1069 891 1326 650 
Q 1584 409 2034 409 
Q 2484 409 2743 651 
Q 3003 894 3003 1313 
Q 3003 1734 2745 1975 
Q 2488 2216 2034 2216 
z
M 1403 2484 
Q 997 2584 770 2862 
Q 544 3141 544 3541 
Q 544 4100 942 4425 
Q 1341 4750 2034 4750 
Q 2731 4750 3128 4425 
Q 3525 4100 3525 3541 
Q 3525 3141 3298 2862 
Q 3072 2584 2669 2484 
Q 3125 2378 3379 2068 
Q 3634 1759 3634 1313 
Q 3634 634 3220 271 
Q 2806 -91 2034 -91 
Q 1263 -91 848 271 
Q 434 634 434 1313 
Q 434 1759 690 2068 
Q 947 2378 1403 2484 
z
M 1172 3481 
Q 1172 3119 1398 2916 
Q 1625 2713 2034 2713 
Q 2441 2713 2670 2916 
Q 2900 3119 2900 3481 
Q 2900 3844 2670 4047 
Q 2441 4250 2034 4250 
Q 1625 4250 1398 4047 
Q 1172 3844 1172 3481 
z
" transform="scale(0.015625)"/>
       </defs>
       <use xlink:href="#DejaVuSans-32"/>
       <use xlink:href="#DejaVuSans-30" transform="translate(63.623047 0)"/>
       <use xlink:href="#DejaVuSans-32" transform="translate(127.246094 0)"/>
       <use xlink:href="#DejaVuSans-30" transform="translate(190.869141 0)"/>
       <use xlink:href="#DejaVuSans-2d" transform="translate(254.492188 0)"/>
       <use xlink:href="#DejaVuSans-30" transform="translate(290.576172 0)"/>
       <use xlink:href="#DejaVuSans-34" transform="translate(354.199219 0)"/>
       <use xlink:href="#DejaVuSans-2d" transform="translate(417.822266 0)"/>
       <use xlink:href="#DejaVuSans-30" transform="translate(453.90625 0)"/>
       <use xlink:href="#DejaVuSans-38" transform="translate(517.529297 0)"/>
      </g>
     </g>
    </g>
    <g id="xtick_4">
     <g id="line2d_7">
      <path d="M 534.86624 462.04 
L 534.86624 25.8 
" clip-path="url(#p10004b79ef)" style="fill: none; stroke-dasharray: 2.96,1.28; stroke-dashoffset: 0; stroke: #b0b0b0; stroke-opacity: 0.5; stroke-width: 0.8"/>
     </g>
     <g id="line2d_8">
      <g>
       <use xlink:href="#m25e45ed31d" x="534.86624" y="462.04" style="stroke: #000000; stroke-width: 0.8"/>
      </g>
     </g>
     <g id="text_4">
      <!-- 2020-04-15 -->
      <g transform="translate(505.808427 476.638438) scale(0.1 -0.1)">
       <defs>
        <path id="DejaVuSans-35" d="M 691 4666 
L 3169 4666 
L 3169 4134 
L 1269 4134 
L 1269 2991 
Q 1406 3038 1543 3061 
Q 1681 3084 1819 3084 
Q 2600 3084 3056 2656 
Q 3513 2228 3513 1497 
Q 3513 744 3044 326 
Q 2575 -91 1722 -91 
Q 1428 -91 1123 -41 
Q 819 9 494 109 
L 494 744 
Q 775 591 1075 516 
Q 1375 441 1709 441 
Q 2250 441 2565 725 
Q 2881 1009 2881 1497 
Q 2881 1984 2565 2268 
Q 2250 2553 1709 2553 
Q 1456 2553 1204 2497 
Q 953 2441 691 2322 
L 691 4666 
z
" transform="scale(0.015625)"/>
       </defs>
       <use xlink:href="#DejaVuSans-32"/>
       <use xlink:href="#DejaVuSans-30" transform="translate(63.623047 0)"/>
       <use xlink:href="#DejaVuSans-32" transform="translate(127.246094 0)"/>
       <use xlink:href="#DejaVuSans-30" transform="translate(190.869141 0)"/>
       <use xlink:href="#DejaVuSans-2d" transform="translate(254.492188 0)"/>
       <use xlink:href="#DejaVuSans-30" transform="translate(290.576172 0)"/>
       <use xlink:href="#DejaVuSans-34" transform="translate(354.199219 0)"/>
       <use xlink:href="#DejaVuSans-2d" transform="translate(417.822266 0)"/>
       <use xlink:href="#DejaVuSans-31" transform="translate(453.90625 0)"/>
       <use xlink:href="#DejaVuSans-35" transform="translate(517.529297 0)"/>
      </g>
     </g>
    </g>
    <g id="xtick_5">
     <g id="line2d_9">
      <path d="M 666.539246 462.04 
L 666.539246 25.8 
" clip-path="url(#p10004b79ef)" style="fill: none; stroke-dasharray: 2.96,1.28; stroke-dashoffset: 0; stroke: #b0b0b0; stroke-opacity: 0.5; stroke-width: 0.8"/>
     </g>
     <g id="line2d_10">
      <g>
       <use xlink:href="#m25e45ed31d" x="666.539246" y="462.04" style="stroke: #000000; stroke-width: 0.8"/>
      </g>
     </g>
     <g id="text_5">
      <!-- 2020-04-22 -->
      <g transform="translate(637.481433 476.638438) scale(0.1 -0.1)">
       <use xlink:href="#DejaVuSans-32"/>
       <use xlink:href="#DejaVuSans-30" transform="translate(63.623047 0)"/>
       <use xlink:href="#DejaVuSans-32" transform="translate(127.246094 0)"/>
       <use xlink:href="#DejaVuSans-30" transform="translate(190.869141 0)"/>
       <use xlink:href="#DejaVuSans-2d" transform="translate(254.492188 0)"/>
       <use xlink:href="#DejaVuSans-30" transform="translate(290.576172 0)"/>
       <use xlink:href="#DejaVuSans-34" transform="translate(354.199219 0)"/>
       <use xlink:href="#DejaVuSans-2d" transform="translate(417.822266 0)"/>
       <use xlink:href="#DejaVuSans-32" transform="translate(453.90625 0)"/>
       <use xlink:href="#DejaVuSans-32" transform="translate(517.529297 0)"/>
      </g>
     </g>
    </g>
    <g id="xtick_6">
     <g id="line2d_11">
      <path d="M 835.83311 462.04 
L 835.83311 25.8 
" clip-path="url(#p10004b79ef)" style="fill: none; stroke-dasharray: 2.96,1.28; stroke-dashoffset: 0; stroke: #b0b0b0; stroke-opacity: 0.5; stroke-width: 0.8"/>
     </g>
     <g id="line2d_12">
      <g>
       <use xlink:href="#m25e45ed31d" x="835.83311" y="462.04" style="stroke: #000000; stroke-width: 0.8"/>
      </g>
     </g>
     <g id="text_6">
      <!-- 2020-05-01 -->
      <g transform="translate(806.775298 476.638438) scale(0.1 -0.1)">
       <use xlink:href="#DejaVuSans-32"/>
       <use xlink:href="#DejaVuSans-30" transform="translate(63.623047 0)"/>
       <use xlink:href="#DejaVuSans-32" transform="translate(127.246094 0)"/>
       <use xlink:href="#DejaVuSans-30" transform="translate(190.869141 0)"/>
       <use xlink:href="#DejaVuSans-2d" transform="translate(254.492188 0)"/>
       <use xlink:href="#DejaVuSans-30" transform="translate(290.576172 0)"/>
       <use xlink:href="#DejaVuSans-35" transform="translate(354.199219 0)"/>
       <use xlink:href="#DejaVuSans-2d" transform="translate(417.822266 0)"/>
       <use xlink:href="#DejaVuSans-30" transform="translate(453.90625 0)"/>
       <use xlink:href="#DejaVuSans-31" transform="translate(517.529297 0)"/>
      </g>
     </g>
    </g>
    <g id="xtick_7">
     <g id="line2d_13">
      <path d="M 967.506116 462.04 
L 967.506116 25.8 
" clip-path="url(#p10004b79ef)" style="fill: none; stroke-dasharray: 2.96,1.28; stroke-dashoffset: 0; stroke: #b0b0b0; stroke-opacity: 0.5; stroke-width: 0.8"/>
     </g>
     <g id="line2d_14">
      <g>
       <use xlink:href="#m25e45ed31d" x="967.506116" y="462.04" style="stroke: #000000; stroke-width: 0.8"/>
      </g>
     </g>
     <g id="text_7">
      <!-- 2020-05-08 -->
      <g transform="translate(938.448304 476.638438) scale(0.1 -0.1)">
       <use xlink:href="#DejaVuSans-32"/>
       <use xlink:href="#DejaVuSans-30" transform="translate(63.623047 0)"/>
       <use xlink:href="#DejaVuSans-32" transform="translate(127.246094 0)"/>
       <use xlink:href="#DejaVuSans-30" transform="translate(190.869141 0)"/>
       <use xlink:href="#DejaVuSans-2d" transform="translate(254.492188 0)"/>
       <use xlink:href="#DejaVuSans-30" transform="translate(290.576172 0)"/>
       <use xlink:href="#DejaVuSans-35" transform="translate(354.199219 0)"/>
       <use xlink:href="#DejaVuSans-2d" transform="translate(417.822266 0)"/>
       <use xlink:href="#DejaVuSans-30" transform="translate(453.90625 0)"/>
       <use xlink:href="#DejaVuSans-38" transform="translate(517.529297 0)"/>
      </g>
     </g>
    </g>
    <g id="text_8">
     <!-- Fecha -->
     <g transform="translate(548.030625 490.316563) scale(0.1 -0.1)">
      <defs>
       <path id="DejaVuSans-46" d="M 628 4666 
L 3309 4666 
L 3309 4134 
L 1259 4134 
L 1259 2759 
L 3109 2759 
L 3109 2228 
L 1259 2228 
L 1259 0 
L 628 0 
L 628 4666 
z
" transform="scale(0.015625)"/>
       <path id="DejaVuSans-65" d="M 3597 1894 
L 3597 1613 
L 953 1613 
Q 991 1019 1311 708 
Q 1631 397 2203 397 
Q 2534 397 2845 478 
Q 3156 559 3463 722 
L 3463 178 
Q 3153 47 2828 -22 
Q 2503 -91 2169 -91 
Q 1331 -91 842 396 
Q 353 884 353 1716 
Q 353 2575 817 3079 
Q 1281 3584 2069 3584 
Q 2775 3584 3186 3129 
Q 3597 2675 3597 1894 
z
M 3022 2063 
Q 3016 2534 2758 2815 
Q 2500 3097 2075 3097 
Q 1594 3097 1305 2825 
Q 1016 2553 972 2059 
L 3022 2063 
z
" transform="scale(0.015625)"/>
       <path id="DejaVuSans-63" d="M 3122 3366 
L 3122 2828 
Q 2878 2963 2633 3030 
Q 2388 3097 2138 3097 
Q 1578 3097 1268 2742 
Q 959 2388 959 1747 
Q 959 1106 1268 751 
Q 1578 397 2138 397 
Q 2388 397 2633 464 
Q 2878 531 3122 666 
L 3122 134 
Q 2881 22 2623 -34 
Q 2366 -91 2075 -91 
Q 1284 -91 818 406 
Q 353 903 353 1747 
Q 353 2603 823 3093 
Q 1294 3584 2113 3584 
Q 2378 3584 2631 3529 
Q 2884 3475 3122 3366 
z
" transform="scale(0.015625)"/>
       <path id="DejaVuSans-68" d="M 3513 2113 
L 3513 0 
L 2938 0 
L 2938 2094 
Q 2938 2591 2744 2837 
Q 2550 3084 2163 3084 
Q 1697 3084 1428 2787 
Q 1159 2491 1159 1978 
L 1159 0 
L 581 0 
L 581 4863 
L 1159 4863 
L 1159 2956 
Q 1366 3272 1645 3428 
Q 1925 3584 2291 3584 
Q 2894 3584 3203 3211 
Q 3513 2838 3513 2113 
z
" transform="scale(0.015625)"/>
       <path id="DejaVuSans-61" d="M 2194 1759 
Q 1497 1759 1228 1600 
Q 959 1441 959 1056 
Q 959 750 1161 570 
Q 1363 391 1709 391 
Q 2188 391 2477 730 
Q 2766 1069 2766 1631 
L 2766 1759 
L 2194 1759 
z
M 3341 1997 
L 3341 0 
L 2766 0 
L 2766 531 
Q 2569 213 2275 61 
Q 1981 -91 1556 -91 
Q 1019 -91 701 211 
Q 384 513 384 1019 
Q 384 1609 779 1909 
Q 1175 2209 1959 2209 
L 2766 2209 
L 2766 2266 
Q 2766 2663 2505 2880 
Q 2244 3097 1772 3097 
Q 1472 3097 1187 3025 
Q 903 2953 641 2809 
L 641 3341 
Q 956 3463 1253 3523 
Q 1550 3584 1831 3584 
Q 2591 3584 2966 3190 
Q 3341 2797 3341 1997 
z
" transform="scale(0.015625)"/>
      </defs>
      <use xlink:href="#DejaVuSans-46"/>
      <use xlink:href="#DejaVuSans-65" transform="translate(52.019531 0)"/>
      <use xlink:href="#DejaVuSans-63" transform="translate(113.542969 0)"/>
      <use xlink:href="#DejaVuSans-68" transform="translate(168.523438 0)"/>
      <use xlink:href="#DejaVuSans-61" transform="translate(231.902344 0)"/>
     </g>
    </g>
   </g>
   <g id="matplotlib.axis_2">
    <g id="ytick_1">
     <g id="line2d_15">
      <path d="M 56.18 377.660053 
L 1069.2 377.660053 
" clip-path="url(#p10004b79ef)" style="fill: none; stroke-dasharray: 2.96,1.28; stroke-dashoffset: 0; stroke: #b0b0b0; stroke-opacity: 0.5; stroke-width: 0.8"/>
     </g>
     <g id="line2d_16">
      <defs>
       <path id="mdc6135cb5c" d="M 0 0 
L -3.5 0 
" style="stroke: #000000; stroke-width: 0.8"/>
      </defs>
      <g>
       <use xlink:href="#mdc6135cb5c" x="56.18" y="377.660053" style="stroke: #000000; stroke-width: 0.8"/>
      </g>
     </g>
     <g id="text_9">
      <!-- −0.4 -->
      <g transform="translate(24.897187 381.459272) scale(0.1 -0.1)">
       <defs>
        <path id="DejaVuSans-2212" d="M 678 2272 
L 4684 2272 
L 4684 1741 
L 678 1741 
L 678 2272 
z
" transform="scale(0.015625)"/>
        <path id="DejaVuSans-2e" d="M 684 794 
L 1344 794 
L 1344 0 
L 684 0 
L 684 794 
z
" transform="scale(0.015625)"/>
       </defs>
       <use xlink:href="#DejaVuSans-2212"/>
       <use xlink:href="#DejaVuSans-30" transform="translate(83.789062 0)"/>
       <use xlink:href="#DejaVuSans-2e" transform="translate(147.412109 0)"/>
       <use xlink:href="#DejaVuSans-34" transform="translate(179.199219 0)"/>
      </g>
     </g>
    </g>
    <g id="ytick_2">
     <g id="line2d_17">
      <path d="M 56.18 287.944016 
L 1069.2 287.944016 
" clip-path="url(#p10004b79ef)" style="fill: none; stroke-dasharray: 2.96,1.28; stroke-dashoffset: 0; stroke: #b0b0b0; stroke-opacity: 0.5; stroke-width: 0.8"/>
     </g>
     <g id="line2d_18">
      <g>
       <use xlink:href="#mdc6135cb5c" x="56.18" y="287.944016" style="stroke: #000000; stroke-width: 0.8"/>
      </g>
     </g>
     <g id="text_10">
      <!-- −0.2 -->
      <g transform="translate(24.897187 291.743235) scale(0.1 -0.1)">
       <use xlink:href="#DejaVuSans-2212"/>
       <use xlink:href="#DejaVuSans-30" transform="translate(83.789062 0)"/>
       <use xlink:href="#DejaVuSans-2e" transform="translate(147.412109 0)"/>
       <use xlink:href="#DejaVuSans-32" transform="translate(179.199219 0)"/>
      </g>
     </g>
    </g>
    <g id="ytick_3">
     <g id="line2d_19">
      <path d="M 56.18 198.227979 
L 1069.2 198.227979 
" clip-path="url(#p10004b79ef)" style="fill: none; stroke-dasharray: 2.96,1.28; stroke-dashoffset: 0; stroke: #b0b0b0; stroke-opacity: 0.5; stroke-width: 0.8"/>
     </g>
     <g id="line2d_20">
      <g>
       <use xlink:href="#mdc6135cb5c" x="56.18" y="198.227979" style="stroke: #000000; stroke-width: 0.8"/>
      </g>
     </g>
     <g id="text_11">
      <!-- 0.0 -->
      <g transform="translate(33.276875 202.027198) scale(0.1 -0.1)">
       <use xlink:href="#DejaVuSans-30"/>
       <use xlink:href="#DejaVuSans-2e" transform="translate(63.623047 0)"/>
       <use xlink:href="#DejaVuSans-30" transform="translate(95.410156 0)"/>
      </g>
     </g>
    </g>
    <g id="ytick_4">
     <g id="line2d_21">
      <path d="M 56.18 108.511942 
L 1069.2 108.511942 
" clip-path="url(#p10004b79ef)" style="fill: none; stroke-dasharray: 2.96,1.28; stroke-dashoffset: 0; stroke: #b0b0b0; stroke-opacity: 0.5; stroke-width: 0.8"/>
     </g>
     <g id="line2d_22">
      <g>
       <use xlink:href="#mdc6135cb5c" x="56.18" y="108.511942" style="stroke: #000000; stroke-width: 0.8"/>
      </g>
     </g>
     <g id="text_12">
      <!-- 0.2 -->
      <g transform="translate(33.276875 112.311161) scale(0.1 -0.1)">
       <use xlink:href="#DejaVuSans-30"/>
       <use xlink:href="#DejaVuSans-2e" transform="translate(63.623047 0)"/>
       <use xlink:href="#DejaVuSans-32" transform="translate(95.410156 0)"/>
      </g>
     </g>
    </g>
    <g id="text_13">
     <!-- Nivel Residual de CO -->
     <g transform="translate(18.8175 296.035625) rotate(-90) scale(0.1 -0.1)">
      <defs>
       <path id="DejaVuSans-4e" d="M 628 4666 
L 1478 4666 
L 3547 763 
L 3547 4666 
L 4159 4666 
L 4159 0 
L 3309 0 
L 1241 3903 
L 1241 0 
L 628 0 
L 628 4666 
z
" transform="scale(0.015625)"/>
       <path id="DejaVuSans-69" d="M 603 3500 
L 1178 3500 
L 1178 0 
L 603 0 
L 603 3500 
z
M 603 4863 
L 1178 4863 
L 1178 4134 
L 603 4134 
L 603 4863 
z
" transform="scale(0.015625)"/>
       <path id="DejaVuSans-76" d="M 191 3500 
L 800 3500 
L 1894 563 
L 2988 3500 
L 3597 3500 
L 2284 0 
L 1503 0 
L 191 3500 
z
" transform="scale(0.015625)"/>
       <path id="DejaVuSans-6c" d="M 603 4863 
L 1178 4863 
L 1178 0 
L 603 0 
L 603 4863 
z
" transform="scale(0.015625)"/>
       <path id="DejaVuSans-20" transform="scale(0.015625)"/>
       <path id="DejaVuSans-52" d="M 2841 2188 
Q 3044 2119 3236 1894 
Q 3428 1669 3622 1275 
L 4263 0 
L 3584 0 
L 2988 1197 
Q 2756 1666 2539 1819 
Q 2322 1972 1947 1972 
L 1259 1972 
L 1259 0 
L 628 0 
L 628 4666 
L 2053 4666 
Q 2853 4666 3247 4331 
Q 3641 3997 3641 3322 
Q 3641 2881 3436 2590 
Q 3231 2300 2841 2188 
z
M 1259 4147 
L 1259 2491 
L 2053 2491 
Q 2509 2491 2742 2702 
Q 2975 2913 2975 3322 
Q 2975 3731 2742 3939 
Q 2509 4147 2053 4147 
L 1259 4147 
z
" transform="scale(0.015625)"/>
       <path id="DejaVuSans-73" d="M 2834 3397 
L 2834 2853 
Q 2591 2978 2328 3040 
Q 2066 3103 1784 3103 
Q 1356 3103 1142 2972 
Q 928 2841 928 2578 
Q 928 2378 1081 2264 
Q 1234 2150 1697 2047 
L 1894 2003 
Q 2506 1872 2764 1633 
Q 3022 1394 3022 966 
Q 3022 478 2636 193 
Q 2250 -91 1575 -91 
Q 1294 -91 989 -36 
Q 684 19 347 128 
L 347 722 
Q 666 556 975 473 
Q 1284 391 1588 391 
Q 1994 391 2212 530 
Q 2431 669 2431 922 
Q 2431 1156 2273 1281 
Q 2116 1406 1581 1522 
L 1381 1569 
Q 847 1681 609 1914 
Q 372 2147 372 2553 
Q 372 3047 722 3315 
Q 1072 3584 1716 3584 
Q 2034 3584 2315 3537 
Q 2597 3491 2834 3397 
z
" transform="scale(0.015625)"/>
       <path id="DejaVuSans-64" d="M 2906 2969 
L 2906 4863 
L 3481 4863 
L 3481 0 
L 2906 0 
L 2906 525 
Q 2725 213 2448 61 
Q 2172 -91 1784 -91 
Q 1150 -91 751 415 
Q 353 922 353 1747 
Q 353 2572 751 3078 
Q 1150 3584 1784 3584 
Q 2172 3584 2448 3432 
Q 2725 3281 2906 2969 
z
M 947 1747 
Q 947 1113 1208 752 
Q 1469 391 1925 391 
Q 2381 391 2643 752 
Q 2906 1113 2906 1747 
Q 2906 2381 2643 2742 
Q 2381 3103 1925 3103 
Q 1469 3103 1208 2742 
Q 947 2381 947 1747 
z
" transform="scale(0.015625)"/>
       <path id="DejaVuSans-75" d="M 544 1381 
L 544 3500 
L 1119 3500 
L 1119 1403 
Q 1119 906 1312 657 
Q 1506 409 1894 409 
Q 2359 409 2629 706 
Q 2900 1003 2900 1516 
L 2900 3500 
L 3475 3500 
L 3475 0 
L 2900 0 
L 2900 538 
Q 2691 219 2414 64 
Q 2138 -91 1772 -91 
Q 1169 -91 856 284 
Q 544 659 544 1381 
z
M 1991 3584 
L 1991 3584 
z
" transform="scale(0.015625)"/>
       <path id="DejaVuSans-43" d="M 4122 4306 
L 4122 3641 
Q 3803 3938 3442 4084 
Q 3081 4231 2675 4231 
Q 1875 4231 1450 3742 
Q 1025 3253 1025 2328 
Q 1025 1406 1450 917 
Q 1875 428 2675 428 
Q 3081 428 3442 575 
Q 3803 722 4122 1019 
L 4122 359 
Q 3791 134 3420 21 
Q 3050 -91 2638 -91 
Q 1578 -91 968 557 
Q 359 1206 359 2328 
Q 359 3453 968 4101 
Q 1578 4750 2638 4750 
Q 3056 4750 3426 4639 
Q 3797 4528 4122 4306 
z
" transform="scale(0.015625)"/>
       <path id="DejaVuSans-4f" d="M 2522 4238 
Q 1834 4238 1429 3725 
Q 1025 3213 1025 2328 
Q 1025 1447 1429 934 
Q 1834 422 2522 422 
Q 3209 422 3611 934 
Q 4013 1447 4013 2328 
Q 4013 3213 3611 3725 
Q 3209 4238 2522 4238 
z
M 2522 4750 
Q 3503 4750 4090 4092 
Q 4678 3434 4678 2328 
Q 4678 1225 4090 567 
Q 3503 -91 2522 -91 
Q 1538 -91 948 565 
Q 359 1222 359 2328 
Q 359 3434 948 4092 
Q 1538 4750 2522 4750 
z
" transform="scale(0.015625)"/>
      </defs>
      <use xlink:href="#DejaVuSans-4e"/>
      <use xlink:href="#DejaVuSans-69" transform="translate(74.804688 0)"/>
      <use xlink:href="#DejaVuSans-76" transform="translate(102.587891 0)"/>
      <use xlink:href="#DejaVuSans-65" transform="translate(161.767578 0)"/>
      <use xlink:href="#DejaVuSans-6c" transform="translate(223.291016 0)"/>
      <use xlink:href="#DejaVuSans-20" transform="translate(251.074219 0)"/>
      <use xlink:href="#DejaVuSans-52" transform="translate(282.861328 0)"/>
      <use xlink:href="#DejaVuSans-65" transform="translate(347.84375 0)"/>
      <use xlink:href="#DejaVuSans-73" transform="translate(409.367188 0)"/>
      <use xlink:href="#DejaVuSans-69" transform="translate(461.466797 0)"/>
      <use xlink:href="#DejaVuSans-64" transform="translate(489.25 0)"/>
      <use xlink:href="#DejaVuSans-75" transform="translate(552.726562 0)"/>
      <use xlink:href="#DejaVuSans-61" transform="translate(616.105469 0)"/>
      <use xlink:href="#DejaVuSans-6c" transform="translate(677.384766 0)"/>
      <use xlink:href="#DejaVuSans-20" transform="translate(705.167969 0)"/>
      <use xlink:href="#DejaVuSans-64" transform="translate(736.955078 0)"/>
      <use xlink:href="#DejaVuSans-65" transform="translate(800.431641 0)"/>
      <use xlink:href="#DejaVuSans-20" transform="translate(861.955078 0)"/>
      <use xlink:href="#DejaVuSans-43" transform="translate(893.742188 0)"/>
      <use xlink:href="#DejaVuSans-4f" transform="translate(963.566406 0)"/>
     </g>
    </g>
   </g>
   <g id="line2d_23">
    <path d="M 102.226364 313.797742 
L 103.010132 320.24688 
L 103.793899 323.407684 
L 104.577667 305.765397 
L 105.361435 295.043764 
L 106.145203 282.320363 
L 106.928971 275.252765 
L 107.712739 264.700237 
L 108.496507 264.677367 
L 110.064043 276.521265 
L 110.84781 280.045151 
L 111.631578 285.087752 
L 112.415346 284.951851 
L 113.982882 266.096598 
L 114.76665 265.932158 
L 115.550418 270.465936 
L 116.334186 280.985528 
L 117.117954 284.423961 
L 117.901721 288.987872 
L 118.685489 306.055705 
L 119.469257 305.33067 
L 120.253025 303.719163 
L 121.036793 296.264259 
L 122.604329 269.992047 
L 124.171865 236.770852 
L 124.955632 223.418217 
L 126.523168 213.383304 
L 127.306936 211.634589 
L 128.090704 216.901081 
L 128.874472 216.271008 
L 129.65824 223.124822 
L 130.442008 231.997048 
L 131.225776 285.842653 
L 132.009544 289.493504 
L 132.793311 295.003801 
L 133.577079 297.989319 
L 134.360847 296.218854 
L 135.144615 296.797101 
L 135.928383 294.529555 
L 136.712151 298.76169 
L 137.495919 295.761858 
L 138.279687 294.876528 
L 139.063455 301.510166 
L 139.847222 304.442274 
L 140.63099 299.466725 
L 141.414758 286.724238 
L 142.982294 243.433699 
L 143.766062 227.02193 
L 144.54983 218.376046 
L 145.333598 214.210195 
L 146.117366 215.180433 
L 146.901133 218.079924 
L 147.684901 226.510475 
L 148.468669 237.168883 
L 149.252437 245.405114 
L 150.036205 222.478681 
L 150.819973 226.872725 
L 151.603741 240.045551 
L 152.387509 247.576638 
L 153.171277 244.133802 
L 153.955044 242.526266 
L 154.738812 243.376647 
L 155.52258 249.437709 
L 156.306348 258.275487 
L 157.090116 254.343716 
L 157.873884 248.154582 
L 158.657652 240.035444 
L 159.44142 228.265212 
L 161.008956 215.789748 
L 161.792723 204.261864 
L 162.576491 196.387271 
L 163.360259 186.320189 
L 164.144027 178.985688 
L 164.927795 179.995723 
L 165.711563 180.760142 
L 167.279099 188.108284 
L 168.062867 196.772438 
L 168.846634 249.184968 
L 169.630402 251.270114 
L 170.41417 256.36574 
L 171.197938 259.102479 
L 171.981706 267.684688 
L 172.765474 271.524283 
L 173.549242 280.097187 
L 174.33301 286.15512 
L 175.116778 295.841504 
L 175.900545 295.043896 
L 176.684313 295.288437 
L 177.468081 298.320196 
L 178.251849 288.666675 
L 179.035617 282.389013 
L 179.819385 274.431654 
L 180.603153 258.981117 
L 181.386921 247.525679 
L 182.170689 240.495333 
L 182.954456 235.176369 
L 183.738224 235.821464 
L 185.30576 249.324898 
L 186.089528 251.948989 
L 186.873296 260.462585 
L 187.657064 262.882646 
L 189.2246 275.469117 
L 190.792135 287.831813 
L 191.575903 290.76094 
L 192.359671 292.196796 
L 193.143439 298.23196 
L 193.927207 310.560535 
L 194.710975 329.110666 
L 195.494743 344.592831 
L 196.278511 356.452736 
L 197.062279 361.963109 
L 197.846046 368.818089 
L 198.629814 359.872081 
L 199.413582 340.743996 
L 200.19735 314.804274 
L 200.981118 294.193035 
L 201.764886 283.40296 
L 202.548654 286.790815 
L 203.332422 293.533432 
L 204.11619 301.309596 
L 204.899957 307.761078 
L 205.683725 316.240085 
L 206.467493 320.406742 
L 207.251261 318.568592 
L 208.035029 325.206807 
L 208.818797 327.058481 
L 209.602565 325.64923 
L 210.386333 331.147118 
L 211.170101 342.102417 
L 211.953868 356.960476 
L 212.737636 366.339042 
L 213.521404 371.849709 
L 214.305172 373.862907 
L 215.08894 378.145948 
L 215.872708 372.639499 
L 216.656476 351.367334 
L 219.007779 268.751827 
L 219.791547 254.714356 
L 220.575315 251.283331 
L 221.359083 257.237312 
L 222.926619 281.193595 
L 223.710387 291.572915 
L 224.494155 293.462771 
L 225.277923 293.612447 
L 226.061691 283.027736 
L 226.845458 283.732159 
L 227.629226 292.195674 
L 228.412994 298.034547 
L 229.196762 305.003854 
L 229.98053 316.689326 
L 232.331834 367.057588 
L 233.115602 376.658929 
L 233.899369 384.22828 
L 234.683137 377.648995 
L 235.466905 368.731491 
L 237.818209 289.569455 
L 239.385745 259.145549 
L 240.169513 255.72595 
L 240.95328 258.892989 
L 241.737048 262.748222 
L 242.520816 269.378698 
L 243.304584 271.602346 
L 244.088352 274.81817 
L 244.87212 274.941469 
L 245.655888 281.044589 
L 246.439656 282.503615 
L 247.223424 285.082178 
L 248.007191 288.063768 
L 248.790959 290.225411 
L 249.574727 291.141464 
L 250.358495 290.612249 
L 251.142263 289.287769 
L 251.926031 288.227684 
L 252.709799 283.907915 
L 254.277335 267.456771 
L 256.628638 165.370928 
L 257.412406 148.266646 
L 258.979942 136.254812 
L 259.76371 136.296387 
L 260.547478 141.683181 
L 262.898781 235.256136 
L 263.682549 249.517716 
L 264.466317 256.080896 
L 265.250085 266.200759 
L 266.033853 269.836909 
L 266.817621 278.171929 
L 267.601389 282.526127 
L 268.385157 290.642288 
L 269.168925 294.238704 
L 269.952692 298.845223 
L 270.73646 305.491775 
L 271.520228 301.69824 
L 273.087764 289.641052 
L 275.439068 259.073855 
L 276.222836 249.783563 
L 277.006603 247.43369 
L 277.790371 248.816204 
L 278.574139 253.10838 
L 279.357907 264.880829 
L 280.141675 286.04552 
L 280.925443 301.075711 
L 281.709211 301.153174 
L 282.492979 300.892014 
L 284.060515 312.274255 
L 285.62805 318.093577 
L 286.411818 322.017748 
L 287.979354 336.758799 
L 289.54689 356.248641 
L 290.330658 353.985771 
L 291.114426 338.774882 
L 292.681961 298.919416 
L 294.249497 265.386652 
L 295.033265 251.593146 
L 295.817033 242.79508 
L 296.600801 236.779028 
L 297.384569 240.378118 
L 298.168337 246.565982 
L 298.952104 250.760208 
L 299.735872 252.102947 
L 300.51964 257.250217 
L 301.303408 260.284771 
L 302.087176 261.516032 
L 302.870944 265.988289 
L 303.654712 267.913346 
L 304.43848 270.512896 
L 305.222248 270.027676 
L 306.006015 272.802075 
L 306.789783 273.806945 
L 307.573551 270.96039 
L 308.357319 269.740692 
L 309.141087 263.337615 
L 310.708623 245.084511 
L 312.276159 227.311948 
L 313.059926 222.605745 
L 313.843694 222.27998 
L 314.627462 225.660065 
L 315.41123 227.205822 
L 316.194998 230.38545 
L 316.978766 237.170933 
L 318.546302 247.944373 
L 319.33007 138.299464 
L 320.897605 111.054646 
L 321.681373 91.846002 
L 322.465141 84.618906 
L 323.248909 93.704365 
L 324.032677 93.477572 
L 324.816445 100.670128 
L 325.600213 117.297802 
L 326.383981 146.49383 
L 327.167749 171.161549 
L 327.951516 189.51624 
L 328.735284 197.783931 
L 329.519052 190.707582 
L 330.30282 182.465083 
L 331.086588 175.810708 
L 331.870356 173.855922 
L 332.654124 173.439715 
L 333.437892 169.112862 
L 335.789195 139.670878 
L 337.356731 126.607449 
L 338.140499 249.967296 
L 338.924267 249.727798 
L 339.708035 249.738067 
L 340.491803 253.292255 
L 341.275571 260.294748 
L 342.059338 265.397087 
L 343.626874 286.842655 
L 345.978178 314.869975 
L 347.545714 338.990509 
L 348.329482 347.50609 
L 349.11325 336.046035 
L 351.464553 250.03426 
L 352.248321 236.2831 
L 353.032089 234.966355 
L 354.599625 259.16405 
L 356.167161 272.463721 
L 356.950928 275.399773 
L 357.734696 282.853108 
L 358.518464 287.432647 
L 359.302232 290.279732 
L 360.086 289.954685 
L 360.869768 289.819204 
L 361.653536 294.917394 
L 362.437304 297.354423 
L 364.004839 326.127984 
L 365.572375 343.14093 
L 366.356143 351.501726 
L 367.139911 346.591948 
L 367.923679 327.174991 
L 370.274983 229.069962 
L 371.05875 206.247282 
L 371.842518 194.025387 
L 372.626286 196.566582 
L 373.410054 205.179369 
L 374.97759 229.98985 
L 375.761358 239.832104 
L 376.545126 247.778752 
L 377.328894 252.661618 
L 378.112662 258.553503 
L 378.896429 260.328831 
L 379.680197 264.333851 
L 380.463965 265.005202 
L 381.247733 264.713454 
L 382.031501 266.724282 
L 382.815269 272.955898 
L 383.599037 278.132828 
L 384.382805 278.730926 
L 385.166573 283.614149 
L 385.95034 274.091893 
L 387.517876 252.0185 
L 388.301644 243.069862 
L 389.085412 238.040253 
L 389.86918 237.686356 
L 390.652948 246.143881 
L 391.436716 258.722636 
L 392.220484 263.304575 
L 393.004251 264.470699 
L 393.788019 266.883151 
L 394.571787 267.571202 
L 395.355555 263.526182 
L 396.139323 262.318427 
L 396.923091 259.819882 
L 397.706859 260.929143 
L 398.490627 266.584468 
L 399.274395 271.313122 
L 400.058162 274.401486 
L 400.84193 273.667965 
L 401.625698 279.74728 
L 403.193234 262.51438 
L 403.977002 258.699464 
L 404.76077 259.499095 
L 405.544538 243.59835 
L 407.112074 203.291425 
L 407.895841 202.26629 
L 408.679609 206.50301 
L 409.463377 217.818124 
L 410.247145 236.481429 
L 411.030913 244.817462 
L 411.814681 246.998904 
L 412.598449 246.38872 
L 413.382217 237.10439 
L 414.165985 229.965207 
L 414.949752 227.834407 
L 415.73352 227.837192 
L 416.517288 228.247977 
L 418.084824 237.951073 
L 418.868592 244.22499 
L 419.65236 252.148129 
L 420.436128 257.981822 
L 421.219896 262.740407 
L 422.003663 264.952261 
L 422.787431 255.490738 
L 423.571199 236.363725 
L 425.138735 187.870077 
L 425.922503 174.74727 
L 426.706271 170.615022 
L 427.490039 165.472562 
L 428.273807 166.35361 
L 429.057574 172.548903 
L 429.841342 181.965922 
L 430.62511 193.959452 
L 431.408878 202.363773 
L 432.192646 206.049193 
L 432.976414 206.216104 
L 433.760182 208.646223 
L 435.327718 236.604281 
L 436.111485 233.72487 
L 436.895253 240.76402 
L 437.679021 244.546811 
L 438.462789 243.285055 
L 439.246557 244.605246 
L 440.030325 238.606641 
L 440.814093 234.570687 
L 441.597861 225.386405 
L 442.381629 213.044187 
L 443.949164 179.949183 
L 444.732932 172.647563 
L 446.300468 163.047349 
L 447.084236 166.398195 
L 447.868004 173.130194 
L 448.651772 187.888295 
L 449.43554 200.443385 
L 450.219308 197.641319 
L 451.003075 184.17829 
L 451.786843 177.254629 
L 452.570611 179.178969 
L 453.354379 173.948631 
L 454.138147 174.85267 
L 454.921915 176.523459 
L 455.705683 181.905848 
L 456.489451 194.979938 
L 457.273219 197.154781 
L 458.056986 201.20483 
L 458.840754 211.601817 
L 459.624522 210.915431 
L 460.40829 203.116199 
L 461.192058 199.138284 
L 461.975826 190.002539 
L 463.543362 167.16766 
L 464.32713 157.65374 
L 465.110897 156.864616 
L 465.894665 163.989218 
L 469.029737 218.597965 
L 469.813505 231.264268 
L 470.597273 234.725444 
L 471.381041 240.819235 
L 472.164809 243.391501 
L 472.948576 246.595467 
L 473.732344 248.665198 
L 474.516112 262.007539 
L 475.29988 265.344841 
L 476.083648 274.929642 
L 476.867416 281.254144 
L 478.434952 273.08627 
L 480.002487 243.425478 
L 480.786255 226.795565 
L 481.570023 212.634068 
L 482.353791 204.298586 
L 483.137559 202.050434 
L 483.921327 203.497024 
L 484.705095 208.643954 
L 485.488863 221.288715 
L 486.272631 230.025395 
L 487.056398 237.280539 
L 487.840166 243.130176 
L 488.623934 247.818793 
L 489.407702 246.987298 
L 490.19147 253.105146 
L 491.759006 260.907507 
L 492.542774 267.280798 
L 493.326542 268.000517 
L 494.110309 270.369946 
L 495.677845 274.37182 
L 496.461613 261.931289 
L 497.245381 244.207114 
L 500.380453 187.321772 
L 501.164221 171.798487 
L 501.947988 162.343991 
L 502.731756 157.283739 
L 503.515524 160.967399 
L 504.299292 172.760022 
L 505.866828 206.400222 
L 506.650596 210.48369 
L 507.434364 213.128536 
L 509.001899 227.172394 
L 509.785667 237.72002 
L 510.569435 245.20794 
L 511.353203 273.624888 
L 512.136971 297.109896 
L 512.920739 315.8554 
L 513.704507 331.865425 
L 514.488275 334.273676 
L 515.272043 330.368121 
L 516.839578 302.117132 
L 518.407114 260.504275 
L 519.97465 229.084652 
L 520.758418 213.308041 
L 521.542186 206.970342 
L 522.325954 204.213865 
L 523.109721 208.869203 
L 523.893489 211.907109 
L 524.677257 211.592568 
L 525.461025 209.045207 
L 526.244793 212.802761 
L 527.028561 218.148373 
L 527.812329 231.098658 
L 530.9474 291.034163 
L 531.731168 293.217743 
L 532.514936 299.565829 
L 533.298704 308.093491 
L 534.082472 313.928664 
L 534.86624 312.524773 
L 535.650008 313.196315 
L 538.001311 281.863108 
L 539.568847 271.33705 
L 540.352615 262.314894 
L 541.136383 254.867718 
L 541.920151 257.637859 
L 542.703919 264.384824 
L 543.487687 273.514019 
L 544.271455 275.312615 
L 545.055222 279.469313 
L 545.83899 275.4067 
L 546.622758 277.560231 
L 547.406526 280.76171 
L 548.190294 286.479828 
L 548.974062 290.910348 
L 549.75783 297.148492 
L 551.325366 304.784436 
L 552.109133 314.392491 
L 552.892901 315.21406 
L 553.676669 314.526378 
L 554.460437 319.24673 
L 555.244205 321.281015 
L 556.027973 316.008087 
L 556.811741 311.655014 
L 557.595509 314.30821 
L 558.379277 311.844894 
L 559.163044 323.516743 
L 559.946812 339.676312 
L 560.73058 364.417986 
L 561.514348 380.837972 
L 562.298116 377.806293 
L 564.64942 309.276334 
L 565.433188 293.078512 
L 566.216956 287.246939 
L 567.000723 292.040675 
L 567.784491 303.336508 
L 568.568259 310.705593 
L 569.352027 307.758958 
L 570.135795 308.852561 
L 570.919563 314.80308 
L 571.703331 318.576494 
L 572.487099 321.395303 
L 573.270867 327.909609 
L 574.054634 350.614876 
L 575.62217 325.533567 
L 576.405938 310.492502 
L 577.189706 291.377928 
L 577.973474 279.131325 
L 578.757242 280.660155 
L 579.54101 285.374058 
L 580.324778 291.317449 
L 581.108545 294.901285 
L 581.892313 291.810033 
L 582.676081 280.801389 
L 583.459849 277.437631 
L 584.243617 285.847429 
L 585.027385 296.231426 
L 585.811153 299.764302 
L 586.594921 304.944646 
L 587.378689 302.455145 
L 588.162456 309.684918 
L 588.946224 322.772603 
L 589.729992 329.124671 
L 590.51376 340.078279 
L 591.297528 334.581237 
L 592.081296 328.255904 
L 592.865064 326.393613 
L 594.4326 310.942049 
L 597.567671 271.337928 
L 598.351439 270.056472 
L 599.135207 272.109363 
L 599.918975 274.99483 
L 600.702743 279.700613 
L 601.486511 283.226012 
L 602.270279 285.250666 
L 603.054046 288.840573 
L 603.837814 294.30582 
L 604.621582 295.12031 
L 605.40535 297.551251 
L 606.189118 306.218291 
L 606.972886 309.301729 
L 608.540422 325.67161 
L 609.32419 335.106962 
L 610.107957 324.592587 
L 612.459261 257.860222 
L 613.243029 243.023586 
L 614.026797 233.965573 
L 614.810565 234.561352 
L 615.594333 231.042855 
L 616.378101 230.162927 
L 617.945636 244.363352 
L 618.729404 257.057176 
L 619.513172 267.22884 
L 620.29694 274.294386 
L 621.080708 279.719562 
L 621.864476 286.856217 
L 624.215779 303.937906 
L 625.783315 310.219393 
L 626.567083 322.492723 
L 627.350851 339.078181 
L 628.134619 360.019553 
L 629.702155 415.518125 
L 630.485923 421.140205 
L 631.269691 423.321932 
L 632.053458 432.025308 
L 632.837226 434.690892 
L 633.620994 439.635604 
L 634.404762 441.107563 
L 635.18853 442.210909 
L 635.972298 432.538091 
L 636.756066 413.550582 
L 637.539834 377.927847 
L 639.107369 286.91348 
L 639.891137 248.578693 
L 640.674905 236.671444 
L 641.458673 236.031498 
L 642.242441 240.741901 
L 643.026209 253.096032 
L 643.809977 278.290774 
L 645.377513 309.802062 
L 646.16128 332.657528 
L 646.945048 346.788739 
L 648.512584 368.391608 
L 649.296352 362.292245 
L 650.08012 345.203691 
L 650.863888 314.345951 
L 651.647656 269.085275 
L 652.431424 236.051623 
L 653.215191 217.06313 
L 653.998959 216.278667 
L 655.566495 249.631671 
L 656.350263 261.32593 
L 657.134031 262.80633 
L 657.917799 266.195475 
L 658.701567 271.174579 
L 659.485335 274.586184 
L 660.269103 273.274241 
L 661.05287 269.329846 
L 661.836638 269.761937 
L 662.620406 272.513395 
L 663.404174 279.041149 
L 664.187942 284.120654 
L 664.97171 287.490924 
L 665.755478 290.236719 
L 666.539246 288.731469 
L 667.323014 283.019281 
L 668.106781 272.755213 
L 669.674317 243.687917 
L 670.458085 231.458696 
L 671.241853 224.445716 
L 672.025621 220.276115 
L 672.809389 219.100788 
L 673.593157 221.073634 
L 674.376925 224.143358 
L 675.160692 233.033295 
L 675.94446 239.092519 
L 676.728228 236.40109 
L 677.511996 237.533097 
L 678.295764 236.86702 
L 679.079532 240.188599 
L 679.8633 245.989292 
L 680.647068 250.574925 
L 682.214603 272.208796 
L 682.998371 278.435002 
L 683.782139 278.785528 
L 684.565907 290.316155 
L 685.349675 293.307985 
L 686.133443 280.203032 
L 686.917211 270.253998 
L 687.700979 256.92079 
L 688.484747 240.797284 
L 689.268515 229.523302 
L 690.052282 221.92656 
L 690.83605 217.536374 
L 691.619818 211.851755 
L 692.403586 212.667297 
L 693.187354 215.611141 
L 693.971122 223.767682 
L 694.75489 222.933744 
L 695.538658 223.442843 
L 696.322426 229.53763 
L 697.106193 226.830656 
L 697.889961 235.071811 
L 698.673729 236.825989 
L 699.457497 233.770559 
L 700.241265 230.084742 
L 701.025033 241.909685 
L 701.808801 250.463106 
L 702.592569 267.971786 
L 703.376337 281.740269 
L 704.160104 282.460657 
L 704.943872 279.570983 
L 705.72764 268.351493 
L 706.511408 252.314356 
L 707.295176 230.244227 
L 708.862712 199.166414 
L 709.64648 193.075903 
L 710.430248 190.652152 
L 711.214015 192.85771 
L 711.997783 192.7096 
L 712.781551 194.965128 
L 713.565319 197.742703 
L 714.349087 198.612988 
L 715.132855 202.895723 
L 715.916623 208.934103 
L 716.700391 213.105143 
L 717.484159 215.214524 
L 718.267926 220.758713 
L 719.051694 227.656831 
L 719.835462 229.747621 
L 720.61923 234.469775 
L 721.402998 243.155518 
L 722.186766 248.638117 
L 722.970534 242.574435 
L 723.754302 234.163634 
L 724.53807 213.511787 
L 726.105605 185.25866 
L 727.673141 165.615929 
L 729.240677 157.340096 
L 730.024445 161.572335 
L 731.591981 182.555089 
L 732.375749 196.332999 
L 733.159516 206.667084 
L 734.727052 234.770253 
L 735.51082 251.258743 
L 737.078356 271.807761 
L 737.862124 286.078964 
L 738.645892 286.448741 
L 739.42966 289.658545 
L 740.213427 289.560427 
L 740.997195 284.840488 
L 741.780963 277.936594 
L 744.916035 227.514242 
L 746.483571 212.654924 
L 748.051106 162.987056 
L 748.834874 144.414794 
L 749.618642 144.671456 
L 750.40241 156.133474 
L 751.969946 185.614447 
L 752.753714 197.034809 
L 754.32125 263.601262 
L 755.105017 284.313522 
L 755.888785 294.408524 
L 756.672553 297.651551 
L 757.456321 297.641053 
L 758.240089 299.615463 
L 759.023857 300.751509 
L 759.807625 295.717014 
L 760.591393 287.938162 
L 762.158928 270.174197 
L 763.726464 243.179281 
L 765.294 221.629051 
L 766.861536 213.025742 
L 767.645304 217.158971 
L 768.429072 218.978115 
L 769.212839 226.597833 
L 769.996607 230.876328 
L 771.564143 242.222275 
L 772.347911 245.792591 
L 773.131679 250.929426 
L 773.915447 262.527358 
L 774.699215 271.961572 
L 776.26675 320.587727 
L 777.050518 340.383421 
L 777.834286 363.439295 
L 778.618054 370.600174 
L 779.401822 380.160425 
L 780.18559 381.702379 
L 781.753126 336.886606 
L 783.320662 295.004839 
L 784.104429 290.055148 
L 784.888197 263.26981 
L 785.671965 253.903194 
L 786.455733 234.312662 
L 787.239501 232.649912 
L 788.807037 270.062567 
L 789.590805 265.380923 
L 790.374573 258.924401 
L 791.15834 259.739827 
L 792.725876 264.653461 
L 793.509644 262.688035 
L 794.293412 270.644676 
L 795.07718 259.381124 
L 795.860948 257.418604 
L 796.644716 262.049719 
L 797.428484 273.033264 
L 798.212251 278.005906 
L 798.996019 279.45094 
L 799.779787 278.741528 
L 800.563555 265.333314 
L 802.131091 269.821926 
L 802.914859 274.67899 
L 803.698627 273.878145 
L 804.482395 274.025941 
L 805.266162 276.281727 
L 806.04993 266.920064 
L 806.833698 255.626164 
L 809.185002 226.823675 
L 809.96877 226.437666 
L 810.752538 226.717394 
L 811.536306 227.851022 
L 813.103841 238.743855 
L 814.671377 256.01057 
L 815.455145 269.30319 
L 816.238913 286.874953 
L 818.590217 349.039701 
L 819.373985 346.080055 
L 820.157752 334.005056 
L 820.94152 325.000301 
L 821.725288 317.333011 
L 822.509056 306.864746 
L 823.292824 303.476258 
L 824.076592 289.523724 
L 824.86036 289.702986 
L 825.644128 279.277769 
L 826.427896 265.409146 
L 827.211663 247.541159 
L 827.995431 226.49224 
L 828.779199 218.556342 
L 829.562967 220.306661 
L 830.346735 240.26074 
L 831.130503 247.730095 
L 832.698039 272.433354 
L 833.481807 272.17475 
L 834.265574 264.676752 
L 835.049342 254.431212 
L 835.83311 267.49974 
L 836.616878 269.452967 
L 837.400646 262.870817 
L 839.75195 145.347854 
L 841.319485 95.280962 
L 842.103253 95.426114 
L 842.887021 102.264491 
L 843.670789 116.703697 
L 845.238325 170.227294 
L 846.022093 188.949254 
L 846.805861 220.031459 
L 847.589629 244.387406 
L 848.373397 253.468786 
L 849.157164 260.197291 
L 849.940932 262.671676 
L 850.7247 272.063722 
L 851.508468 277.11937 
L 852.292236 285.008199 
L 853.076004 288.014981 
L 853.859772 284.741583 
L 854.64354 279.68132 
L 855.427308 269.110145 
L 856.211075 254.488247 
L 857.778611 218.594059 
L 858.562379 207.243734 
L 859.346147 207.283559 
L 860.129915 212.689551 
L 860.913683 228.024526 
L 861.697451 249.512 
L 862.481219 274.342589 
L 863.264986 292.104136 
L 864.048754 293.428011 
L 864.832522 289.781101 
L 865.61629 285.057686 
L 867.183826 264.76804 
L 867.967594 259.795703 
L 868.751362 262.101052 
L 869.53513 264.795174 
L 870.318897 269.309596 
L 871.102665 270.316195 
L 871.886433 264.828489 
L 872.670201 268.95702 
L 873.453969 251.671249 
L 874.237737 237.653387 
L 875.021505 228.810321 
L 875.805273 214.691341 
L 876.589041 197.214227 
L 878.156576 171.042048 
L 878.940344 167.256341 
L 879.724112 170.842481 
L 880.50788 177.019189 
L 881.291648 188.137034 
L 882.075416 202.508554 
L 882.859184 212.627636 
L 884.42672 236.309339 
L 885.210487 240.980156 
L 885.994255 244.504283 
L 886.778023 249.959884 
L 887.561791 257.893473 
L 888.345559 264.251873 
L 889.129327 271.913191 
L 889.913095 297.180374 
L 892.264398 355.601858 
L 893.048166 356.815817 
L 893.831934 338.7583 
L 894.615702 316.297741 
L 895.39947 286.931137 
L 896.183238 263.200555 
L 896.967006 244.965576 
L 897.750774 231.871129 
L 899.318309 210.53296 
L 900.885845 235.882808 
L 901.669613 234.950863 
L 902.453381 224.155038 
L 903.237149 218.168852 
L 904.020917 222.602775 
L 904.804685 224.586966 
L 905.588453 249.669154 
L 906.372221 258.780584 
L 907.155988 261.559351 
L 907.939756 268.357859 
L 908.723524 267.837363 
L 909.507292 271.737759 
L 910.29106 268.263715 
L 911.074828 266.420528 
L 911.858596 265.263265 
L 912.642364 260.895637 
L 914.993667 234.825799 
L 915.777435 229.181057 
L 916.561203 232.451454 
L 917.344971 233.162299 
L 918.128739 232.713568 
L 918.912507 221.229707 
L 919.696275 216.163399 
L 920.480043 217.772623 
L 921.26381 223.292333 
L 922.047578 227.456602 
L 922.831346 236.91485 
L 923.615114 244.983565 
L 924.398882 249.365449 
L 925.18265 250.556214 
L 926.750186 265.681598 
L 927.533954 265.646263 
L 928.317721 272.580383 
L 929.885257 283.147073 
L 930.669025 287.772685 
L 931.452793 283.870156 
L 932.236561 272.444161 
L 933.804097 237.745543 
L 934.587865 231.078764 
L 935.371632 225.41966 
L 936.1554 222.522197 
L 937.722936 236.469665 
L 938.506704 246.354113 
L 939.290472 249.001595 
L 940.07424 249.952653 
L 940.858008 245.179152 
L 941.641776 243.958904 
L 942.425544 244.936263 
L 943.209311 244.095209 
L 943.993079 245.028451 
L 944.776847 243.121246 
L 945.560615 247.917003 
L 946.344383 254.054443 
L 947.911919 261.145888 
L 948.695687 262.373213 
L 950.263222 230.342395 
L 951.04699 201.482172 
L 951.830758 187.403216 
L 952.614526 168.945685 
L 953.398294 165.982073 
L 954.182062 177.132209 
L 954.96583 193.973436 
L 955.749598 205.378634 
L 956.533366 221.956863 
L 957.317133 235.261865 
L 958.100901 232.51722 
L 959.668437 196.756501 
L 960.452205 191.862451 
L 961.235973 198.595677 
L 962.803509 234.129229 
L 963.587277 239.804039 
L 964.371044 242.253285 
L 965.154812 240.860057 
L 965.93858 247.647431 
L 966.722348 248.654507 
L 967.506116 250.782718 
L 968.289884 241.157836 
L 969.073652 233.861584 
L 969.85742 231.82123 
L 970.641188 227.694426 
L 971.424956 226.782326 
L 972.208723 218.830566 
L 972.992491 216.794212 
L 973.776259 217.378135 
L 974.560027 214.601927 
L 975.343795 214.248063 
L 976.127563 201.819143 
L 976.911331 183.937129 
L 978.478867 173.605528 
L 979.262634 178.785034 
L 981.613938 218.489253 
L 982.397706 231.709382 
L 983.965242 263.136122 
L 984.74901 269.512633 
L 985.532778 269.317316 
L 987.100313 240.724665 
L 987.884081 223.475786 
L 988.667849 209.645123 
L 989.451617 191.774304 
L 990.235385 178.738422 
L 991.019153 168.466682 
L 991.802921 161.186909 
L 992.586689 157.825976 
L 993.370456 159.491141 
L 994.154224 168.276811 
L 994.937992 180.383808 
L 995.72176 189.769973 
L 996.505528 193.800853 
L 997.289296 191.27957 
L 998.073064 188.229223 
L 998.856832 188.83453 
L 999.6406 191.252851 
L 1000.424368 198.336206 
L 1001.991903 217.763879 
L 1002.775671 231.696403 
L 1003.559439 243.388665 
L 1004.343207 236.932956 
L 1005.126975 224.434288 
L 1005.910743 206.455212 
L 1006.694511 185.341159 
L 1007.478279 145.96472 
L 1008.262046 142.485846 
L 1009.045814 136.360199 
L 1009.829582 135.689476 
L 1010.61335 129.486857 
L 1011.397118 138.774778 
L 1013.748422 179.047136 
L 1014.53219 187.678676 
L 1015.315957 194.438058 
L 1016.099725 182.35097 
L 1016.883493 177.918782 
L 1017.667261 179.000531 
L 1018.451029 177.739272 
L 1020.018565 141.378246 
L 1020.802333 111.133713 
L 1023.153636 45.629091 
L 1023.153636 45.629091 
" clip-path="url(#p10004b79ef)" style="fill: none; stroke: #008000; stroke-width: 1.5; stroke-linecap: square"/>
   </g>
   <g id="line2d_24">
    <path d="M 56.18 198.227979 
L 1069.2 198.227979 
" clip-path="url(#p10004b79ef)" style="fill: none; stroke-dasharray: 3.7,1.6; stroke-dashoffset: 0; stroke: #000000"/>
   </g>
   <g id="patch_5">
    <path d="M 56.18 462.04 
L 56.18 25.8 
" style="fill: none; stroke: #000000; stroke-width: 0.8; stroke-linejoin: miter; stroke-linecap: square"/>
   </g>
   <g id="patch_6">
    <path d="M 1069.2 462.04 
L 1069.2 25.8 
" style="fill: none; stroke: #000000; stroke-width: 0.8; stroke-linejoin: miter; stroke-linecap: square"/>
   </g>
   <g id="patch_7">
    <path d="M 56.18 462.04 
L 1069.2 462.04 
" style="fill: none; stroke: #000000; stroke-width: 0.8; stroke-linejoin: miter; stroke-linecap: square"/>
   </g>
   <g id="patch_8">
    <path d="M 56.18 25.8 
L 1069.2 25.8 
" style="fill: none; stroke: #000000; stroke-width: 0.8; stroke-linejoin: miter; stroke-linecap: square"/>
   </g>
   <g id="text_14">
    <!-- CO Análisis de Residuales (Real - Predicho) -->
    <g transform="translate(434.276875 19.8) scale(0.12 -0.12)">
     <defs>
      <path id="DejaVuSans-41" d="M 2188 4044 
L 1331 1722 
L 3047 1722 
L 2188 4044 
z
M 1831 4666 
L 2547 4666 
L 4325 0 
L 3669 0 
L 3244 1197 
L 1141 1197 
L 716 0 
L 50 0 
L 1831 4666 
z
" transform="scale(0.015625)"/>
      <path id="DejaVuSans-6e" d="M 3513 2113 
L 3513 0 
L 2938 0 
L 2938 2094 
Q 2938 2591 2744 2837 
Q 2550 3084 2163 3084 
Q 1697 3084 1428 2787 
Q 1159 2491 1159 1978 
L 1159 0 
L 581 0 
L 581 3500 
L 1159 3500 
L 1159 2956 
Q 1366 3272 1645 3428 
Q 1925 3584 2291 3584 
Q 2894 3584 3203 3211 
Q 3513 2838 3513 2113 
z
" transform="scale(0.015625)"/>
      <path id="DejaVuSans-e1" d="M 2194 1759 
Q 1497 1759 1228 1600 
Q 959 1441 959 1056 
Q 959 750 1161 570 
Q 1363 391 1709 391 
Q 2188 391 2477 730 
Q 2766 1069 2766 1631 
L 2766 1759 
L 2194 1759 
z
M 3341 1997 
L 3341 0 
L 2766 0 
L 2766 531 
Q 2569 213 2275 61 
Q 1981 -91 1556 -91 
Q 1019 -91 701 211 
Q 384 513 384 1019 
Q 384 1609 779 1909 
Q 1175 2209 1959 2209 
L 2766 2209 
L 2766 2266 
Q 2766 2663 2505 2880 
Q 2244 3097 1772 3097 
Q 1472 3097 1187 3025 
Q 903 2953 641 2809 
L 641 3341 
Q 956 3463 1253 3523 
Q 1550 3584 1831 3584 
Q 2591 3584 2966 3190 
Q 3341 2797 3341 1997 
z
M 2291 5119 
L 2913 5119 
L 1894 3944 
L 1416 3944 
L 2291 5119 
z
" transform="scale(0.015625)"/>
      <path id="DejaVuSans-28" d="M 1984 4856 
Q 1566 4138 1362 3434 
Q 1159 2731 1159 2009 
Q 1159 1288 1364 580 
Q 1569 -128 1984 -844 
L 1484 -844 
Q 1016 -109 783 600 
Q 550 1309 550 2009 
Q 550 2706 781 3412 
Q 1013 4119 1484 4856 
L 1984 4856 
z
" transform="scale(0.015625)"/>
      <path id="DejaVuSans-50" d="M 1259 4147 
L 1259 2394 
L 2053 2394 
Q 2494 2394 2734 2622 
Q 2975 2850 2975 3272 
Q 2975 3691 2734 3919 
Q 2494 4147 2053 4147 
L 1259 4147 
z
M 628 4666 
L 2053 4666 
Q 2838 4666 3239 4311 
Q 3641 3956 3641 3272 
Q 3641 2581 3239 2228 
Q 2838 1875 2053 1875 
L 1259 1875 
L 1259 0 
L 628 0 
L 628 4666 
z
" transform="scale(0.015625)"/>
      <path id="DejaVuSans-72" d="M 2631 2963 
Q 2534 3019 2420 3045 
Q 2306 3072 2169 3072 
Q 1681 3072 1420 2755 
Q 1159 2438 1159 1844 
L 1159 0 
L 581 0 
L 581 3500 
L 1159 3500 
L 1159 2956 
Q 1341 3275 1631 3429 
Q 1922 3584 2338 3584 
Q 2397 3584 2469 3576 
Q 2541 3569 2628 3553 
L 2631 2963 
z
" transform="scale(0.015625)"/>
      <path id="DejaVuSans-6f" d="M 1959 3097 
Q 1497 3097 1228 2736 
Q 959 2375 959 1747 
Q 959 1119 1226 758 
Q 1494 397 1959 397 
Q 2419 397 2687 759 
Q 2956 1122 2956 1747 
Q 2956 2369 2687 2733 
Q 2419 3097 1959 3097 
z
M 1959 3584 
Q 2709 3584 3137 3096 
Q 3566 2609 3566 1747 
Q 3566 888 3137 398 
Q 2709 -91 1959 -91 
Q 1206 -91 779 398 
Q 353 888 353 1747 
Q 353 2609 779 3096 
Q 1206 3584 1959 3584 
z
" transform="scale(0.015625)"/>
      <path id="DejaVuSans-29" d="M 513 4856 
L 1013 4856 
Q 1481 4119 1714 3412 
Q 1947 2706 1947 2009 
Q 1947 1309 1714 600 
Q 1481 -109 1013 -844 
L 513 -844 
Q 928 -128 1133 580 
Q 1338 1288 1338 2009 
Q 1338 2731 1133 3434 
Q 928 4138 513 4856 
z
" transform="scale(0.015625)"/>
     </defs>
     <use xlink:href="#DejaVuSans-43"/>
     <use xlink:href="#DejaVuSans-4f" transform="translate(69.824219 0)"/>
     <use xlink:href="#DejaVuSans-20" transform="translate(148.535156 0)"/>
     <use xlink:href="#DejaVuSans-41" transform="translate(180.322266 0)"/>
     <use xlink:href="#DejaVuSans-6e" transform="translate(248.730469 0)"/>
     <use xlink:href="#DejaVuSans-e1" transform="translate(312.109375 0)"/>
     <use xlink:href="#DejaVuSans-6c" transform="translate(373.388672 0)"/>
     <use xlink:href="#DejaVuSans-69" transform="translate(401.171875 0)"/>
     <use xlink:href="#DejaVuSans-73" transform="translate(428.955078 0)"/>
     <use xlink:href="#DejaVuSans-69" transform="translate(481.054688 0)"/>
     <use xlink:href="#DejaVuSans-73" transform="translate(508.837891 0)"/>
     <use xlink:href="#DejaVuSans-20" transform="translate(560.9375 0)"/>
     <use xlink:href="#DejaVuSans-64" transform="translate(592.724609 0)"/>
     <use xlink:href="#DejaVuSans-65" transform="translate(656.201172 0)"/>
     <use xlink:href="#DejaVuSans-20" transform="translate(717.724609 0)"/>
     <use xlink:href="#DejaVuSans-52" transform="translate(749.511719 0)"/>
     <use xlink:href="#DejaVuSans-65" transform="translate(814.494141 0)"/>
     <use xlink:href="#DejaVuSans-73" transform="translate(876.017578 0)"/>
     <use xlink:href="#DejaVuSans-69" transform="translate(928.117188 0)"/>
     <use xlink:href="#DejaVuSans-64" transform="translate(955.900391 0)"/>
     <use xlink:href="#DejaVuSans-75" transform="translate(1019.376953 0)"/>
     <use xlink:href="#DejaVuSans-61" transform="translate(1082.755859 0)"/>
     <use xlink:href="#DejaVuSans-6c" transform="translate(1144.035156 0)"/>
     <use xlink:href="#DejaVuSans-65" transform="translate(1171.818359 0)"/>
     <use xlink:href="#DejaVuSans-73" transform="translate(1233.341797 0)"/>
     <use xlink:href="#DejaVuSans-20" transform="translate(1285.441406 0)"/>
     <use xlink:href="#DejaVuSans-28" transform="translate(1317.228516 0)"/>
     <use xlink:href="#DejaVuSans-52" transform="translate(1356.242188 0)"/>
     <use xlink:href="#DejaVuSans-65" transform="translate(1421.224609 0)"/>
     <use xlink:href="#DejaVuSans-61" transform="translate(1482.748047 0)"/>
     <use xlink:href="#DejaVuSans-6c" transform="translate(1544.027344 0)"/>
     <use xlink:href="#DejaVuSans-20" transform="translate(1571.810547 0)"/>
     <use xlink:href="#DejaVuSans-2d" transform="translate(1603.597656 0)"/>
     <use xlink:href="#DejaVuSans-20" transform="translate(1639.681641 0)"/>
     <use xlink:href="#DejaVuSans-50" transform="translate(1671.46875 0)"/>
     <use xlink:href="#DejaVuSans-72" transform="translate(1730.021484 0)"/>
     <use xlink:href="#DejaVuSans-65" transform="translate(1768.884766 0)"/>
     <use xlink:href="#DejaVuSans-64" transform="translate(1830.408203 0)"/>
     <use xlink:href="#DejaVuSans-69" transform="translate(1893.884766 0)"/>
     <use xlink:href="#DejaVuSans-63" transform="translate(1921.667969 0)"/>
     <use xlink:href="#DejaVuSans-68" transform="translate(1976.648438 0)"/>
     <use xlink:href="#DejaVuSans-6f" transform="translate(2040.027344 0)"/>
     <use xlink:href="#DejaVuSans-29" transform="translate(2101.208984 0)"/>
    </g>
   </g>
   <g id="legend_1">
    <g id="patch_9">
     <path d="M 63.18 77.834375 
L 222.889375 77.834375 
Q 224.889375 77.834375 224.889375 75.834375 
L 224.889375 32.8 
Q 224.889375 30.8 222.889375 30.8 
L 63.18 30.8 
Q 61.18 30.8 61.18 32.8 
L 61.18 75.834375 
Q 61.18 77.834375 63.18 77.834375 
z
" style="fill: #ffffff; opacity: 0.8; stroke: #cccccc; stroke-linejoin: miter"/>
    </g>
    <g id="line2d_25">
     <path d="M 65.18 38.898437 
L 75.18 38.898437 
L 85.18 38.898437 
" style="fill: none; stroke: #008000; stroke-width: 1.5; stroke-linecap: square"/>
    </g>
    <g id="text_15">
     <!-- Residual (Real - Predicho) -->
     <g transform="translate(93.18 42.398437) scale(0.1 -0.1)">
      <use xlink:href="#DejaVuSans-52"/>
      <use xlink:href="#DejaVuSans-65" transform="translate(64.982422 0)"/>
      <use xlink:href="#DejaVuSans-73" transform="translate(126.505859 0)"/>
      <use xlink:href="#DejaVuSans-69" transform="translate(178.605469 0)"/>
      <use xlink:href="#DejaVuSans-64" transform="translate(206.388672 0)"/>
      <use xlink:href="#DejaVuSans-75" transform="translate(269.865234 0)"/>
      <use xlink:href="#DejaVuSans-61" transform="translate(333.244141 0)"/>
      <use xlink:href="#DejaVuSans-6c" transform="translate(394.523438 0)"/>
      <use xlink:href="#DejaVuSans-20" transform="translate(422.306641 0)"/>
      <use xlink:href="#DejaVuSans-28" transform="translate(454.09375 0)"/>
      <use xlink:href="#DejaVuSans-52" transform="translate(493.107422 0)"/>
      <use xlink:href="#DejaVuSans-65" transform="translate(558.089844 0)"/>
      <use xlink:href="#DejaVuSans-61" transform="translate(619.613281 0)"/>
      <use xlink:href="#DejaVuSans-6c" transform="translate(680.892578 0)"/>
      <use xlink:href="#DejaVuSans-20" transform="translate(708.675781 0)"/>
      <use xlink:href="#DejaVuSans-2d" transform="translate(740.462891 0)"/>
      <use xlink:href="#DejaVuSans-20" transform="translate(776.546875 0)"/>
      <use xlink:href="#DejaVuSans-50" transform="translate(808.333984 0)"/>
      <use xlink:href="#DejaVuSans-72" transform="translate(866.886719 0)"/>
      <use xlink:href="#DejaVuSans-65" transform="translate(905.75 0)"/>
      <use xlink:href="#DejaVuSans-64" transform="translate(967.273438 0)"/>
      <use xlink:href="#DejaVuSans-69" transform="translate(1030.75 0)"/>
      <use xlink:href="#DejaVuSans-63" transform="translate(1058.533203 0)"/>
      <use xlink:href="#DejaVuSans-68" transform="translate(1113.513672 0)"/>
      <use xlink:href="#DejaVuSans-6f" transform="translate(1176.892578 0)"/>
      <use xlink:href="#DejaVuSans-29" transform="translate(1238.074219 0)"/>
     </g>
    </g>
    <g id="patch_10">
     <path d="M 65.18 57.076562 
L 85.18 57.076562 
L 85.18 50.076562 
L 65.18 50.076562 
z
" style="fill: #ffa500; opacity: 0.3; stroke: #ffa500; stroke-linejoin: miter"/>
    </g>
    <g id="text_16">
     <!-- Período 1 (Estricto) -->
     <g transform="translate(93.18 57.076562) scale(0.1 -0.1)">
      <defs>
       <path id="DejaVuSans-ed" d="M 1325 5119 
L 1947 5119 
L 928 3944 
L 450 3944 
L 1325 5119 
z
M 603 3500 
L 1178 3500 
L 1178 0 
L 603 0 
L 603 3500 
z
M 891 3584 
L 891 3584 
z
" transform="scale(0.015625)"/>
       <path id="DejaVuSans-45" d="M 628 4666 
L 3578 4666 
L 3578 4134 
L 1259 4134 
L 1259 2753 
L 3481 2753 
L 3481 2222 
L 1259 2222 
L 1259 531 
L 3634 531 
L 3634 0 
L 628 0 
L 628 4666 
z
" transform="scale(0.015625)"/>
       <path id="DejaVuSans-74" d="M 1172 4494 
L 1172 3500 
L 2356 3500 
L 2356 3053 
L 1172 3053 
L 1172 1153 
Q 1172 725 1289 603 
Q 1406 481 1766 481 
L 2356 481 
L 2356 0 
L 1766 0 
Q 1100 0 847 248 
Q 594 497 594 1153 
L 594 3053 
L 172 3053 
L 172 3500 
L 594 3500 
L 594 4494 
L 1172 4494 
z
" transform="scale(0.015625)"/>
      </defs>
      <use xlink:href="#DejaVuSans-50"/>
      <use xlink:href="#DejaVuSans-65" transform="translate(56.677734 0)"/>
      <use xlink:href="#DejaVuSans-72" transform="translate(118.201172 0)"/>
      <use xlink:href="#DejaVuSans-ed" transform="translate(159.314453 0)"/>
      <use xlink:href="#DejaVuSans-6f" transform="translate(187.097656 0)"/>
      <use xlink:href="#DejaVuSans-64" transform="translate(248.279297 0)"/>
      <use xlink:href="#DejaVuSans-6f" transform="translate(311.755859 0)"/>
      <use xlink:href="#DejaVuSans-20" transform="translate(372.9375 0)"/>
      <use xlink:href="#DejaVuSans-31" transform="translate(404.724609 0)"/>
      <use xlink:href="#DejaVuSans-20" transform="translate(468.347656 0)"/>
      <use xlink:href="#DejaVuSans-28" transform="translate(500.134766 0)"/>
      <use xlink:href="#DejaVuSans-45" transform="translate(539.148438 0)"/>
      <use xlink:href="#DejaVuSans-73" transform="translate(602.332031 0)"/>
      <use xlink:href="#DejaVuSans-74" transform="translate(654.431641 0)"/>
      <use xlink:href="#DejaVuSans-72" transform="translate(693.640625 0)"/>
      <use xlink:href="#DejaVuSans-69" transform="translate(734.753906 0)"/>
      <use xlink:href="#DejaVuSans-63" transform="translate(762.537109 0)"/>
      <use xlink:href="#DejaVuSans-74" transform="translate(817.517578 0)"/>
      <use xlink:href="#DejaVuSans-6f" transform="translate(856.726562 0)"/>
      <use xlink:href="#DejaVuSans-29" transform="translate(917.908203 0)"/>
     </g>
    </g>
    <g id="patch_11">
     <path d="M 65.18 71.754687 
L 85.18 71.754687 
L 85.18 64.754687 
L 65.18 64.754687 
z
" style="fill: #ffff00; opacity: 0.3; stroke: #ffff00; stroke-linejoin: miter"/>
    </g>
    <g id="text_17">
     <!-- Período 2 (Extendido) -->
     <g transform="translate(93.18 71.754687) scale(0.1 -0.1)">
      <defs>
       <path id="DejaVuSans-78" d="M 3513 3500 
L 2247 1797 
L 3578 0 
L 2900 0 
L 1881 1375 
L 863 0 
L 184 0 
L 1544 1831 
L 300 3500 
L 978 3500 
L 1906 2253 
L 2834 3500 
L 3513 3500 
z
" transform="scale(0.015625)"/>
      </defs>
      <use xlink:href="#DejaVuSans-50"/>
      <use xlink:href="#DejaVuSans-65" transform="translate(56.677734 0)"/>
      <use xlink:href="#DejaVuSans-72" transform="translate(118.201172 0)"/>
      <use xlink:href="#DejaVuSans-ed" transform="translate(159.314453 0)"/>
      <use xlink:href="#DejaVuSans-6f" transform="translate(187.097656 0)"/>
      <use xlink:href="#DejaVuSans-64" transform="translate(248.279297 0)"/>
      <use xlink:href="#DejaVuSans-6f" transform="translate(311.755859 0)"/>
      <use xlink:href="#DejaVuSans-20" transform="translate(372.9375 0)"/>
      <use xlink:href="#DejaVuSans-32" transform="translate(404.724609 0)"/>
      <use xlink:href="#DejaVuSans-20" transform="translate(468.347656 0)"/>
      <use xlink:href="#DejaVuSans-28" transform="translate(500.134766 0)"/>
      <use xlink:href="#DejaVuSans-45" transform="translate(539.148438 0)"/>
      <use xlink:href="#DejaVuSans-78" transform="translate(602.332031 0)"/>
      <use xlink:href="#DejaVuSans-74" transform="translate(661.511719 0)"/>
      <use xlink:href="#DejaVuSans-65" transform="translate(700.720703 0)"/>
      <use xlink:href="#DejaVuSans-6e" transform="translate(762.244141 0)"/>
      <use xlink:href="#DejaVuSans-64" transform="translate(825.623047 0)"/>
      <use xlink:href="#DejaVuSans-69" transform="translate(889.099609 0)"/>
      <use xlink:href="#DejaVuSans-64" transform="translate(916.882812 0)"/>
      <use xlink:href="#DejaVuSans-6f" transform="translate(980.359375 0)"/>
      <use xlink:href="#DejaVuSans-29" transform="translate(1041.541016 0)"/>
     </g>
    </g>
   </g>
  </g>
 </g>
 <defs>
  <clipPath id="p10004b79ef">
   <rect x="56.18" y="25.8" width="1013.02" height="436.24"/>
  </clipPath>
 </defs>
</svg>
