<?xml version="1.0" encoding="utf-8" standalone="no"?>
<!DOCTYPE svg PUBLIC "-//W3C//DTD SVG 1.1//EN"
  "http://www.w3.org/Graphics/SVG/1.1/DTD/svg11.dtd">
<svg xmlns:xlink="http://www.w3.org/1999/xlink" width="1080pt" height="504pt" viewBox="0 0 1080 504" xmlns="http://www.w3.org/2000/svg" version="1.1">
 <metadata>
  <rdf:RDF xmlns:dc="http://purl.org/dc/elements/1.1/" xmlns:cc="http://creativecommons.org/ns#" xmlns:rdf="http://www.w3.org/1999/02/22-rdf-syntax-ns#">
   <cc:Work>
    <dc:type rdf:resource="http://purl.org/dc/dcmitype/StillImage"/>
    <dc:date>2025-11-12T07:27:57.119418</dc:date>
    <dc:format>image/svg+xml</dc:format>
    <dc:creator>
     <cc:Agent>
      <dc:title>Matplotlib v3.10.7, https://matplotlib.org/</dc:title>
     </cc:Agent>
    </dc:creator>
   </cc:Work>
  </rdf:RDF>
 </metadata>
 <defs>
  <style type="text/css">*{stroke-linejoin: round; stroke-linecap: butt}</style>
 </defs>
 <g id="figure_1">
  <g id="patch_1">
   <path d="M 0 504 
L 1080 504 
L 1080 0 
L 0 0 
z
" style="fill: #ffffff"/>
  </g>
  <g id="axes_1">
   <g id="patch_2">
    <path d="M 53.03 462.04 
L 1069.2 462.04 
L 1069.2 25.8 
L 53.03 25.8 
z
" style="fill: #ffffff"/>
   </g>
   <g id="patch_3">
    <path d="M 99.219545 462.04 
L 494.680675 462.04 
L 494.680675 25.8 
L 99.219545 25.8 
z
" clip-path="url(#pc1542c413c)" style="fill: #ffa500; opacity: 0.3; stroke: #ffa500; stroke-linejoin: miter"/>
   </g>
   <g id="patch_4">
    <path d="M 494.680675 462.04 
L 1023.010455 462.04 
L 1023.010455 25.8 
L 494.680675 25.8 
z
" clip-path="url(#pc1542c413c)" style="fill: #ffff00; opacity: 0.3; stroke: #ffff00; stroke-linejoin: miter"/>
   </g>
   <g id="matplotlib.axis_1">
    <g id="xtick_1">
     <g id="line2d_1">
      <path d="M 80.350625 462.04 
L 80.350625 25.8 
" clip-path="url(#pc1542c413c)" style="fill: none; stroke-dasharray: 2.96,1.28; stroke-dashoffset: 0; stroke: #b0b0b0; stroke-opacity: 0.5; stroke-width: 0.8"/>
     </g>
     <g id="line2d_2">
      <defs>
       <path id="mfb35844ed1" d="M 0 0 
L 0 3.5 
" style="stroke: #000000; stroke-width: 0.8"/>
      </defs>
      <g>
       <use xlink:href="#mfb35844ed1" x="80.350625" y="462.04" style="stroke: #000000; stroke-width: 0.8"/>
      </g>
     </g>
     <g id="text_1">
      <!-- 2020-03-22 -->
      <g transform="translate(51.292812 476.638438) scale(0.1 -0.1)">
       <defs>
        <path id="DejaVuSans-32" d="M 1228 531 
L 3431 531 
L 3431 0 
L 469 0 
L 469 531 
Q 828 903 1448 1529 
Q 2069 2156 2228 2338 
Q 2531 2678 2651 2914 
Q 2772 3150 2772 3378 
Q 2772 3750 2511 3984 
Q 2250 4219 1831 4219 
Q 1534 4219 1204 4116 
Q 875 4013 500 3803 
L 500 4441 
Q 881 4594 1212 4672 
Q 1544 4750 1819 4750 
Q 2544 4750 2975 4387 
Q 3406 4025 3406 3419 
Q 3406 3131 3298 2873 
Q 3191 2616 2906 2266 
Q 2828 2175 2409 1742 
Q 1991 1309 1228 531 
z
" transform="scale(0.015625)"/>
        <path id="DejaVuSans-30" d="M 2034 4250 
Q 1547 4250 1301 3770 
Q 1056 3291 1056 2328 
Q 1056 1369 1301 889 
Q 1547 409 2034 409 
Q 2525 409 2770 889 
Q 3016 1369 3016 2328 
Q 3016 3291 2770 3770 
Q 2525 4250 2034 4250 
z
M 2034 4750 
Q 2819 4750 3233 4129 
Q 3647 3509 3647 2328 
Q 3647 1150 3233 529 
Q 2819 -91 2034 -91 
Q 1250 -91 836 529 
Q 422 1150 422 2328 
Q 422 3509 836 4129 
Q 1250 4750 2034 4750 
z
" transform="scale(0.015625)"/>
        <path id="DejaVuSans-2d" d="M 313 2009 
L 1997 2009 
L 1997 1497 
L 313 1497 
L 313 2009 
z
" transform="scale(0.015625)"/>
        <path id="DejaVuSans-33" d="M 2597 2516 
Q 3050 2419 3304 2112 
Q 3559 1806 3559 1356 
Q 3559 666 3084 287 
Q 2609 -91 1734 -91 
Q 1441 -91 1130 -33 
Q 819 25 488 141 
L 488 750 
Q 750 597 1062 519 
Q 1375 441 1716 441 
Q 2309 441 2620 675 
Q 2931 909 2931 1356 
Q 2931 1769 2642 2001 
Q 2353 2234 1838 2234 
L 1294 2234 
L 1294 2753 
L 1863 2753 
Q 2328 2753 2575 2939 
Q 2822 3125 2822 3475 
Q 2822 3834 2567 4026 
Q 2313 4219 1838 4219 
Q 1578 4219 1281 4162 
Q 984 4106 628 3988 
L 628 4550 
Q 988 4650 1302 4700 
Q 1616 4750 1894 4750 
Q 2613 4750 3031 4423 
Q 3450 4097 3450 3541 
Q 3450 3153 3228 2886 
Q 3006 2619 2597 2516 
z
" transform="scale(0.015625)"/>
       </defs>
       <use xlink:href="#DejaVuSans-32"/>
       <use xlink:href="#DejaVuSans-30" transform="translate(63.623047 0)"/>
       <use xlink:href="#DejaVuSans-32" transform="translate(127.246094 0)"/>
       <use xlink:href="#DejaVuSans-30" transform="translate(190.869141 0)"/>
       <use xlink:href="#DejaVuSans-2d" transform="translate(254.492188 0)"/>
       <use xlink:href="#DejaVuSans-30" transform="translate(290.576172 0)"/>
       <use xlink:href="#DejaVuSans-33" transform="translate(354.199219 0)"/>
       <use xlink:href="#DejaVuSans-2d" transform="translate(417.822266 0)"/>
       <use xlink:href="#DejaVuSans-32" transform="translate(453.90625 0)"/>
       <use xlink:href="#DejaVuSans-32" transform="translate(517.529297 0)"/>
      </g>
     </g>
    </g>
    <g id="xtick_2">
     <g id="line2d_3">
      <path d="M 269.039832 462.04 
L 269.039832 25.8 
" clip-path="url(#pc1542c413c)" style="fill: none; stroke-dasharray: 2.96,1.28; stroke-dashoffset: 0; stroke: #b0b0b0; stroke-opacity: 0.5; stroke-width: 0.8"/>
     </g>
     <g id="line2d_4">
      <g>
       <use xlink:href="#mfb35844ed1" x="269.039832" y="462.04" style="stroke: #000000; stroke-width: 0.8"/>
      </g>
     </g>
     <g id="text_2">
      <!-- 2020-04-01 -->
      <g transform="translate(239.982019 476.638438) scale(0.1 -0.1)">
       <defs>
        <path id="DejaVuSans-34" d="M 2419 4116 
L 825 1625 
L 2419 1625 
L 2419 4116 
z
M 2253 4666 
L 3047 4666 
L 3047 1625 
L 3713 1625 
L 3713 1100 
L 3047 1100 
L 3047 0 
L 2419 0 
L 2419 1100 
L 313 1100 
L 313 1709 
L 2253 4666 
z
" transform="scale(0.015625)"/>
        <path id="DejaVuSans-31" d="M 794 531 
L 1825 531 
L 1825 4091 
L 703 3866 
L 703 4441 
L 1819 4666 
L 2450 4666 
L 2450 531 
L 3481 531 
L 3481 0 
L 794 0 
L 794 531 
z
" transform="scale(0.015625)"/>
       </defs>
       <use xlink:href="#DejaVuSans-32"/>
       <use xlink:href="#DejaVuSans-30" transform="translate(63.623047 0)"/>
       <use xlink:href="#DejaVuSans-32" transform="translate(127.246094 0)"/>
       <use xlink:href="#DejaVuSans-30" transform="translate(190.869141 0)"/>
       <use xlink:href="#DejaVuSans-2d" transform="translate(254.492188 0)"/>
       <use xlink:href="#DejaVuSans-30" transform="translate(290.576172 0)"/>
       <use xlink:href="#DejaVuSans-34" transform="translate(354.199219 0)"/>
       <use xlink:href="#DejaVuSans-2d" transform="translate(417.822266 0)"/>
       <use xlink:href="#DejaVuSans-30" transform="translate(453.90625 0)"/>
       <use xlink:href="#DejaVuSans-31" transform="translate(517.529297 0)"/>
      </g>
     </g>
    </g>
    <g id="xtick_3">
     <g id="line2d_5">
      <path d="M 401.122277 462.04 
L 401.122277 25.8 
" clip-path="url(#pc1542c413c)" style="fill: none; stroke-dasharray: 2.96,1.28; stroke-dashoffset: 0; stroke: #b0b0b0; stroke-opacity: 0.5; stroke-width: 0.8"/>
     </g>
     <g id="line2d_6">
      <g>
       <use xlink:href="#mfb35844ed1" x="401.122277" y="462.04" style="stroke: #000000; stroke-width: 0.8"/>
      </g>
     </g>
     <g id="text_3">
      <!-- 2020-04-08 -->
      <g transform="translate(372.064464 476.638438) scale(0.1 -0.1)">
       <defs>
        <path id="DejaVuSans-38" d="M 2034 2216 
Q 1584 2216 1326 1975 
Q 1069 1734 1069 1313 
Q 1069 891 1326 650 
Q 1584 409 2034 409 
Q 2484 409 2743 651 
Q 3003 894 3003 1313 
Q 3003 1734 2745 1975 
Q 2488 2216 2034 2216 
z
M 1403 2484 
Q 997 2584 770 2862 
Q 544 3141 544 3541 
Q 544 4100 942 4425 
Q 1341 4750 2034 4750 
Q 2731 4750 3128 4425 
Q 3525 4100 3525 3541 
Q 3525 3141 3298 2862 
Q 3072 2584 2669 2484 
Q 3125 2378 3379 2068 
Q 3634 1759 3634 1313 
Q 3634 634 3220 271 
Q 2806 -91 2034 -91 
Q 1263 -91 848 271 
Q 434 634 434 1313 
Q 434 1759 690 2068 
Q 947 2378 1403 2484 
z
M 1172 3481 
Q 1172 3119 1398 2916 
Q 1625 2713 2034 2713 
Q 2441 2713 2670 2916 
Q 2900 3119 2900 3481 
Q 2900 3844 2670 4047 
Q 2441 4250 2034 4250 
Q 1625 4250 1398 4047 
Q 1172 3844 1172 3481 
z
" transform="scale(0.015625)"/>
       </defs>
       <use xlink:href="#DejaVuSans-32"/>
       <use xlink:href="#DejaVuSans-30" transform="translate(63.623047 0)"/>
       <use xlink:href="#DejaVuSans-32" transform="translate(127.246094 0)"/>
       <use xlink:href="#DejaVuSans-30" transform="translate(190.869141 0)"/>
       <use xlink:href="#DejaVuSans-2d" transform="translate(254.492188 0)"/>
       <use xlink:href="#DejaVuSans-30" transform="translate(290.576172 0)"/>
       <use xlink:href="#DejaVuSans-34" transform="translate(354.199219 0)"/>
       <use xlink:href="#DejaVuSans-2d" transform="translate(417.822266 0)"/>
       <use xlink:href="#DejaVuSans-30" transform="translate(453.90625 0)"/>
       <use xlink:href="#DejaVuSans-38" transform="translate(517.529297 0)"/>
      </g>
     </g>
    </g>
    <g id="xtick_4">
     <g id="line2d_7">
      <path d="M 533.204721 462.04 
L 533.204721 25.8 
" clip-path="url(#pc1542c413c)" style="fill: none; stroke-dasharray: 2.96,1.28; stroke-dashoffset: 0; stroke: #b0b0b0; stroke-opacity: 0.5; stroke-width: 0.8"/>
     </g>
     <g id="line2d_8">
      <g>
       <use xlink:href="#mfb35844ed1" x="533.204721" y="462.04" style="stroke: #000000; stroke-width: 0.8"/>
      </g>
     </g>
     <g id="text_4">
      <!-- 2020-04-15 -->
      <g transform="translate(504.146909 476.638438) scale(0.1 -0.1)">
       <defs>
        <path id="DejaVuSans-35" d="M 691 4666 
L 3169 4666 
L 3169 4134 
L 1269 4134 
L 1269 2991 
Q 1406 3038 1543 3061 
Q 1681 3084 1819 3084 
Q 2600 3084 3056 2656 
Q 3513 2228 3513 1497 
Q 3513 744 3044 326 
Q 2575 -91 1722 -91 
Q 1428 -91 1123 -41 
Q 819 9 494 109 
L 494 744 
Q 775 591 1075 516 
Q 1375 441 1709 441 
Q 2250 441 2565 725 
Q 2881 1009 2881 1497 
Q 2881 1984 2565 2268 
Q 2250 2553 1709 2553 
Q 1456 2553 1204 2497 
Q 953 2441 691 2322 
L 691 4666 
z
" transform="scale(0.015625)"/>
       </defs>
       <use xlink:href="#DejaVuSans-32"/>
       <use xlink:href="#DejaVuSans-30" transform="translate(63.623047 0)"/>
       <use xlink:href="#DejaVuSans-32" transform="translate(127.246094 0)"/>
       <use xlink:href="#DejaVuSans-30" transform="translate(190.869141 0)"/>
       <use xlink:href="#DejaVuSans-2d" transform="translate(254.492188 0)"/>
       <use xlink:href="#DejaVuSans-30" transform="translate(290.576172 0)"/>
       <use xlink:href="#DejaVuSans-34" transform="translate(354.199219 0)"/>
       <use xlink:href="#DejaVuSans-2d" transform="translate(417.822266 0)"/>
       <use xlink:href="#DejaVuSans-31" transform="translate(453.90625 0)"/>
       <use xlink:href="#DejaVuSans-35" transform="translate(517.529297 0)"/>
      </g>
     </g>
    </g>
    <g id="xtick_5">
     <g id="line2d_9">
      <path d="M 665.287166 462.04 
L 665.287166 25.8 
" clip-path="url(#pc1542c413c)" style="fill: none; stroke-dasharray: 2.96,1.28; stroke-dashoffset: 0; stroke: #b0b0b0; stroke-opacity: 0.5; stroke-width: 0.8"/>
     </g>
     <g id="line2d_10">
      <g>
       <use xlink:href="#mfb35844ed1" x="665.287166" y="462.04" style="stroke: #000000; stroke-width: 0.8"/>
      </g>
     </g>
     <g id="text_5">
      <!-- 2020-04-22 -->
      <g transform="translate(636.229354 476.638438) scale(0.1 -0.1)">
       <use xlink:href="#DejaVuSans-32"/>
       <use xlink:href="#DejaVuSans-30" transform="translate(63.623047 0)"/>
       <use xlink:href="#DejaVuSans-32" transform="translate(127.246094 0)"/>
       <use xlink:href="#DejaVuSans-30" transform="translate(190.869141 0)"/>
       <use xlink:href="#DejaVuSans-2d" transform="translate(254.492188 0)"/>
       <use xlink:href="#DejaVuSans-30" transform="translate(290.576172 0)"/>
       <use xlink:href="#DejaVuSans-34" transform="translate(354.199219 0)"/>
       <use xlink:href="#DejaVuSans-2d" transform="translate(417.822266 0)"/>
       <use xlink:href="#DejaVuSans-32" transform="translate(453.90625 0)"/>
       <use xlink:href="#DejaVuSans-32" transform="translate(517.529297 0)"/>
      </g>
     </g>
    </g>
    <g id="xtick_6">
     <g id="line2d_11">
      <path d="M 835.107453 462.04 
L 835.107453 25.8 
" clip-path="url(#pc1542c413c)" style="fill: none; stroke-dasharray: 2.96,1.28; stroke-dashoffset: 0; stroke: #b0b0b0; stroke-opacity: 0.5; stroke-width: 0.8"/>
     </g>
     <g id="line2d_12">
      <g>
       <use xlink:href="#mfb35844ed1" x="835.107453" y="462.04" style="stroke: #000000; stroke-width: 0.8"/>
      </g>
     </g>
     <g id="text_6">
      <!-- 2020-05-01 -->
      <g transform="translate(806.04964 476.638438) scale(0.1 -0.1)">
       <use xlink:href="#DejaVuSans-32"/>
       <use xlink:href="#DejaVuSans-30" transform="translate(63.623047 0)"/>
       <use xlink:href="#DejaVuSans-32" transform="translate(127.246094 0)"/>
       <use xlink:href="#DejaVuSans-30" transform="translate(190.869141 0)"/>
       <use xlink:href="#DejaVuSans-2d" transform="translate(254.492188 0)"/>
       <use xlink:href="#DejaVuSans-30" transform="translate(290.576172 0)"/>
       <use xlink:href="#DejaVuSans-35" transform="translate(354.199219 0)"/>
       <use xlink:href="#DejaVuSans-2d" transform="translate(417.822266 0)"/>
       <use xlink:href="#DejaVuSans-30" transform="translate(453.90625 0)"/>
       <use xlink:href="#DejaVuSans-31" transform="translate(517.529297 0)"/>
      </g>
     </g>
    </g>
    <g id="xtick_7">
     <g id="line2d_13">
      <path d="M 967.189897 462.04 
L 967.189897 25.8 
" clip-path="url(#pc1542c413c)" style="fill: none; stroke-dasharray: 2.96,1.28; stroke-dashoffset: 0; stroke: #b0b0b0; stroke-opacity: 0.5; stroke-width: 0.8"/>
     </g>
     <g id="line2d_14">
      <g>
       <use xlink:href="#mfb35844ed1" x="967.189897" y="462.04" style="stroke: #000000; stroke-width: 0.8"/>
      </g>
     </g>
     <g id="text_7">
      <!-- 2020-05-08 -->
      <g transform="translate(938.132085 476.638438) scale(0.1 -0.1)">
       <use xlink:href="#DejaVuSans-32"/>
       <use xlink:href="#DejaVuSans-30" transform="translate(63.623047 0)"/>
       <use xlink:href="#DejaVuSans-32" transform="translate(127.246094 0)"/>
       <use xlink:href="#DejaVuSans-30" transform="translate(190.869141 0)"/>
       <use xlink:href="#DejaVuSans-2d" transform="translate(254.492188 0)"/>
       <use xlink:href="#DejaVuSans-30" transform="translate(290.576172 0)"/>
       <use xlink:href="#DejaVuSans-35" transform="translate(354.199219 0)"/>
       <use xlink:href="#DejaVuSans-2d" transform="translate(417.822266 0)"/>
       <use xlink:href="#DejaVuSans-30" transform="translate(453.90625 0)"/>
       <use xlink:href="#DejaVuSans-38" transform="translate(517.529297 0)"/>
      </g>
     </g>
    </g>
    <g id="text_8">
     <!-- Fecha -->
     <g transform="translate(546.455625 490.316563) scale(0.1 -0.1)">
      <defs>
       <path id="DejaVuSans-46" d="M 628 4666 
L 3309 4666 
L 3309 4134 
L 1259 4134 
L 1259 2759 
L 3109 2759 
L 3109 2228 
L 1259 2228 
L 1259 0 
L 628 0 
L 628 4666 
z
" transform="scale(0.015625)"/>
       <path id="DejaVuSans-65" d="M 3597 1894 
L 3597 1613 
L 953 1613 
Q 991 1019 1311 708 
Q 1631 397 2203 397 
Q 2534 397 2845 478 
Q 3156 559 3463 722 
L 3463 178 
Q 3153 47 2828 -22 
Q 2503 -91 2169 -91 
Q 1331 -91 842 396 
Q 353 884 353 1716 
Q 353 2575 817 3079 
Q 1281 3584 2069 3584 
Q 2775 3584 3186 3129 
Q 3597 2675 3597 1894 
z
M 3022 2063 
Q 3016 2534 2758 2815 
Q 2500 3097 2075 3097 
Q 1594 3097 1305 2825 
Q 1016 2553 972 2059 
L 3022 2063 
z
" transform="scale(0.015625)"/>
       <path id="DejaVuSans-63" d="M 3122 3366 
L 3122 2828 
Q 2878 2963 2633 3030 
Q 2388 3097 2138 3097 
Q 1578 3097 1268 2742 
Q 959 2388 959 1747 
Q 959 1106 1268 751 
Q 1578 397 2138 397 
Q 2388 397 2633 464 
Q 2878 531 3122 666 
L 3122 134 
Q 2881 22 2623 -34 
Q 2366 -91 2075 -91 
Q 1284 -91 818 406 
Q 353 903 353 1747 
Q 353 2603 823 3093 
Q 1294 3584 2113 3584 
Q 2378 3584 2631 3529 
Q 2884 3475 3122 3366 
z
" transform="scale(0.015625)"/>
       <path id="DejaVuSans-68" d="M 3513 2113 
L 3513 0 
L 2938 0 
L 2938 2094 
Q 2938 2591 2744 2837 
Q 2550 3084 2163 3084 
Q 1697 3084 1428 2787 
Q 1159 2491 1159 1978 
L 1159 0 
L 581 0 
L 581 4863 
L 1159 4863 
L 1159 2956 
Q 1366 3272 1645 3428 
Q 1925 3584 2291 3584 
Q 2894 3584 3203 3211 
Q 3513 2838 3513 2113 
z
" transform="scale(0.015625)"/>
       <path id="DejaVuSans-61" d="M 2194 1759 
Q 1497 1759 1228 1600 
Q 959 1441 959 1056 
Q 959 750 1161 570 
Q 1363 391 1709 391 
Q 2188 391 2477 730 
Q 2766 1069 2766 1631 
L 2766 1759 
L 2194 1759 
z
M 3341 1997 
L 3341 0 
L 2766 0 
L 2766 531 
Q 2569 213 2275 61 
Q 1981 -91 1556 -91 
Q 1019 -91 701 211 
Q 384 513 384 1019 
Q 384 1609 779 1909 
Q 1175 2209 1959 2209 
L 2766 2209 
L 2766 2266 
Q 2766 2663 2505 2880 
Q 2244 3097 1772 3097 
Q 1472 3097 1187 3025 
Q 903 2953 641 2809 
L 641 3341 
Q 956 3463 1253 3523 
Q 1550 3584 1831 3584 
Q 2591 3584 2966 3190 
Q 3341 2797 3341 1997 
z
" transform="scale(0.015625)"/>
      </defs>
      <use xlink:href="#DejaVuSans-46"/>
      <use xlink:href="#DejaVuSans-65" transform="translate(52.019531 0)"/>
      <use xlink:href="#DejaVuSans-63" transform="translate(113.542969 0)"/>
      <use xlink:href="#DejaVuSans-68" transform="translate(168.523438 0)"/>
      <use xlink:href="#DejaVuSans-61" transform="translate(231.902344 0)"/>
     </g>
    </g>
   </g>
   <g id="matplotlib.axis_2">
    <g id="ytick_1">
     <g id="line2d_15">
      <path d="M 53.03 460.965675 
L 1069.2 460.965675 
" clip-path="url(#pc1542c413c)" style="fill: none; stroke-dasharray: 2.96,1.28; stroke-dashoffset: 0; stroke: #b0b0b0; stroke-opacity: 0.5; stroke-width: 0.8"/>
     </g>
     <g id="line2d_16">
      <defs>
       <path id="m6a923b2903" d="M 0 0 
L -3.5 0 
" style="stroke: #000000; stroke-width: 0.8"/>
      </defs>
      <g>
       <use xlink:href="#m6a923b2903" x="53.03" y="460.965675" style="stroke: #000000; stroke-width: 0.8"/>
      </g>
     </g>
     <g id="text_9">
      <!-- −25 -->
      <g transform="translate(24.925312 464.764893) scale(0.1 -0.1)">
       <defs>
        <path id="DejaVuSans-2212" d="M 678 2272 
L 4684 2272 
L 4684 1741 
L 678 1741 
L 678 2272 
z
" transform="scale(0.015625)"/>
       </defs>
       <use xlink:href="#DejaVuSans-2212"/>
       <use xlink:href="#DejaVuSans-32" transform="translate(83.789062 0)"/>
       <use xlink:href="#DejaVuSans-35" transform="translate(147.412109 0)"/>
      </g>
     </g>
    </g>
    <g id="ytick_2">
     <g id="line2d_17">
      <path d="M 53.03 410.331474 
L 1069.2 410.331474 
" clip-path="url(#pc1542c413c)" style="fill: none; stroke-dasharray: 2.96,1.28; stroke-dashoffset: 0; stroke: #b0b0b0; stroke-opacity: 0.5; stroke-width: 0.8"/>
     </g>
     <g id="line2d_18">
      <g>
       <use xlink:href="#m6a923b2903" x="53.03" y="410.331474" style="stroke: #000000; stroke-width: 0.8"/>
      </g>
     </g>
     <g id="text_10">
      <!-- −20 -->
      <g transform="translate(24.925312 414.130692) scale(0.1 -0.1)">
       <use xlink:href="#DejaVuSans-2212"/>
       <use xlink:href="#DejaVuSans-32" transform="translate(83.789062 0)"/>
       <use xlink:href="#DejaVuSans-30" transform="translate(147.412109 0)"/>
      </g>
     </g>
    </g>
    <g id="ytick_3">
     <g id="line2d_19">
      <path d="M 53.03 359.697273 
L 1069.2 359.697273 
" clip-path="url(#pc1542c413c)" style="fill: none; stroke-dasharray: 2.96,1.28; stroke-dashoffset: 0; stroke: #b0b0b0; stroke-opacity: 0.5; stroke-width: 0.8"/>
     </g>
     <g id="line2d_20">
      <g>
       <use xlink:href="#m6a923b2903" x="53.03" y="359.697273" style="stroke: #000000; stroke-width: 0.8"/>
      </g>
     </g>
     <g id="text_11">
      <!-- −15 -->
      <g transform="translate(24.925312 363.496491) scale(0.1 -0.1)">
       <use xlink:href="#DejaVuSans-2212"/>
       <use xlink:href="#DejaVuSans-31" transform="translate(83.789062 0)"/>
       <use xlink:href="#DejaVuSans-35" transform="translate(147.412109 0)"/>
      </g>
     </g>
    </g>
    <g id="ytick_4">
     <g id="line2d_21">
      <path d="M 53.03 309.063071 
L 1069.2 309.063071 
" clip-path="url(#pc1542c413c)" style="fill: none; stroke-dasharray: 2.96,1.28; stroke-dashoffset: 0; stroke: #b0b0b0; stroke-opacity: 0.5; stroke-width: 0.8"/>
     </g>
     <g id="line2d_22">
      <g>
       <use xlink:href="#m6a923b2903" x="53.03" y="309.063071" style="stroke: #000000; stroke-width: 0.8"/>
      </g>
     </g>
     <g id="text_12">
      <!-- −10 -->
      <g transform="translate(24.925312 312.86229) scale(0.1 -0.1)">
       <use xlink:href="#DejaVuSans-2212"/>
       <use xlink:href="#DejaVuSans-31" transform="translate(83.789062 0)"/>
       <use xlink:href="#DejaVuSans-30" transform="translate(147.412109 0)"/>
      </g>
     </g>
    </g>
    <g id="ytick_5">
     <g id="line2d_23">
      <path d="M 53.03 258.42887 
L 1069.2 258.42887 
" clip-path="url(#pc1542c413c)" style="fill: none; stroke-dasharray: 2.96,1.28; stroke-dashoffset: 0; stroke: #b0b0b0; stroke-opacity: 0.5; stroke-width: 0.8"/>
     </g>
     <g id="line2d_24">
      <g>
       <use xlink:href="#m6a923b2903" x="53.03" y="258.42887" style="stroke: #000000; stroke-width: 0.8"/>
      </g>
     </g>
     <g id="text_13">
      <!-- −5 -->
      <g transform="translate(31.287812 262.228089) scale(0.1 -0.1)">
       <use xlink:href="#DejaVuSans-2212"/>
       <use xlink:href="#DejaVuSans-35" transform="translate(83.789062 0)"/>
      </g>
     </g>
    </g>
    <g id="ytick_6">
     <g id="line2d_25">
      <path d="M 53.03 207.794669 
L 1069.2 207.794669 
" clip-path="url(#pc1542c413c)" style="fill: none; stroke-dasharray: 2.96,1.28; stroke-dashoffset: 0; stroke: #b0b0b0; stroke-opacity: 0.5; stroke-width: 0.8"/>
     </g>
     <g id="line2d_26">
      <g>
       <use xlink:href="#m6a923b2903" x="53.03" y="207.794669" style="stroke: #000000; stroke-width: 0.8"/>
      </g>
     </g>
     <g id="text_14">
      <!-- 0 -->
      <g transform="translate(39.6675 211.593888) scale(0.1 -0.1)">
       <use xlink:href="#DejaVuSans-30"/>
      </g>
     </g>
    </g>
    <g id="ytick_7">
     <g id="line2d_27">
      <path d="M 53.03 157.160468 
L 1069.2 157.160468 
" clip-path="url(#pc1542c413c)" style="fill: none; stroke-dasharray: 2.96,1.28; stroke-dashoffset: 0; stroke: #b0b0b0; stroke-opacity: 0.5; stroke-width: 0.8"/>
     </g>
     <g id="line2d_28">
      <g>
       <use xlink:href="#m6a923b2903" x="53.03" y="157.160468" style="stroke: #000000; stroke-width: 0.8"/>
      </g>
     </g>
     <g id="text_15">
      <!-- 5 -->
      <g transform="translate(39.6675 160.959687) scale(0.1 -0.1)">
       <use xlink:href="#DejaVuSans-35"/>
      </g>
     </g>
    </g>
    <g id="ytick_8">
     <g id="line2d_29">
      <path d="M 53.03 106.526267 
L 1069.2 106.526267 
" clip-path="url(#pc1542c413c)" style="fill: none; stroke-dasharray: 2.96,1.28; stroke-dashoffset: 0; stroke: #b0b0b0; stroke-opacity: 0.5; stroke-width: 0.8"/>
     </g>
     <g id="line2d_30">
      <g>
       <use xlink:href="#m6a923b2903" x="53.03" y="106.526267" style="stroke: #000000; stroke-width: 0.8"/>
      </g>
     </g>
     <g id="text_16">
      <!-- 10 -->
      <g transform="translate(33.305 110.325486) scale(0.1 -0.1)">
       <use xlink:href="#DejaVuSans-31"/>
       <use xlink:href="#DejaVuSans-30" transform="translate(63.623047 0)"/>
      </g>
     </g>
    </g>
    <g id="ytick_9">
     <g id="line2d_31">
      <path d="M 53.03 55.892066 
L 1069.2 55.892066 
" clip-path="url(#pc1542c413c)" style="fill: none; stroke-dasharray: 2.96,1.28; stroke-dashoffset: 0; stroke: #b0b0b0; stroke-opacity: 0.5; stroke-width: 0.8"/>
     </g>
     <g id="line2d_32">
      <g>
       <use xlink:href="#m6a923b2903" x="53.03" y="55.892066" style="stroke: #000000; stroke-width: 0.8"/>
      </g>
     </g>
     <g id="text_17">
      <!-- 15 -->
      <g transform="translate(33.305 59.691285) scale(0.1 -0.1)">
       <use xlink:href="#DejaVuSans-31"/>
       <use xlink:href="#DejaVuSans-35" transform="translate(63.623047 0)"/>
      </g>
     </g>
    </g>
    <g id="text_18">
     <!-- Nivel Residual de NO2 -->
     <g transform="translate(18.845625 299.466094) rotate(-90) scale(0.1 -0.1)">
      <defs>
       <path id="DejaVuSans-4e" d="M 628 4666 
L 1478 4666 
L 3547 763 
L 3547 4666 
L 4159 4666 
L 4159 0 
L 3309 0 
L 1241 3903 
L 1241 0 
L 628 0 
L 628 4666 
z
" transform="scale(0.015625)"/>
       <path id="DejaVuSans-69" d="M 603 3500 
L 1178 3500 
L 1178 0 
L 603 0 
L 603 3500 
z
M 603 4863 
L 1178 4863 
L 1178 4134 
L 603 4134 
L 603 4863 
z
" transform="scale(0.015625)"/>
       <path id="DejaVuSans-76" d="M 191 3500 
L 800 3500 
L 1894 563 
L 2988 3500 
L 3597 3500 
L 2284 0 
L 1503 0 
L 191 3500 
z
" transform="scale(0.015625)"/>
       <path id="DejaVuSans-6c" d="M 603 4863 
L 1178 4863 
L 1178 0 
L 603 0 
L 603 4863 
z
" transform="scale(0.015625)"/>
       <path id="DejaVuSans-20" transform="scale(0.015625)"/>
       <path id="DejaVuSans-52" d="M 2841 2188 
Q 3044 2119 3236 1894 
Q 3428 1669 3622 1275 
L 4263 0 
L 3584 0 
L 2988 1197 
Q 2756 1666 2539 1819 
Q 2322 1972 1947 1972 
L 1259 1972 
L 1259 0 
L 628 0 
L 628 4666 
L 2053 4666 
Q 2853 4666 3247 4331 
Q 3641 3997 3641 3322 
Q 3641 2881 3436 2590 
Q 3231 2300 2841 2188 
z
M 1259 4147 
L 1259 2491 
L 2053 2491 
Q 2509 2491 2742 2702 
Q 2975 2913 2975 3322 
Q 2975 3731 2742 3939 
Q 2509 4147 2053 4147 
L 1259 4147 
z
" transform="scale(0.015625)"/>
       <path id="DejaVuSans-73" d="M 2834 3397 
L 2834 2853 
Q 2591 2978 2328 3040 
Q 2066 3103 1784 3103 
Q 1356 3103 1142 2972 
Q 928 2841 928 2578 
Q 928 2378 1081 2264 
Q 1234 2150 1697 2047 
L 1894 2003 
Q 2506 1872 2764 1633 
Q 3022 1394 3022 966 
Q 3022 478 2636 193 
Q 2250 -91 1575 -91 
Q 1294 -91 989 -36 
Q 684 19 347 128 
L 347 722 
Q 666 556 975 473 
Q 1284 391 1588 391 
Q 1994 391 2212 530 
Q 2431 669 2431 922 
Q 2431 1156 2273 1281 
Q 2116 1406 1581 1522 
L 1381 1569 
Q 847 1681 609 1914 
Q 372 2147 372 2553 
Q 372 3047 722 3315 
Q 1072 3584 1716 3584 
Q 2034 3584 2315 3537 
Q 2597 3491 2834 3397 
z
" transform="scale(0.015625)"/>
       <path id="DejaVuSans-64" d="M 2906 2969 
L 2906 4863 
L 3481 4863 
L 3481 0 
L 2906 0 
L 2906 525 
Q 2725 213 2448 61 
Q 2172 -91 1784 -91 
Q 1150 -91 751 415 
Q 353 922 353 1747 
Q 353 2572 751 3078 
Q 1150 3584 1784 3584 
Q 2172 3584 2448 3432 
Q 2725 3281 2906 2969 
z
M 947 1747 
Q 947 1113 1208 752 
Q 1469 391 1925 391 
Q 2381 391 2643 752 
Q 2906 1113 2906 1747 
Q 2906 2381 2643 2742 
Q 2381 3103 1925 3103 
Q 1469 3103 1208 2742 
Q 947 2381 947 1747 
z
" transform="scale(0.015625)"/>
       <path id="DejaVuSans-75" d="M 544 1381 
L 544 3500 
L 1119 3500 
L 1119 1403 
Q 1119 906 1312 657 
Q 1506 409 1894 409 
Q 2359 409 2629 706 
Q 2900 1003 2900 1516 
L 2900 3500 
L 3475 3500 
L 3475 0 
L 2900 0 
L 2900 538 
Q 2691 219 2414 64 
Q 2138 -91 1772 -91 
Q 1169 -91 856 284 
Q 544 659 544 1381 
z
M 1991 3584 
L 1991 3584 
z
" transform="scale(0.015625)"/>
       <path id="DejaVuSans-4f" d="M 2522 4238 
Q 1834 4238 1429 3725 
Q 1025 3213 1025 2328 
Q 1025 1447 1429 934 
Q 1834 422 2522 422 
Q 3209 422 3611 934 
Q 4013 1447 4013 2328 
Q 4013 3213 3611 3725 
Q 3209 4238 2522 4238 
z
M 2522 4750 
Q 3503 4750 4090 4092 
Q 4678 3434 4678 2328 
Q 4678 1225 4090 567 
Q 3503 -91 2522 -91 
Q 1538 -91 948 565 
Q 359 1222 359 2328 
Q 359 3434 948 4092 
Q 1538 4750 2522 4750 
z
" transform="scale(0.015625)"/>
      </defs>
      <use xlink:href="#DejaVuSans-4e"/>
      <use xlink:href="#DejaVuSans-69" transform="translate(74.804688 0)"/>
      <use xlink:href="#DejaVuSans-76" transform="translate(102.587891 0)"/>
      <use xlink:href="#DejaVuSans-65" transform="translate(161.767578 0)"/>
      <use xlink:href="#DejaVuSans-6c" transform="translate(223.291016 0)"/>
      <use xlink:href="#DejaVuSans-20" transform="translate(251.074219 0)"/>
      <use xlink:href="#DejaVuSans-52" transform="translate(282.861328 0)"/>
      <use xlink:href="#DejaVuSans-65" transform="translate(347.84375 0)"/>
      <use xlink:href="#DejaVuSans-73" transform="translate(409.367188 0)"/>
      <use xlink:href="#DejaVuSans-69" transform="translate(461.466797 0)"/>
      <use xlink:href="#DejaVuSans-64" transform="translate(489.25 0)"/>
      <use xlink:href="#DejaVuSans-75" transform="translate(552.726562 0)"/>
      <use xlink:href="#DejaVuSans-61" transform="translate(616.105469 0)"/>
      <use xlink:href="#DejaVuSans-6c" transform="translate(677.384766 0)"/>
      <use xlink:href="#DejaVuSans-20" transform="translate(705.167969 0)"/>
      <use xlink:href="#DejaVuSans-64" transform="translate(736.955078 0)"/>
      <use xlink:href="#DejaVuSans-65" transform="translate(800.431641 0)"/>
      <use xlink:href="#DejaVuSans-20" transform="translate(861.955078 0)"/>
      <use xlink:href="#DejaVuSans-4e" transform="translate(893.742188 0)"/>
      <use xlink:href="#DejaVuSans-4f" transform="translate(968.546875 0)"/>
      <use xlink:href="#DejaVuSans-32" transform="translate(1047.257812 0)"/>
     </g>
    </g>
   </g>
   <g id="line2d_33">
    <path d="M 99.219545 365.492728 
L 100.00575 335.713245 
L 100.791956 322.186331 
L 101.578161 294.940896 
L 102.364366 305.298072 
L 103.150571 329.497428 
L 103.936776 320.889427 
L 104.722981 316.165803 
L 105.509186 323.686251 
L 106.295391 305.538395 
L 107.081596 303.057117 
L 107.867801 334.710736 
L 108.654006 341.290764 
L 109.440211 323.707478 
L 110.226416 344.849861 
L 111.012621 381.933294 
L 112.585031 421.742403 
L 113.371236 421.313774 
L 114.157441 442.210909 
L 114.943646 417.595538 
L 115.729851 436.223401 
L 116.516056 390.80527 
L 117.302261 386.466699 
L 118.088466 373.264014 
L 118.874671 391.80293 
L 119.660876 375.104387 
L 120.447081 334.065563 
L 121.233286 347.826077 
L 122.019491 350.52417 
L 122.805696 343.038287 
L 123.591901 363.31221 
L 124.378106 362.681562 
L 125.164311 355.086664 
L 125.950516 376.630112 
L 126.736721 378.04738 
L 127.522926 386.889243 
L 128.309132 368.023047 
L 129.095337 372.113472 
L 129.881542 368.130653 
L 130.667747 384.805149 
L 131.453952 370.4926 
L 132.240157 338.089813 
L 133.026362 295.109114 
L 133.812567 376.513929 
L 134.598772 364.491127 
L 135.384977 377.77341 
L 136.171182 401.130634 
L 136.957387 414.54235 
L 137.743592 408.134538 
L 138.529797 391.119261 
L 139.316002 381.704735 
L 140.102207 367.756591 
L 140.888412 371.620408 
L 142.460822 344.147572 
L 143.247027 324.361884 
L 144.033232 318.85363 
L 144.819437 337.749765 
L 145.605642 329.644013 
L 146.391847 307.663882 
L 147.178052 315.331735 
L 147.964257 325.261133 
L 148.750462 328.725333 
L 149.536667 334.82292 
L 150.322872 365.591893 
L 151.109077 322.122513 
L 151.895282 363.852154 
L 152.681487 388.226295 
L 153.467692 386.553792 
L 154.253897 347.843209 
L 155.040103 344.240073 
L 155.826308 330.787312 
L 156.612513 342.755471 
L 157.398718 330.988675 
L 158.184923 331.650498 
L 158.971128 326.416851 
L 159.757333 304.631072 
L 160.543538 305.287198 
L 161.329743 274.177713 
L 162.115948 266.446294 
L 163.688358 256.885743 
L 164.474563 270.313278 
L 165.260768 295.513945 
L 166.046973 291.95903 
L 166.833178 290.250872 
L 167.619383 289.15873 
L 168.405588 257.764942 
L 169.191793 303.153443 
L 169.977998 325.921469 
L 171.550408 346.338191 
L 172.336613 359.55994 
L 173.122818 341.721865 
L 173.909023 294.053603 
L 174.695228 312.897684 
L 175.481433 310.089029 
L 176.267638 302.755777 
L 177.053843 308.921905 
L 177.840048 286.374567 
L 178.626253 309.409532 
L 179.412458 274.887767 
L 180.198663 269.50882 
L 180.984868 291.550625 
L 182.557279 309.234264 
L 183.343484 329.001544 
L 184.129689 317.657813 
L 184.915894 292.886894 
L 185.702099 284.468831 
L 186.488304 256.442995 
L 187.274509 276.946906 
L 188.060714 314.764827 
L 188.846919 308.79113 
L 189.633124 351.93829 
L 190.419329 360.221532 
L 191.205534 392.640389 
L 191.991739 375.355198 
L 192.777944 380.711266 
L 193.564149 298.985949 
L 194.350354 316.536205 
L 195.136559 347.541136 
L 195.922764 350.250374 
L 196.708969 317.931348 
L 198.281379 282.478213 
L 199.067584 293.79865 
L 199.853789 299.853578 
L 200.639994 312.354708 
L 201.426199 349.245914 
L 202.212404 310.068033 
L 202.998609 312.636636 
L 203.784814 306.218104 
L 204.571019 316.971034 
L 205.357224 315.494023 
L 206.143429 346.714281 
L 206.929634 330.906874 
L 207.715839 342.093068 
L 208.502044 358.703282 
L 209.28825 379.730757 
L 210.074455 389.466267 
L 210.86066 365.087258 
L 211.646865 319.042168 
L 212.43307 340.800925 
L 213.219275 376.350309 
L 214.791685 315.225065 
L 215.57789 297.778205 
L 216.364095 298.337289 
L 217.1503 289.104656 
L 217.936505 276.578919 
L 218.72271 281.719784 
L 220.29512 299.417185 
L 221.86753 333.722695 
L 222.653735 339.169854 
L 223.43994 316.631836 
L 224.226145 335.381696 
L 225.01235 322.101305 
L 225.798555 340.82306 
L 226.58476 324.653451 
L 227.370965 337.227148 
L 228.15717 323.253334 
L 228.943375 284.853401 
L 229.72958 264.109553 
L 230.515785 332.076867 
L 231.30199 304.994627 
L 232.088195 313.87937 
L 232.8744 302.560035 
L 233.660605 293.860836 
L 234.44681 294.785832 
L 235.233015 259.210015 
L 236.019221 256.444694 
L 236.805426 217.766571 
L 237.591631 187.956483 
L 238.377836 200.443174 
L 239.164041 251.111815 
L 239.950246 257.491001 
L 240.736451 284.751222 
L 241.522656 294.130672 
L 242.308861 296.119551 
L 243.095066 300.856551 
L 243.881271 309.917045 
L 244.667476 321.01744 
L 245.453681 322.02667 
L 246.239886 294.133647 
L 247.026091 313.258805 
L 247.812296 307.331367 
L 248.598501 310.174075 
L 250.170911 289.538934 
L 250.957116 297.463943 
L 251.743321 292.99141 
L 252.529526 285.259537 
L 253.315731 288.045322 
L 254.101936 300.484613 
L 254.888141 286.926553 
L 255.674346 280.525888 
L 256.460551 281.819027 
L 257.246756 274.110534 
L 258.032961 276.307923 
L 258.819166 301.161386 
L 259.605371 312.4362 
L 260.391576 304.969652 
L 261.177781 302.940317 
L 261.963986 324.706336 
L 262.750191 335.420838 
L 263.536397 333.734728 
L 264.322602 319.616937 
L 265.108807 313.510639 
L 265.895012 317.197005 
L 266.681217 317.129884 
L 267.467422 341.019402 
L 268.253627 317.026518 
L 269.039832 312.90738 
L 269.826037 306.167971 
L 270.612242 290.4185 
L 271.398447 293.38303 
L 272.184652 304.974761 
L 273.757062 287.50393 
L 274.543267 298.405936 
L 275.329472 295.827782 
L 276.115677 295.962353 
L 276.901882 273.072157 
L 277.688087 254.85041 
L 278.474292 269.95406 
L 279.260497 280.275937 
L 280.046702 301.994499 
L 280.832907 316.916352 
L 281.619112 310.928303 
L 282.405317 314.072795 
L 283.191522 267.534369 
L 283.977727 271.364404 
L 284.763932 303.649675 
L 285.550137 356.463003 
L 286.336342 347.854123 
L 287.122547 372.580461 
L 287.908752 333.21495 
L 288.694957 324.82248 
L 289.481162 315.009766 
L 290.267368 287.891677 
L 291.053573 283.116037 
L 291.839778 279.625665 
L 292.625983 250.350865 
L 293.412188 246.670959 
L 294.198393 248.776088 
L 295.770803 277.129466 
L 296.557008 280.951571 
L 297.343213 281.52915 
L 298.129418 266.386165 
L 298.915623 267.442457 
L 299.701828 256.881329 
L 301.274238 280.486784 
L 302.846648 267.092124 
L 303.632853 266.699577 
L 304.419058 268.657329 
L 305.205263 268.921603 
L 305.991468 283.830515 
L 306.777673 295.772376 
L 307.563878 255.659137 
L 308.350083 239.291978 
L 309.136288 246.081414 
L 309.922493 251.156115 
L 310.708698 251.724422 
L 311.494903 254.533048 
L 312.281108 230.193481 
L 313.067313 247.405196 
L 313.853518 256.593829 
L 314.639723 260.315001 
L 315.425928 266.441677 
L 316.212133 275.838549 
L 316.998338 96.849602 
L 317.784544 51.269839 
L 318.570749 147.643821 
L 319.356954 172.311789 
L 320.143159 170.587849 
L 320.929364 121.596386 
L 321.715569 80.993549 
L 322.501774 63.579215 
L 323.287979 173.943594 
L 324.074184 210.07497 
L 324.860389 206.11925 
L 325.646594 204.005835 
L 326.432799 198.216677 
L 327.219004 199.420114 
L 328.005209 235.681927 
L 328.791414 233.164849 
L 329.577619 244.17592 
L 330.363824 224.172277 
L 331.150029 134.358689 
L 332.722439 121.610573 
L 333.508644 189.439134 
L 334.294849 194.500304 
L 335.081054 209.112174 
L 335.867259 326.379689 
L 336.653464 319.719048 
L 337.439669 311.6459 
L 338.225874 319.281032 
L 339.798284 341.007329 
L 340.584489 317.847452 
L 341.370694 263.052903 
L 342.156899 271.115138 
L 342.943104 263.437242 
L 343.729309 278.356758 
L 344.515515 320.788436 
L 345.30172 321.143666 
L 346.087925 350.683444 
L 346.87413 336.471838 
L 347.660335 313.255782 
L 348.44654 300.624283 
L 349.232745 285.672394 
L 350.01895 314.434495 
L 350.805155 308.449575 
L 352.377565 371.681 
L 353.16377 378.129703 
L 353.949975 368.481267 
L 354.73618 370.219654 
L 355.522385 382.463927 
L 356.30859 384.521791 
L 357.094795 379.907532 
L 357.881 367.571337 
L 358.667205 333.574816 
L 359.45341 312.73725 
L 360.239615 308.314541 
L 361.02582 304.919954 
L 361.812025 314.675358 
L 363.384435 325.032805 
L 364.17064 316.20991 
L 364.956845 260.365801 
L 365.74305 250.428117 
L 366.529255 284.629207 
L 367.31546 293.676238 
L 368.101665 296.617734 
L 368.88787 282.564206 
L 369.674075 246.144267 
L 370.46028 256.878403 
L 371.246485 286.124413 
L 372.032691 291.85746 
L 372.818896 280.341842 
L 373.605101 285.095819 
L 374.391306 296.806108 
L 375.177511 291.682965 
L 375.963716 283.942274 
L 376.749921 307.050763 
L 377.536126 296.895616 
L 378.322331 277.748979 
L 379.108536 276.603768 
L 379.894741 253.73619 
L 380.680946 284.56226 
L 381.467151 298.462888 
L 382.253356 334.32493 
L 383.039561 337.429825 
L 383.825766 318.998873 
L 384.611971 315.190288 
L 385.398176 306.186485 
L 386.184381 320.898746 
L 386.970586 297.642359 
L 388.542996 220.884668 
L 389.329201 238.843484 
L 390.115406 234.104254 
L 390.901611 268.253463 
L 391.687816 290.610708 
L 392.474021 298.523924 
L 393.260226 303.788766 
L 394.046431 289.101769 
L 394.832636 298.09434 
L 395.618841 276.128821 
L 396.405046 301.979645 
L 397.191251 299.389815 
L 397.977456 271.966523 
L 398.763662 240.177889 
L 399.549867 240.479113 
L 400.336072 198.389936 
L 401.122277 230.98663 
L 401.908482 233.208559 
L 402.694687 300.304265 
L 403.480892 332.88427 
L 404.267097 323.362775 
L 405.053302 254.748463 
L 405.839507 228.086382 
L 406.625712 168.792849 
L 407.411917 144.02643 
L 408.198122 114.787432 
L 408.984327 202.313669 
L 409.770532 256.918366 
L 410.556737 281.784297 
L 411.342942 271.189406 
L 412.129147 257.379812 
L 412.915352 275.957513 
L 413.701557 245.734393 
L 414.487762 266.377241 
L 415.273967 255.401546 
L 416.060172 274.790302 
L 416.846377 314.848 
L 417.632582 283.577656 
L 418.418787 260.603381 
L 419.204992 217.463425 
L 419.991197 251.550825 
L 420.777402 159.300751 
L 421.563607 138.104904 
L 422.349812 146.961755 
L 423.136017 212.986421 
L 423.922222 225.274753 
L 424.708427 193.365108 
L 425.494632 184.637901 
L 426.280838 159.892479 
L 427.067043 154.833193 
L 427.853248 166.76502 
L 428.639453 232.490934 
L 430.211863 259.354436 
L 430.998068 267.275157 
L 431.784273 277.334721 
L 433.356683 318.789494 
L 434.929093 296.506236 
L 435.715298 296.786947 
L 436.501503 312.136482 
L 437.287708 300.498346 
L 438.073913 230.47763 
L 438.860118 226.691297 
L 439.646323 206.253985 
L 440.432528 159.78608 
L 441.218733 162.020854 
L 442.004938 185.906857 
L 442.791143 227.71682 
L 443.577348 240.289359 
L 444.363553 219.892744 
L 445.149758 180.535114 
L 445.935963 187.32004 
L 446.722168 223.511275 
L 447.508373 342.359466 
L 448.294578 362.489702 
L 449.080783 342.35315 
L 449.866988 329.134096 
L 450.653193 330.126937 
L 451.439398 330.403775 
L 452.225603 329.462467 
L 453.011809 348.098327 
L 454.584219 373.380003 
L 455.370424 380.010213 
L 456.156629 380.040557 
L 456.942834 373.426148 
L 460.087654 295.812002 
L 460.873859 298.147921 
L 461.660064 302.382333 
L 462.446269 318.23856 
L 463.232474 336.993982 
L 464.804884 367.121886 
L 465.591089 356.886455 
L 466.377294 342.509682 
L 467.163499 335.901676 
L 467.949704 336.685303 
L 468.735909 353.550258 
L 469.522114 359.208921 
L 470.308319 353.801068 
L 471.094524 349.570626 
L 471.880729 358.205659 
L 472.666934 346.081276 
L 473.453139 340.785666 
L 474.239344 292.415869 
L 475.025549 308.250356 
L 475.811754 339.96619 
L 476.597959 325.816915 
L 477.384164 293.680903 
L 478.956574 263.324343 
L 479.742779 244.497589 
L 480.528985 282.499953 
L 481.31519 304.933146 
L 482.101395 320.280982 
L 482.8876 300.053358 
L 483.673805 327.780597 
L 484.46001 349.288987 
L 486.03242 367.372736 
L 486.818625 356.568851 
L 487.60483 332.976637 
L 488.391035 349.169686 
L 489.17724 316.771738 
L 489.963445 312.547688 
L 490.74965 260.646493 
L 491.535855 302.048273 
L 492.32206 319.513908 
L 493.108265 310.687961 
L 493.89447 327.496177 
L 494.680675 283.045401 
L 495.46688 282.849427 
L 496.253085 223.488569 
L 497.03929 212.798965 
L 497.825495 276.962668 
L 498.6117 313.042878 
L 499.397905 297.051327 
L 500.18411 284.929137 
L 500.970315 245.822839 
L 501.75652 245.419079 
L 502.542725 256.424587 
L 503.32893 239.090065 
L 504.115135 206.700799 
L 504.90134 152.28321 
L 505.687545 138.576161 
L 506.47375 161.64205 
L 507.259956 121.703007 
L 508.046161 100.178275 
L 508.832366 114.047767 
L 509.618571 156.251041 
L 510.404776 246.865234 
L 511.190981 209.722425 
L 511.977186 234.504237 
L 512.763391 208.830671 
L 514.335801 293.801277 
L 515.122006 287.841515 
L 515.908211 288.094238 
L 517.480621 276.87936 
L 518.266826 282.127223 
L 519.053031 242.23135 
L 519.839236 190.791793 
L 520.625441 170.872105 
L 521.411646 197.182298 
L 522.197851 238.076508 
L 523.770261 207.410727 
L 524.556466 218.906876 
L 525.342671 215.511583 
L 526.128876 226.975803 
L 526.915081 235.844553 
L 527.701286 249.871543 
L 528.487491 243.350195 
L 529.273696 185.221275 
L 530.059901 190.067967 
L 530.846106 200.501458 
L 531.632311 219.09581 
L 532.418516 279.835391 
L 533.204721 299.354024 
L 533.990926 309.952199 
L 534.777132 314.639345 
L 535.563337 301.853458 
L 536.349542 299.702416 
L 537.135747 283.636897 
L 537.921952 258.857103 
L 538.708157 192.437649 
L 539.494362 167.464943 
L 540.280567 192.448302 
L 541.066772 234.840306 
L 541.852977 267.722907 
L 542.639182 258.699479 
L 543.425387 236.548156 
L 544.211592 251.452336 
L 544.997797 257.241793 
L 545.784002 249.001094 
L 546.570207 261.728484 
L 547.356412 244.101642 
L 548.142617 202.302447 
L 548.928822 184.843321 
L 549.715027 194.880827 
L 550.501232 199.398722 
L 551.287437 192.464565 
L 552.073642 190.998854 
L 552.859847 225.087915 
L 553.646052 241.511252 
L 554.432257 228.882853 
L 555.218462 246.292165 
L 556.004667 255.688303 
L 556.790872 217.898003 
L 558.363282 187.370897 
L 559.149487 161.551268 
L 559.935692 178.856083 
L 561.508103 196.421753 
L 562.294308 172.633332 
L 563.080513 160.589186 
L 563.866718 179.216856 
L 564.652923 143.293256 
L 565.439128 160.639889 
L 566.225333 171.278028 
L 567.011538 174.870714 
L 567.797743 155.060921 
L 568.583948 142.038469 
L 569.370153 170.235691 
L 570.156358 146.450959 
L 570.942563 168.015925 
L 571.728768 201.821802 
L 572.514973 248.182004 
L 573.301178 280.740357 
L 574.087383 319.914684 
L 574.873588 286.487949 
L 575.659793 274.1352 
L 576.445998 252.549142 
L 577.232203 237.891002 
L 578.018408 284.774864 
L 578.804613 350.047253 
L 579.590818 344.763965 
L 580.377023 335.020536 
L 581.163228 307.826846 
L 581.949433 304.108513 
L 582.735638 257.014518 
L 583.521843 294.005605 
L 584.308048 201.102013 
L 585.094253 151.069372 
L 585.880458 120.471688 
L 586.666663 160.335536 
L 587.452868 164.904656 
L 588.239074 143.043971 
L 589.025279 209.376467 
L 589.811484 213.012111 
L 590.597689 236.254581 
L 591.383894 296.901797 
L 592.170099 290.818271 
L 592.956304 339.67134 
L 593.742509 321.431079 
L 594.528714 285.383242 
L 595.314919 242.772471 
L 596.101124 222.448879 
L 596.887329 273.673842 
L 597.673534 298.129146 
L 598.459739 302.44053 
L 599.245944 299.528722 
L 600.032149 302.378064 
L 600.818354 302.708812 
L 601.604559 307.632021 
L 602.390764 323.045037 
L 603.176969 318.207201 
L 603.963174 263.627325 
L 604.749379 246.915377 
L 605.535584 210.83932 
L 606.321789 141.896114 
L 607.894199 306.98454 
L 608.680404 352.786932 
L 609.466609 298.521558 
L 610.252814 305.454971 
L 611.039019 295.852168 
L 612.611429 252.964346 
L 613.397634 269.084702 
L 614.183839 306.479162 
L 614.970044 296.543554 
L 615.75625 304.741228 
L 616.542455 329.608289 
L 617.32866 333.727813 
L 618.114865 325.80153 
L 618.90107 328.999535 
L 619.687275 340.248041 
L 620.47348 341.483184 
L 621.259685 318.920365 
L 622.04589 370.265972 
L 622.832095 367.11669 
L 623.6183 194.777123 
L 624.404505 110.651422 
L 625.19071 101.702262 
L 625.976915 75.997539 
L 626.76312 96.549353 
L 627.549325 123.945024 
L 628.33553 145.538403 
L 629.121735 132.890437 
L 629.90794 155.113459 
L 630.694145 168.105664 
L 631.48035 219.557081 
L 632.266555 259.609776 
L 633.05276 235.063148 
L 634.62517 155.893493 
L 635.411375 113.216528 
L 636.19758 55.962567 
L 636.983785 85.814251 
L 637.76999 174.833165 
L 639.3424 313.489856 
L 640.128605 312.930771 
L 640.91481 291.733841 
L 642.487221 185.270752 
L 643.273426 156.468745 
L 644.059631 162.135462 
L 644.845836 183.102307 
L 645.632041 160.483009 
L 646.418246 118.430396 
L 647.204451 126.786747 
L 647.990656 96.228312 
L 648.776861 240.174915 
L 649.563066 335.215583 
L 650.349271 322.904981 
L 651.135476 301.323056 
L 651.921681 270.307793 
L 652.707886 261.35954 
L 653.494091 272.682932 
L 654.280296 242.713463 
L 655.066501 288.368787 
L 655.852706 284.048277 
L 656.638911 306.386728 
L 658.211321 267.486448 
L 658.997526 285.110605 
L 659.783731 311.447463 
L 660.569936 287.139535 
L 661.356141 292.13228 
L 662.142346 295.839333 
L 662.928551 289.531749 
L 663.714756 297.121162 
L 664.500961 296.935657 
L 665.287166 278.741289 
L 666.073371 253.354923 
L 666.859576 273.050485 
L 667.645781 264.131737 
L 668.431986 262.994725 
L 669.218191 262.338407 
L 670.004397 236.665826 
L 670.790602 200.686191 
L 671.576807 179.076375 
L 672.363012 136.271581 
L 673.149217 140.07467 
L 673.935422 251.342701 
L 674.721627 248.121296 
L 675.507832 281.180362 
L 676.294037 302.674942 
L 677.080242 300.262466 
L 678.652652 276.007134 
L 679.438857 291.856127 
L 680.225062 304.314551 
L 681.011267 322.247619 
L 681.797472 336.625898 
L 682.583677 322.976873 
L 683.369882 315.512817 
L 684.156087 344.564398 
L 684.942292 330.26058 
L 685.728497 312.574247 
L 686.514702 323.108179 
L 687.300907 331.15077 
L 688.873317 298.480368 
L 689.659522 257.212328 
L 690.445727 232.481798 
L 691.231932 253.627271 
L 692.018137 269.208205 
L 692.804342 291.752095 
L 693.590547 285.949725 
L 694.376752 260.104116 
L 695.162957 243.041593 
L 695.949162 196.377192 
L 696.735368 178.141992 
L 697.521573 182.668521 
L 698.307778 199.890628 
L 699.093983 223.732591 
L 699.880188 261.446363 
L 700.666393 241.012624 
L 701.452598 215.728186 
L 702.238803 320.353723 
L 703.025008 310.35562 
L 703.811213 323.333937 
L 704.597418 280.350495 
L 705.383623 266.207043 
L 706.169828 271.540087 
L 706.956033 315.730279 
L 707.742238 240.952949 
L 708.528443 188.757087 
L 709.314648 145.353863 
L 710.100853 128.814672 
L 710.887058 127.156405 
L 711.673263 137.237777 
L 712.459468 77.725593 
L 713.245673 132.278293 
L 714.031878 128.604095 
L 714.818083 195.772098 
L 715.604288 207.754551 
L 716.390493 226.814018 
L 717.176698 221.32929 
L 717.962903 274.993925 
L 718.749108 247.877844 
L 719.535313 245.386948 
L 720.321518 167.425143 
L 721.107723 255.27785 
L 721.893928 242.81342 
L 722.680133 200.711282 
L 723.466338 147.245499 
L 724.252544 221.990253 
L 725.038749 240.182487 
L 725.824954 243.736436 
L 726.611159 192.884502 
L 727.397364 175.273334 
L 728.183569 185.940098 
L 728.969774 179.322 
L 729.755979 135.249632 
L 730.542184 165.434381 
L 731.328389 184.246127 
L 732.900799 243.512078 
L 733.687004 234.050064 
L 734.473209 234.691838 
L 735.259414 245.245994 
L 736.045619 283.91191 
L 736.831824 287.917907 
L 738.404234 212.985224 
L 739.190439 256.548708 
L 739.976644 276.54586 
L 740.762849 279.134725 
L 741.549054 268.707897 
L 742.335259 245.780219 
L 743.121464 247.906943 
L 744.693874 255.158143 
L 745.480079 256.574832 
L 746.266284 235.65222 
L 747.052489 229.066407 
L 747.838694 261.485776 
L 748.624899 274.600962 
L 749.411104 284.53121 
L 750.197309 279.460914 
L 750.983515 280.49649 
L 751.76972 266.015782 
L 752.555925 279.30444 
L 753.34213 285.620368 
L 754.128335 286.718768 
L 754.91454 281.790314 
L 755.700745 275.066744 
L 756.48695 285.518141 
L 757.273155 269.897176 
L 758.05936 287.404523 
L 758.845565 285.526881 
L 759.63177 266.302529 
L 761.20418 287.567294 
L 761.990385 296.296963 
L 763.562795 281.027713 
L 764.349 266.255641 
L 765.135205 248.298534 
L 765.92141 247.673256 
L 766.707615 206.616217 
L 767.49382 208.14197 
L 768.280025 228.021994 
L 769.06623 237.705275 
L 769.852435 182.759448 
L 770.63864 169.639858 
L 771.424845 166.195659 
L 772.997255 237.964497 
L 773.78346 260.380056 
L 774.569665 220.261572 
L 775.35587 215.769 
L 776.142075 234.712149 
L 776.92828 264.215981 
L 777.714485 257.944198 
L 778.500691 256.038047 
L 779.286896 248.154992 
L 780.073101 244.934117 
L 780.859306 263.870622 
L 781.645511 289.223011 
L 782.431716 297.024218 
L 783.217921 269.178845 
L 784.004126 249.140599 
L 784.790331 237.232028 
L 785.576536 255.147317 
L 786.362741 270.263319 
L 787.148946 260.600503 
L 787.935151 266.088707 
L 788.721356 262.538843 
L 789.507561 232.585985 
L 790.293766 215.140901 
L 791.079971 226.933116 
L 791.866176 280.975078 
L 792.652381 285.672452 
L 793.438586 287.32898 
L 794.224791 283.913687 
L 795.010996 276.699012 
L 795.797201 268.256592 
L 796.583406 277.461314 
L 797.369611 301.846813 
L 798.155816 315.437564 
L 798.942021 302.580934 
L 799.728226 308.382821 
L 800.514431 290.888 
L 802.086841 278.397871 
L 802.873046 261.590698 
L 803.659251 256.789021 
L 804.445456 256.136556 
L 805.231662 257.581329 
L 806.017867 248.942723 
L 806.804072 247.829517 
L 807.590277 186.007046 
L 809.162687 215.977751 
L 809.948892 243.301376 
L 810.735097 235.516153 
L 811.521302 238.523775 
L 812.307507 171.048213 
L 813.093712 166.972487 
L 813.879917 175.336776 
L 814.666122 191.866444 
L 815.452327 212.910898 
L 816.238532 236.938849 
L 817.024737 268.148252 
L 817.810942 257.563598 
L 818.597147 281.213508 
L 819.383352 261.385549 
L 820.169557 235.778707 
L 820.955762 178.953375 
L 821.741967 144.696444 
L 822.528172 144.161078 
L 823.314377 162.661112 
L 824.100582 139.004558 
L 824.886787 178.026293 
L 825.672992 194.906053 
L 826.459197 193.363756 
L 828.817812 202.053722 
L 829.604017 166.713853 
L 830.390222 99.376608 
L 831.176427 84.184359 
L 832.748838 137.203453 
L 833.535043 131.810261 
L 834.321248 114.534535 
L 835.107453 106.131595 
L 835.893658 105.821853 
L 836.679863 87.738318 
L 837.466068 115.79927 
L 838.252273 126.554054 
L 839.038478 142.107985 
L 839.824683 171.934153 
L 840.610888 159.871271 
L 841.397093 170.230244 
L 842.183298 182.949734 
L 842.969503 214.965054 
L 843.755708 266.489734 
L 844.541913 294.535562 
L 845.328118 282.530838 
L 846.114323 276.234264 
L 846.900528 277.291542 
L 847.686733 290.372085 
L 848.472938 290.45829 
L 849.259143 280.973147 
L 850.045348 265.359628 
L 850.831553 226.413087 
L 851.617758 240.263322 
L 852.403963 250.395725 
L 853.190168 242.194457 
L 853.976373 200.813402 
L 854.762578 239.348408 
L 855.548783 246.567467 
L 857.121193 302.90439 
L 857.907398 314.964124 
L 858.693603 260.047773 
L 859.479809 257.540477 
L 860.266014 232.066709 
L 861.052219 201.297447 
L 861.838424 212.601774 
L 862.624629 237.361026 
L 863.410834 320.527021 
L 864.197039 354.052652 
L 864.983244 336.468033 
L 865.769449 355.055547 
L 866.555654 316.482122 
L 867.341859 323.754009 
L 868.128064 327.926776 
L 868.914269 317.331711 
L 869.700474 345.383739 
L 870.486679 337.069052 
L 871.272884 349.18538 
L 872.059089 344.699065 
L 872.845294 326.295512 
L 873.631499 301.059227 
L 874.417704 300.114143 
L 875.203909 298.752551 
L 875.990114 292.544471 
L 876.776319 322.616911 
L 878.348729 348.944149 
L 879.134934 342.15623 
L 879.921139 363.953733 
L 880.707344 392.438987 
L 881.493549 383.911753 
L 882.279754 384.107959 
L 883.065959 380.639895 
L 883.852164 372.244759 
L 884.638369 359.774013 
L 885.424574 336.849107 
L 886.210779 336.647937 
L 886.996985 283.851472 
L 887.78319 279.545351 
L 888.569395 250.732122 
L 889.3556 211.98314 
L 890.141805 210.458941 
L 890.92801 228.226419 
L 891.714215 280.360423 
L 892.50042 257.248814 
L 893.286625 321.128832 
L 894.07283 346.293321 
L 894.859035 360.725239 
L 895.64524 329.481126 
L 896.431445 264.509807 
L 897.21765 254.215232 
L 898.003855 266.553378 
L 898.79006 213.848661 
L 899.576265 247.532408 
L 900.36247 293.111224 
L 901.148675 312.675498 
L 901.93488 236.447291 
L 902.721085 233.734228 
L 903.50729 145.540199 
L 904.293495 125.979092 
L 905.0797 147.845687 
L 905.865905 158.678351 
L 906.65211 234.776392 
L 907.438315 281.561707 
L 908.22452 300.957918 
L 909.010725 289.679222 
L 909.79693 309.074216 
L 910.583135 339.791617 
L 911.36934 344.337983 
L 912.155545 324.753273 
L 912.94175 319.038923 
L 913.727956 311.210637 
L 914.514161 335.815327 
L 915.300366 308.170371 
L 916.086571 265.949617 
L 916.872776 279.502529 
L 917.658981 267.212922 
L 918.445186 221.776268 
L 919.231391 222.230025 
L 920.803801 267.283327 
L 921.590006 253.131888 
L 922.376211 234.994308 
L 923.162416 225.896188 
L 923.948621 234.017257 
L 924.734826 215.441874 
L 925.521031 216.882456 
L 926.307236 243.765477 
L 927.093441 234.425952 
L 928.665851 328.604264 
L 929.452056 318.235035 
L 930.238261 340.674081 
L 931.024466 328.580738 
L 931.810671 307.276994 
L 933.383081 282.177221 
L 934.955491 214.757664 
L 935.741696 215.715593 
L 936.527901 227.353246 
L 937.314106 245.151879 
L 938.100311 212.571004 
L 938.886516 260.63444 
L 939.672721 257.407761 
L 940.458926 215.40135 
L 941.245132 232.671127 
L 942.031337 247.014639 
L 942.817542 189.493971 
L 943.603747 195.019531 
L 944.389952 182.993368 
L 945.176157 196.995093 
L 945.962362 207.05825 
L 947.534772 160.155652 
L 948.320977 156.241344 
L 949.107182 155.529745 
L 950.679592 176.431844 
L 951.465797 264.343038 
L 952.252002 278.572608 
L 953.038207 250.147386 
L 953.824412 216.372278 
L 954.610617 147.516185 
L 955.396822 103.383823 
L 956.183027 92.017262 
L 956.969232 218.316317 
L 957.755437 215.571751 
L 958.541642 220.812332 
L 959.327847 187.835375 
L 960.114052 182.489641 
L 960.900257 216.829957 
L 961.686462 225.736314 
L 964.045077 139.281 
L 964.831282 172.692824 
L 965.617487 146.194644 
L 966.403692 149.7024 
L 967.189897 158.615769 
L 967.976103 187.509447 
L 969.548513 268.043292 
L 970.334718 289.987998 
L 971.120923 286.051768 
L 971.907128 243.600098 
L 972.693333 148.221874 
L 973.479538 134.16707 
L 974.265743 171.422063 
L 975.051948 181.110443 
L 975.838153 186.076436 
L 977.410563 249.053091 
L 978.196768 250.490563 
L 978.982973 276.061256 
L 979.769178 280.78571 
L 980.555383 259.133844 
L 981.341588 224.177502 
L 982.127793 217.935668 
L 982.913998 238.40091 
L 983.700203 295.255795 
L 984.486408 284.483646 
L 985.272613 266.565354 
L 986.058818 268.430083 
L 986.845023 275.813999 
L 987.631228 270.579058 
L 988.417433 235.931231 
L 989.203638 281.734898 
L 989.989843 282.389633 
L 990.776048 279.771535 
L 991.562253 254.212692 
L 992.348458 244.734724 
L 993.134663 254.913214 
L 993.920868 280.961847 
L 994.707074 336.580024 
L 995.493279 367.144234 
L 996.279484 329.905969 
L 997.065689 342.809612 
L 997.851894 341.819137 
L 998.638099 356.397485 
L 999.424304 362.625509 
L 1000.210509 347.607774 
L 1000.996714 276.280544 
L 1001.782919 250.68335 
L 1002.569124 343.748225 
L 1003.355329 372.342186 
L 1004.141534 338.763902 
L 1004.927739 314.155909 
L 1005.713944 320.500327 
L 1006.500149 313.334405 
L 1007.286354 320.623154 
L 1008.072559 300.175682 
L 1008.858764 287.277679 
L 1009.644969 266.330594 
L 1010.431174 307.577195 
L 1011.217379 289.500091 
L 1012.003584 329.579963 
L 1012.789789 338.754013 
L 1014.362199 331.907973 
L 1015.148404 339.116254 
L 1015.934609 326.396821 
L 1016.720814 308.130639 
L 1017.507019 300.412547 
L 1018.293224 214.614189 
L 1019.865634 117.563829 
L 1020.651839 93.488169 
L 1021.438044 45.629091 
L 1022.22425 56.413621 
L 1023.010455 93.309405 
L 1023.010455 93.309405 
" clip-path="url(#pc1542c413c)" style="fill: none; stroke: #008000; stroke-width: 1.5; stroke-linecap: square"/>
   </g>
   <g id="line2d_34">
    <path d="M 53.03 207.794669 
L 1069.2 207.794669 
" clip-path="url(#pc1542c413c)" style="fill: none; stroke-dasharray: 3.7,1.6; stroke-dashoffset: 0; stroke: #000000"/>
   </g>
   <g id="patch_5">
    <path d="M 53.03 462.04 
L 53.03 25.8 
" style="fill: none; stroke: #000000; stroke-width: 0.8; stroke-linejoin: miter; stroke-linecap: square"/>
   </g>
   <g id="patch_6">
    <path d="M 1069.2 462.04 
L 1069.2 25.8 
" style="fill: none; stroke: #000000; stroke-width: 0.8; stroke-linejoin: miter; stroke-linecap: square"/>
   </g>
   <g id="patch_7">
    <path d="M 53.03 462.04 
L 1069.2 462.04 
" style="fill: none; stroke: #000000; stroke-width: 0.8; stroke-linejoin: miter; stroke-linecap: square"/>
   </g>
   <g id="patch_8">
    <path d="M 53.03 25.8 
L 1069.2 25.8 
" style="fill: none; stroke: #000000; stroke-width: 0.8; stroke-linejoin: miter; stroke-linecap: square"/>
   </g>
   <g id="text_19">
    <!-- NO2 Análisis de Residuales (Real - Predicho) -->
    <g transform="translate(428.585312 19.8) scale(0.12 -0.12)">
     <defs>
      <path id="DejaVuSans-41" d="M 2188 4044 
L 1331 1722 
L 3047 1722 
L 2188 4044 
z
M 1831 4666 
L 2547 4666 
L 4325 0 
L 3669 0 
L 3244 1197 
L 1141 1197 
L 716 0 
L 50 0 
L 1831 4666 
z
" transform="scale(0.015625)"/>
      <path id="DejaVuSans-6e" d="M 3513 2113 
L 3513 0 
L 2938 0 
L 2938 2094 
Q 2938 2591 2744 2837 
Q 2550 3084 2163 3084 
Q 1697 3084 1428 2787 
Q 1159 2491 1159 1978 
L 1159 0 
L 581 0 
L 581 3500 
L 1159 3500 
L 1159 2956 
Q 1366 3272 1645 3428 
Q 1925 3584 2291 3584 
Q 2894 3584 3203 3211 
Q 3513 2838 3513 2113 
z
" transform="scale(0.015625)"/>
      <path id="DejaVuSans-e1" d="M 2194 1759 
Q 1497 1759 1228 1600 
Q 959 1441 959 1056 
Q 959 750 1161 570 
Q 1363 391 1709 391 
Q 2188 391 2477 730 
Q 2766 1069 2766 1631 
L 2766 1759 
L 2194 1759 
z
M 3341 1997 
L 3341 0 
L 2766 0 
L 2766 531 
Q 2569 213 2275 61 
Q 1981 -91 1556 -91 
Q 1019 -91 701 211 
Q 384 513 384 1019 
Q 384 1609 779 1909 
Q 1175 2209 1959 2209 
L 2766 2209 
L 2766 2266 
Q 2766 2663 2505 2880 
Q 2244 3097 1772 3097 
Q 1472 3097 1187 3025 
Q 903 2953 641 2809 
L 641 3341 
Q 956 3463 1253 3523 
Q 1550 3584 1831 3584 
Q 2591 3584 2966 3190 
Q 3341 2797 3341 1997 
z
M 2291 5119 
L 2913 5119 
L 1894 3944 
L 1416 3944 
L 2291 5119 
z
" transform="scale(0.015625)"/>
      <path id="DejaVuSans-28" d="M 1984 4856 
Q 1566 4138 1362 3434 
Q 1159 2731 1159 2009 
Q 1159 1288 1364 580 
Q 1569 -128 1984 -844 
L 1484 -844 
Q 1016 -109 783 600 
Q 550 1309 550 2009 
Q 550 2706 781 3412 
Q 1013 4119 1484 4856 
L 1984 4856 
z
" transform="scale(0.015625)"/>
      <path id="DejaVuSans-50" d="M 1259 4147 
L 1259 2394 
L 2053 2394 
Q 2494 2394 2734 2622 
Q 2975 2850 2975 3272 
Q 2975 3691 2734 3919 
Q 2494 4147 2053 4147 
L 1259 4147 
z
M 628 4666 
L 2053 4666 
Q 2838 4666 3239 4311 
Q 3641 3956 3641 3272 
Q 3641 2581 3239 2228 
Q 2838 1875 2053 1875 
L 1259 1875 
L 1259 0 
L 628 0 
L 628 4666 
z
" transform="scale(0.015625)"/>
      <path id="DejaVuSans-72" d="M 2631 2963 
Q 2534 3019 2420 3045 
Q 2306 3072 2169 3072 
Q 1681 3072 1420 2755 
Q 1159 2438 1159 1844 
L 1159 0 
L 581 0 
L 581 3500 
L 1159 3500 
L 1159 2956 
Q 1341 3275 1631 3429 
Q 1922 3584 2338 3584 
Q 2397 3584 2469 3576 
Q 2541 3569 2628 3553 
L 2631 2963 
z
" transform="scale(0.015625)"/>
      <path id="DejaVuSans-6f" d="M 1959 3097 
Q 1497 3097 1228 2736 
Q 959 2375 959 1747 
Q 959 1119 1226 758 
Q 1494 397 1959 397 
Q 2419 397 2687 759 
Q 2956 1122 2956 1747 
Q 2956 2369 2687 2733 
Q 2419 3097 1959 3097 
z
M 1959 3584 
Q 2709 3584 3137 3096 
Q 3566 2609 3566 1747 
Q 3566 888 3137 398 
Q 2709 -91 1959 -91 
Q 1206 -91 779 398 
Q 353 888 353 1747 
Q 353 2609 779 3096 
Q 1206 3584 1959 3584 
z
" transform="scale(0.015625)"/>
      <path id="DejaVuSans-29" d="M 513 4856 
L 1013 4856 
Q 1481 4119 1714 3412 
Q 1947 2706 1947 2009 
Q 1947 1309 1714 600 
Q 1481 -109 1013 -844 
L 513 -844 
Q 928 -128 1133 580 
Q 1338 1288 1338 2009 
Q 1338 2731 1133 3434 
Q 928 4138 513 4856 
z
" transform="scale(0.015625)"/>
     </defs>
     <use xlink:href="#DejaVuSans-4e"/>
     <use xlink:href="#DejaVuSans-4f" transform="translate(74.804688 0)"/>
     <use xlink:href="#DejaVuSans-32" transform="translate(153.515625 0)"/>
     <use xlink:href="#DejaVuSans-20" transform="translate(217.138672 0)"/>
     <use xlink:href="#DejaVuSans-41" transform="translate(248.925781 0)"/>
     <use xlink:href="#DejaVuSans-6e" transform="translate(317.333984 0)"/>
     <use xlink:href="#DejaVuSans-e1" transform="translate(380.712891 0)"/>
     <use xlink:href="#DejaVuSans-6c" transform="translate(441.992188 0)"/>
     <use xlink:href="#DejaVuSans-69" transform="translate(469.775391 0)"/>
     <use xlink:href="#DejaVuSans-73" transform="translate(497.558594 0)"/>
     <use xlink:href="#DejaVuSans-69" transform="translate(549.658203 0)"/>
     <use xlink:href="#DejaVuSans-73" transform="translate(577.441406 0)"/>
     <use xlink:href="#DejaVuSans-20" transform="translate(629.541016 0)"/>
     <use xlink:href="#DejaVuSans-64" transform="translate(661.328125 0)"/>
     <use xlink:href="#DejaVuSans-65" transform="translate(724.804688 0)"/>
     <use xlink:href="#DejaVuSans-20" transform="translate(786.328125 0)"/>
     <use xlink:href="#DejaVuSans-52" transform="translate(818.115234 0)"/>
     <use xlink:href="#DejaVuSans-65" transform="translate(883.097656 0)"/>
     <use xlink:href="#DejaVuSans-73" transform="translate(944.621094 0)"/>
     <use xlink:href="#DejaVuSans-69" transform="translate(996.720703 0)"/>
     <use xlink:href="#DejaVuSans-64" transform="translate(1024.503906 0)"/>
     <use xlink:href="#DejaVuSans-75" transform="translate(1087.980469 0)"/>
     <use xlink:href="#DejaVuSans-61" transform="translate(1151.359375 0)"/>
     <use xlink:href="#DejaVuSans-6c" transform="translate(1212.638672 0)"/>
     <use xlink:href="#DejaVuSans-65" transform="translate(1240.421875 0)"/>
     <use xlink:href="#DejaVuSans-73" transform="translate(1301.945312 0)"/>
     <use xlink:href="#DejaVuSans-20" transform="translate(1354.044922 0)"/>
     <use xlink:href="#DejaVuSans-28" transform="translate(1385.832031 0)"/>
     <use xlink:href="#DejaVuSans-52" transform="translate(1424.845703 0)"/>
     <use xlink:href="#DejaVuSans-65" transform="translate(1489.828125 0)"/>
     <use xlink:href="#DejaVuSans-61" transform="translate(1551.351562 0)"/>
     <use xlink:href="#DejaVuSans-6c" transform="translate(1612.630859 0)"/>
     <use xlink:href="#DejaVuSans-20" transform="translate(1640.414062 0)"/>
     <use xlink:href="#DejaVuSans-2d" transform="translate(1672.201172 0)"/>
     <use xlink:href="#DejaVuSans-20" transform="translate(1708.285156 0)"/>
     <use xlink:href="#DejaVuSans-50" transform="translate(1740.072266 0)"/>
     <use xlink:href="#DejaVuSans-72" transform="translate(1798.625 0)"/>
     <use xlink:href="#DejaVuSans-65" transform="translate(1837.488281 0)"/>
     <use xlink:href="#DejaVuSans-64" transform="translate(1899.011719 0)"/>
     <use xlink:href="#DejaVuSans-69" transform="translate(1962.488281 0)"/>
     <use xlink:href="#DejaVuSans-63" transform="translate(1990.271484 0)"/>
     <use xlink:href="#DejaVuSans-68" transform="translate(2045.251953 0)"/>
     <use xlink:href="#DejaVuSans-6f" transform="translate(2108.630859 0)"/>
     <use xlink:href="#DejaVuSans-29" transform="translate(2169.8125 0)"/>
    </g>
   </g>
   <g id="legend_1">
    <g id="patch_9">
     <path d="M 60.03 77.834375 
L 219.739375 77.834375 
Q 221.739375 77.834375 221.739375 75.834375 
L 221.739375 32.8 
Q 221.739375 30.8 219.739375 30.8 
L 60.03 30.8 
Q 58.03 30.8 58.03 32.8 
L 58.03 75.834375 
Q 58.03 77.834375 60.03 77.834375 
z
" style="fill: #ffffff; opacity: 0.8; stroke: #cccccc; stroke-linejoin: miter"/>
    </g>
    <g id="line2d_35">
     <path d="M 62.03 38.898437 
L 72.03 38.898437 
L 82.03 38.898437 
" style="fill: none; stroke: #008000; stroke-width: 1.5; stroke-linecap: square"/>
    </g>
    <g id="text_20">
     <!-- Residual (Real - Predicho) -->
     <g transform="translate(90.03 42.398437) scale(0.1 -0.1)">
      <use xlink:href="#DejaVuSans-52"/>
      <use xlink:href="#DejaVuSans-65" transform="translate(64.982422 0)"/>
      <use xlink:href="#DejaVuSans-73" transform="translate(126.505859 0)"/>
      <use xlink:href="#DejaVuSans-69" transform="translate(178.605469 0)"/>
      <use xlink:href="#DejaVuSans-64" transform="translate(206.388672 0)"/>
      <use xlink:href="#DejaVuSans-75" transform="translate(269.865234 0)"/>
      <use xlink:href="#DejaVuSans-61" transform="translate(333.244141 0)"/>
      <use xlink:href="#DejaVuSans-6c" transform="translate(394.523438 0)"/>
      <use xlink:href="#DejaVuSans-20" transform="translate(422.306641 0)"/>
      <use xlink:href="#DejaVuSans-28" transform="translate(454.09375 0)"/>
      <use xlink:href="#DejaVuSans-52" transform="translate(493.107422 0)"/>
      <use xlink:href="#DejaVuSans-65" transform="translate(558.089844 0)"/>
      <use xlink:href="#DejaVuSans-61" transform="translate(619.613281 0)"/>
      <use xlink:href="#DejaVuSans-6c" transform="translate(680.892578 0)"/>
      <use xlink:href="#DejaVuSans-20" transform="translate(708.675781 0)"/>
      <use xlink:href="#DejaVuSans-2d" transform="translate(740.462891 0)"/>
      <use xlink:href="#DejaVuSans-20" transform="translate(776.546875 0)"/>
      <use xlink:href="#DejaVuSans-50" transform="translate(808.333984 0)"/>
      <use xlink:href="#DejaVuSans-72" transform="translate(866.886719 0)"/>
      <use xlink:href="#DejaVuSans-65" transform="translate(905.75 0)"/>
      <use xlink:href="#DejaVuSans-64" transform="translate(967.273438 0)"/>
      <use xlink:href="#DejaVuSans-69" transform="translate(1030.75 0)"/>
      <use xlink:href="#DejaVuSans-63" transform="translate(1058.533203 0)"/>
      <use xlink:href="#DejaVuSans-68" transform="translate(1113.513672 0)"/>
      <use xlink:href="#DejaVuSans-6f" transform="translate(1176.892578 0)"/>
      <use xlink:href="#DejaVuSans-29" transform="translate(1238.074219 0)"/>
     </g>
    </g>
    <g id="patch_10">
     <path d="M 62.03 57.076562 
L 82.03 57.076562 
L 82.03 50.076562 
L 62.03 50.076562 
z
" style="fill: #ffa500; opacity: 0.3; stroke: #ffa500; stroke-linejoin: miter"/>
    </g>
    <g id="text_21">
     <!-- Período 1 (Estricto) -->
     <g transform="translate(90.03 57.076562) scale(0.1 -0.1)">
      <defs>
       <path id="DejaVuSans-ed" d="M 1325 5119 
L 1947 5119 
L 928 3944 
L 450 3944 
L 1325 5119 
z
M 603 3500 
L 1178 3500 
L 1178 0 
L 603 0 
L 603 3500 
z
M 891 3584 
L 891 3584 
z
" transform="scale(0.015625)"/>
       <path id="DejaVuSans-45" d="M 628 4666 
L 3578 4666 
L 3578 4134 
L 1259 4134 
L 1259 2753 
L 3481 2753 
L 3481 2222 
L 1259 2222 
L 1259 531 
L 3634 531 
L 3634 0 
L 628 0 
L 628 4666 
z
" transform="scale(0.015625)"/>
       <path id="DejaVuSans-74" d="M 1172 4494 
L 1172 3500 
L 2356 3500 
L 2356 3053 
L 1172 3053 
L 1172 1153 
Q 1172 725 1289 603 
Q 1406 481 1766 481 
L 2356 481 
L 2356 0 
L 1766 0 
Q 1100 0 847 248 
Q 594 497 594 1153 
L 594 3053 
L 172 3053 
L 172 3500 
L 594 3500 
L 594 4494 
L 1172 4494 
z
" transform="scale(0.015625)"/>
      </defs>
      <use xlink:href="#DejaVuSans-50"/>
      <use xlink:href="#DejaVuSans-65" transform="translate(56.677734 0)"/>
      <use xlink:href="#DejaVuSans-72" transform="translate(118.201172 0)"/>
      <use xlink:href="#DejaVuSans-ed" transform="translate(159.314453 0)"/>
      <use xlink:href="#DejaVuSans-6f" transform="translate(187.097656 0)"/>
      <use xlink:href="#DejaVuSans-64" transform="translate(248.279297 0)"/>
      <use xlink:href="#DejaVuSans-6f" transform="translate(311.755859 0)"/>
      <use xlink:href="#DejaVuSans-20" transform="translate(372.9375 0)"/>
      <use xlink:href="#DejaVuSans-31" transform="translate(404.724609 0)"/>
      <use xlink:href="#DejaVuSans-20" transform="translate(468.347656 0)"/>
      <use xlink:href="#DejaVuSans-28" transform="translate(500.134766 0)"/>
      <use xlink:href="#DejaVuSans-45" transform="translate(539.148438 0)"/>
      <use xlink:href="#DejaVuSans-73" transform="translate(602.332031 0)"/>
      <use xlink:href="#DejaVuSans-74" transform="translate(654.431641 0)"/>
      <use xlink:href="#DejaVuSans-72" transform="translate(693.640625 0)"/>
      <use xlink:href="#DejaVuSans-69" transform="translate(734.753906 0)"/>
      <use xlink:href="#DejaVuSans-63" transform="translate(762.537109 0)"/>
      <use xlink:href="#DejaVuSans-74" transform="translate(817.517578 0)"/>
      <use xlink:href="#DejaVuSans-6f" transform="translate(856.726562 0)"/>
      <use xlink:href="#DejaVuSans-29" transform="translate(917.908203 0)"/>
     </g>
    </g>
    <g id="patch_11">
     <path d="M 62.03 71.754687 
L 82.03 71.754687 
L 82.03 64.754687 
L 62.03 64.754687 
z
" style="fill: #ffff00; opacity: 0.3; stroke: #ffff00; stroke-linejoin: miter"/>
    </g>
    <g id="text_22">
     <!-- Período 2 (Extendido) -->
     <g transform="translate(90.03 71.754687) scale(0.1 -0.1)">
      <defs>
       <path id="DejaVuSans-78" d="M 3513 3500 
L 2247 1797 
L 3578 0 
L 2900 0 
L 1881 1375 
L 863 0 
L 184 0 
L 1544 1831 
L 300 3500 
L 978 3500 
L 1906 2253 
L 2834 3500 
L 3513 3500 
z
" transform="scale(0.015625)"/>
      </defs>
      <use xlink:href="#DejaVuSans-50"/>
      <use xlink:href="#DejaVuSans-65" transform="translate(56.677734 0)"/>
      <use xlink:href="#DejaVuSans-72" transform="translate(118.201172 0)"/>
      <use xlink:href="#DejaVuSans-ed" transform="translate(159.314453 0)"/>
      <use xlink:href="#DejaVuSans-6f" transform="translate(187.097656 0)"/>
      <use xlink:href="#DejaVuSans-64" transform="translate(248.279297 0)"/>
      <use xlink:href="#DejaVuSans-6f" transform="translate(311.755859 0)"/>
      <use xlink:href="#DejaVuSans-20" transform="translate(372.9375 0)"/>
      <use xlink:href="#DejaVuSans-32" transform="translate(404.724609 0)"/>
      <use xlink:href="#DejaVuSans-20" transform="translate(468.347656 0)"/>
      <use xlink:href="#DejaVuSans-28" transform="translate(500.134766 0)"/>
      <use xlink:href="#DejaVuSans-45" transform="translate(539.148438 0)"/>
      <use xlink:href="#DejaVuSans-78" transform="translate(602.332031 0)"/>
      <use xlink:href="#DejaVuSans-74" transform="translate(661.511719 0)"/>
      <use xlink:href="#DejaVuSans-65" transform="translate(700.720703 0)"/>
      <use xlink:href="#DejaVuSans-6e" transform="translate(762.244141 0)"/>
      <use xlink:href="#DejaVuSans-64" transform="translate(825.623047 0)"/>
      <use xlink:href="#DejaVuSans-69" transform="translate(889.099609 0)"/>
      <use xlink:href="#DejaVuSans-64" transform="translate(916.882812 0)"/>
      <use xlink:href="#DejaVuSans-6f" transform="translate(980.359375 0)"/>
      <use xlink:href="#DejaVuSans-29" transform="translate(1041.541016 0)"/>
     </g>
    </g>
   </g>
  </g>
 </g>
 <defs>
  <clipPath id="pc1542c413c">
   <rect x="53.03" y="25.8" width="1016.17" height="436.24"/>
  </clipPath>
 </defs>
</svg>
