<?xml version="1.0" encoding="utf-8" standalone="no"?>
<!DOCTYPE svg PUBLIC "-//W3C//DTD SVG 1.1//EN"
  "http://www.w3.org/Graphics/SVG/1.1/DTD/svg11.dtd">
<svg xmlns:xlink="http://www.w3.org/1999/xlink" width="1080pt" height="504pt" viewBox="0 0 1080 504" xmlns="http://www.w3.org/2000/svg" version="1.1">
 <metadata>
  <rdf:RDF xmlns:dc="http://purl.org/dc/elements/1.1/" xmlns:cc="http://creativecommons.org/ns#" xmlns:rdf="http://www.w3.org/1999/02/22-rdf-syntax-ns#">
   <cc:Work>
    <dc:type rdf:resource="http://purl.org/dc/dcmitype/StillImage"/>
    <dc:date>2025-11-11T15:11:00.364165</dc:date>
    <dc:format>image/svg+xml</dc:format>
    <dc:creator>
     <cc:Agent>
      <dc:title>Matplotlib v3.10.7, https://matplotlib.org/</dc:title>
     </cc:Agent>
    </dc:creator>
   </cc:Work>
  </rdf:RDF>
 </metadata>
 <defs>
  <style type="text/css">*{stroke-linejoin: round; stroke-linecap: butt}</style>
 </defs>
 <g id="figure_1">
  <g id="patch_1">
   <path d="M 0 504 
L 1080 504 
L 1080 0 
L 0 0 
z
" style="fill: #ffffff"/>
  </g>
  <g id="axes_1">
   <g id="patch_2">
    <path d="M 53.03 462.04 
L 1069.2 462.04 
L 1069.2 25.8 
L 53.03 25.8 
z
" style="fill: #ffffff"/>
   </g>
   <g id="patch_3">
    <path d="M 99.219545 462.04 
L 494.680675 462.04 
L 494.680675 25.8 
L 99.219545 25.8 
z
" clip-path="url(#paf717f2c4c)" style="fill: #ffa500; opacity: 0.3; stroke: #ffa500; stroke-linejoin: miter"/>
   </g>
   <g id="patch_4">
    <path d="M 494.680675 462.04 
L 1023.010455 462.04 
L 1023.010455 25.8 
L 494.680675 25.8 
z
" clip-path="url(#paf717f2c4c)" style="fill: #ffff00; opacity: 0.3; stroke: #ffff00; stroke-linejoin: miter"/>
   </g>
   <g id="matplotlib.axis_1">
    <g id="xtick_1">
     <g id="line2d_1">
      <path d="M 80.350625 462.04 
L 80.350625 25.8 
" clip-path="url(#paf717f2c4c)" style="fill: none; stroke-dasharray: 2.96,1.28; stroke-dashoffset: 0; stroke: #b0b0b0; stroke-opacity: 0.5; stroke-width: 0.8"/>
     </g>
     <g id="line2d_2">
      <defs>
       <path id="m0328247193" d="M 0 0 
L 0 3.5 
" style="stroke: #000000; stroke-width: 0.8"/>
      </defs>
      <g>
       <use xlink:href="#m0328247193" x="80.350625" y="462.04" style="stroke: #000000; stroke-width: 0.8"/>
      </g>
     </g>
     <g id="text_1">
      <!-- 2020-03-22 -->
      <g transform="translate(51.292812 476.638438) scale(0.1 -0.1)">
       <defs>
        <path id="DejaVuSans-32" d="M 1228 531 
L 3431 531 
L 3431 0 
L 469 0 
L 469 531 
Q 828 903 1448 1529 
Q 2069 2156 2228 2338 
Q 2531 2678 2651 2914 
Q 2772 3150 2772 3378 
Q 2772 3750 2511 3984 
Q 2250 4219 1831 4219 
Q 1534 4219 1204 4116 
Q 875 4013 500 3803 
L 500 4441 
Q 881 4594 1212 4672 
Q 1544 4750 1819 4750 
Q 2544 4750 2975 4387 
Q 3406 4025 3406 3419 
Q 3406 3131 3298 2873 
Q 3191 2616 2906 2266 
Q 2828 2175 2409 1742 
Q 1991 1309 1228 531 
z
" transform="scale(0.015625)"/>
        <path id="DejaVuSans-30" d="M 2034 4250 
Q 1547 4250 1301 3770 
Q 1056 3291 1056 2328 
Q 1056 1369 1301 889 
Q 1547 409 2034 409 
Q 2525 409 2770 889 
Q 3016 1369 3016 2328 
Q 3016 3291 2770 3770 
Q 2525 4250 2034 4250 
z
M 2034 4750 
Q 2819 4750 3233 4129 
Q 3647 3509 3647 2328 
Q 3647 1150 3233 529 
Q 2819 -91 2034 -91 
Q 1250 -91 836 529 
Q 422 1150 422 2328 
Q 422 3509 836 4129 
Q 1250 4750 2034 4750 
z
" transform="scale(0.015625)"/>
        <path id="DejaVuSans-2d" d="M 313 2009 
L 1997 2009 
L 1997 1497 
L 313 1497 
L 313 2009 
z
" transform="scale(0.015625)"/>
        <path id="DejaVuSans-33" d="M 2597 2516 
Q 3050 2419 3304 2112 
Q 3559 1806 3559 1356 
Q 3559 666 3084 287 
Q 2609 -91 1734 -91 
Q 1441 -91 1130 -33 
Q 819 25 488 141 
L 488 750 
Q 750 597 1062 519 
Q 1375 441 1716 441 
Q 2309 441 2620 675 
Q 2931 909 2931 1356 
Q 2931 1769 2642 2001 
Q 2353 2234 1838 2234 
L 1294 2234 
L 1294 2753 
L 1863 2753 
Q 2328 2753 2575 2939 
Q 2822 3125 2822 3475 
Q 2822 3834 2567 4026 
Q 2313 4219 1838 4219 
Q 1578 4219 1281 4162 
Q 984 4106 628 3988 
L 628 4550 
Q 988 4650 1302 4700 
Q 1616 4750 1894 4750 
Q 2613 4750 3031 4423 
Q 3450 4097 3450 3541 
Q 3450 3153 3228 2886 
Q 3006 2619 2597 2516 
z
" transform="scale(0.015625)"/>
       </defs>
       <use xlink:href="#DejaVuSans-32"/>
       <use xlink:href="#DejaVuSans-30" transform="translate(63.623047 0)"/>
       <use xlink:href="#DejaVuSans-32" transform="translate(127.246094 0)"/>
       <use xlink:href="#DejaVuSans-30" transform="translate(190.869141 0)"/>
       <use xlink:href="#DejaVuSans-2d" transform="translate(254.492188 0)"/>
       <use xlink:href="#DejaVuSans-30" transform="translate(290.576172 0)"/>
       <use xlink:href="#DejaVuSans-33" transform="translate(354.199219 0)"/>
       <use xlink:href="#DejaVuSans-2d" transform="translate(417.822266 0)"/>
       <use xlink:href="#DejaVuSans-32" transform="translate(453.90625 0)"/>
       <use xlink:href="#DejaVuSans-32" transform="translate(517.529297 0)"/>
      </g>
     </g>
    </g>
    <g id="xtick_2">
     <g id="line2d_3">
      <path d="M 269.039832 462.04 
L 269.039832 25.8 
" clip-path="url(#paf717f2c4c)" style="fill: none; stroke-dasharray: 2.96,1.28; stroke-dashoffset: 0; stroke: #b0b0b0; stroke-opacity: 0.5; stroke-width: 0.8"/>
     </g>
     <g id="line2d_4">
      <g>
       <use xlink:href="#m0328247193" x="269.039832" y="462.04" style="stroke: #000000; stroke-width: 0.8"/>
      </g>
     </g>
     <g id="text_2">
      <!-- 2020-04-01 -->
      <g transform="translate(239.982019 476.638438) scale(0.1 -0.1)">
       <defs>
        <path id="DejaVuSans-34" d="M 2419 4116 
L 825 1625 
L 2419 1625 
L 2419 4116 
z
M 2253 4666 
L 3047 4666 
L 3047 1625 
L 3713 1625 
L 3713 1100 
L 3047 1100 
L 3047 0 
L 2419 0 
L 2419 1100 
L 313 1100 
L 313 1709 
L 2253 4666 
z
" transform="scale(0.015625)"/>
        <path id="DejaVuSans-31" d="M 794 531 
L 1825 531 
L 1825 4091 
L 703 3866 
L 703 4441 
L 1819 4666 
L 2450 4666 
L 2450 531 
L 3481 531 
L 3481 0 
L 794 0 
L 794 531 
z
" transform="scale(0.015625)"/>
       </defs>
       <use xlink:href="#DejaVuSans-32"/>
       <use xlink:href="#DejaVuSans-30" transform="translate(63.623047 0)"/>
       <use xlink:href="#DejaVuSans-32" transform="translate(127.246094 0)"/>
       <use xlink:href="#DejaVuSans-30" transform="translate(190.869141 0)"/>
       <use xlink:href="#DejaVuSans-2d" transform="translate(254.492188 0)"/>
       <use xlink:href="#DejaVuSans-30" transform="translate(290.576172 0)"/>
       <use xlink:href="#DejaVuSans-34" transform="translate(354.199219 0)"/>
       <use xlink:href="#DejaVuSans-2d" transform="translate(417.822266 0)"/>
       <use xlink:href="#DejaVuSans-30" transform="translate(453.90625 0)"/>
       <use xlink:href="#DejaVuSans-31" transform="translate(517.529297 0)"/>
      </g>
     </g>
    </g>
    <g id="xtick_3">
     <g id="line2d_5">
      <path d="M 401.122277 462.04 
L 401.122277 25.8 
" clip-path="url(#paf717f2c4c)" style="fill: none; stroke-dasharray: 2.96,1.28; stroke-dashoffset: 0; stroke: #b0b0b0; stroke-opacity: 0.5; stroke-width: 0.8"/>
     </g>
     <g id="line2d_6">
      <g>
       <use xlink:href="#m0328247193" x="401.122277" y="462.04" style="stroke: #000000; stroke-width: 0.8"/>
      </g>
     </g>
     <g id="text_3">
      <!-- 2020-04-08 -->
      <g transform="translate(372.064464 476.638438) scale(0.1 -0.1)">
       <defs>
        <path id="DejaVuSans-38" d="M 2034 2216 
Q 1584 2216 1326 1975 
Q 1069 1734 1069 1313 
Q 1069 891 1326 650 
Q 1584 409 2034 409 
Q 2484 409 2743 651 
Q 3003 894 3003 1313 
Q 3003 1734 2745 1975 
Q 2488 2216 2034 2216 
z
M 1403 2484 
Q 997 2584 770 2862 
Q 544 3141 544 3541 
Q 544 4100 942 4425 
Q 1341 4750 2034 4750 
Q 2731 4750 3128 4425 
Q 3525 4100 3525 3541 
Q 3525 3141 3298 2862 
Q 3072 2584 2669 2484 
Q 3125 2378 3379 2068 
Q 3634 1759 3634 1313 
Q 3634 634 3220 271 
Q 2806 -91 2034 -91 
Q 1263 -91 848 271 
Q 434 634 434 1313 
Q 434 1759 690 2068 
Q 947 2378 1403 2484 
z
M 1172 3481 
Q 1172 3119 1398 2916 
Q 1625 2713 2034 2713 
Q 2441 2713 2670 2916 
Q 2900 3119 2900 3481 
Q 2900 3844 2670 4047 
Q 2441 4250 2034 4250 
Q 1625 4250 1398 4047 
Q 1172 3844 1172 3481 
z
" transform="scale(0.015625)"/>
       </defs>
       <use xlink:href="#DejaVuSans-32"/>
       <use xlink:href="#DejaVuSans-30" transform="translate(63.623047 0)"/>
       <use xlink:href="#DejaVuSans-32" transform="translate(127.246094 0)"/>
       <use xlink:href="#DejaVuSans-30" transform="translate(190.869141 0)"/>
       <use xlink:href="#DejaVuSans-2d" transform="translate(254.492188 0)"/>
       <use xlink:href="#DejaVuSans-30" transform="translate(290.576172 0)"/>
       <use xlink:href="#DejaVuSans-34" transform="translate(354.199219 0)"/>
       <use xlink:href="#DejaVuSans-2d" transform="translate(417.822266 0)"/>
       <use xlink:href="#DejaVuSans-30" transform="translate(453.90625 0)"/>
       <use xlink:href="#DejaVuSans-38" transform="translate(517.529297 0)"/>
      </g>
     </g>
    </g>
    <g id="xtick_4">
     <g id="line2d_7">
      <path d="M 533.204721 462.04 
L 533.204721 25.8 
" clip-path="url(#paf717f2c4c)" style="fill: none; stroke-dasharray: 2.96,1.28; stroke-dashoffset: 0; stroke: #b0b0b0; stroke-opacity: 0.5; stroke-width: 0.8"/>
     </g>
     <g id="line2d_8">
      <g>
       <use xlink:href="#m0328247193" x="533.204721" y="462.04" style="stroke: #000000; stroke-width: 0.8"/>
      </g>
     </g>
     <g id="text_4">
      <!-- 2020-04-15 -->
      <g transform="translate(504.146909 476.638438) scale(0.1 -0.1)">
       <defs>
        <path id="DejaVuSans-35" d="M 691 4666 
L 3169 4666 
L 3169 4134 
L 1269 4134 
L 1269 2991 
Q 1406 3038 1543 3061 
Q 1681 3084 1819 3084 
Q 2600 3084 3056 2656 
Q 3513 2228 3513 1497 
Q 3513 744 3044 326 
Q 2575 -91 1722 -91 
Q 1428 -91 1123 -41 
Q 819 9 494 109 
L 494 744 
Q 775 591 1075 516 
Q 1375 441 1709 441 
Q 2250 441 2565 725 
Q 2881 1009 2881 1497 
Q 2881 1984 2565 2268 
Q 2250 2553 1709 2553 
Q 1456 2553 1204 2497 
Q 953 2441 691 2322 
L 691 4666 
z
" transform="scale(0.015625)"/>
       </defs>
       <use xlink:href="#DejaVuSans-32"/>
       <use xlink:href="#DejaVuSans-30" transform="translate(63.623047 0)"/>
       <use xlink:href="#DejaVuSans-32" transform="translate(127.246094 0)"/>
       <use xlink:href="#DejaVuSans-30" transform="translate(190.869141 0)"/>
       <use xlink:href="#DejaVuSans-2d" transform="translate(254.492188 0)"/>
       <use xlink:href="#DejaVuSans-30" transform="translate(290.576172 0)"/>
       <use xlink:href="#DejaVuSans-34" transform="translate(354.199219 0)"/>
       <use xlink:href="#DejaVuSans-2d" transform="translate(417.822266 0)"/>
       <use xlink:href="#DejaVuSans-31" transform="translate(453.90625 0)"/>
       <use xlink:href="#DejaVuSans-35" transform="translate(517.529297 0)"/>
      </g>
     </g>
    </g>
    <g id="xtick_5">
     <g id="line2d_9">
      <path d="M 665.287166 462.04 
L 665.287166 25.8 
" clip-path="url(#paf717f2c4c)" style="fill: none; stroke-dasharray: 2.96,1.28; stroke-dashoffset: 0; stroke: #b0b0b0; stroke-opacity: 0.5; stroke-width: 0.8"/>
     </g>
     <g id="line2d_10">
      <g>
       <use xlink:href="#m0328247193" x="665.287166" y="462.04" style="stroke: #000000; stroke-width: 0.8"/>
      </g>
     </g>
     <g id="text_5">
      <!-- 2020-04-22 -->
      <g transform="translate(636.229354 476.638438) scale(0.1 -0.1)">
       <use xlink:href="#DejaVuSans-32"/>
       <use xlink:href="#DejaVuSans-30" transform="translate(63.623047 0)"/>
       <use xlink:href="#DejaVuSans-32" transform="translate(127.246094 0)"/>
       <use xlink:href="#DejaVuSans-30" transform="translate(190.869141 0)"/>
       <use xlink:href="#DejaVuSans-2d" transform="translate(254.492188 0)"/>
       <use xlink:href="#DejaVuSans-30" transform="translate(290.576172 0)"/>
       <use xlink:href="#DejaVuSans-34" transform="translate(354.199219 0)"/>
       <use xlink:href="#DejaVuSans-2d" transform="translate(417.822266 0)"/>
       <use xlink:href="#DejaVuSans-32" transform="translate(453.90625 0)"/>
       <use xlink:href="#DejaVuSans-32" transform="translate(517.529297 0)"/>
      </g>
     </g>
    </g>
    <g id="xtick_6">
     <g id="line2d_11">
      <path d="M 835.107453 462.04 
L 835.107453 25.8 
" clip-path="url(#paf717f2c4c)" style="fill: none; stroke-dasharray: 2.96,1.28; stroke-dashoffset: 0; stroke: #b0b0b0; stroke-opacity: 0.5; stroke-width: 0.8"/>
     </g>
     <g id="line2d_12">
      <g>
       <use xlink:href="#m0328247193" x="835.107453" y="462.04" style="stroke: #000000; stroke-width: 0.8"/>
      </g>
     </g>
     <g id="text_6">
      <!-- 2020-05-01 -->
      <g transform="translate(806.04964 476.638438) scale(0.1 -0.1)">
       <use xlink:href="#DejaVuSans-32"/>
       <use xlink:href="#DejaVuSans-30" transform="translate(63.623047 0)"/>
       <use xlink:href="#DejaVuSans-32" transform="translate(127.246094 0)"/>
       <use xlink:href="#DejaVuSans-30" transform="translate(190.869141 0)"/>
       <use xlink:href="#DejaVuSans-2d" transform="translate(254.492188 0)"/>
       <use xlink:href="#DejaVuSans-30" transform="translate(290.576172 0)"/>
       <use xlink:href="#DejaVuSans-35" transform="translate(354.199219 0)"/>
       <use xlink:href="#DejaVuSans-2d" transform="translate(417.822266 0)"/>
       <use xlink:href="#DejaVuSans-30" transform="translate(453.90625 0)"/>
       <use xlink:href="#DejaVuSans-31" transform="translate(517.529297 0)"/>
      </g>
     </g>
    </g>
    <g id="xtick_7">
     <g id="line2d_13">
      <path d="M 967.189897 462.04 
L 967.189897 25.8 
" clip-path="url(#paf717f2c4c)" style="fill: none; stroke-dasharray: 2.96,1.28; stroke-dashoffset: 0; stroke: #b0b0b0; stroke-opacity: 0.5; stroke-width: 0.8"/>
     </g>
     <g id="line2d_14">
      <g>
       <use xlink:href="#m0328247193" x="967.189897" y="462.04" style="stroke: #000000; stroke-width: 0.8"/>
      </g>
     </g>
     <g id="text_7">
      <!-- 2020-05-08 -->
      <g transform="translate(938.132085 476.638438) scale(0.1 -0.1)">
       <use xlink:href="#DejaVuSans-32"/>
       <use xlink:href="#DejaVuSans-30" transform="translate(63.623047 0)"/>
       <use xlink:href="#DejaVuSans-32" transform="translate(127.246094 0)"/>
       <use xlink:href="#DejaVuSans-30" transform="translate(190.869141 0)"/>
       <use xlink:href="#DejaVuSans-2d" transform="translate(254.492188 0)"/>
       <use xlink:href="#DejaVuSans-30" transform="translate(290.576172 0)"/>
       <use xlink:href="#DejaVuSans-35" transform="translate(354.199219 0)"/>
       <use xlink:href="#DejaVuSans-2d" transform="translate(417.822266 0)"/>
       <use xlink:href="#DejaVuSans-30" transform="translate(453.90625 0)"/>
       <use xlink:href="#DejaVuSans-38" transform="translate(517.529297 0)"/>
      </g>
     </g>
    </g>
    <g id="text_8">
     <!-- Fecha -->
     <g transform="translate(546.455625 490.316563) scale(0.1 -0.1)">
      <defs>
       <path id="DejaVuSans-46" d="M 628 4666 
L 3309 4666 
L 3309 4134 
L 1259 4134 
L 1259 2759 
L 3109 2759 
L 3109 2228 
L 1259 2228 
L 1259 0 
L 628 0 
L 628 4666 
z
" transform="scale(0.015625)"/>
       <path id="DejaVuSans-65" d="M 3597 1894 
L 3597 1613 
L 953 1613 
Q 991 1019 1311 708 
Q 1631 397 2203 397 
Q 2534 397 2845 478 
Q 3156 559 3463 722 
L 3463 178 
Q 3153 47 2828 -22 
Q 2503 -91 2169 -91 
Q 1331 -91 842 396 
Q 353 884 353 1716 
Q 353 2575 817 3079 
Q 1281 3584 2069 3584 
Q 2775 3584 3186 3129 
Q 3597 2675 3597 1894 
z
M 3022 2063 
Q 3016 2534 2758 2815 
Q 2500 3097 2075 3097 
Q 1594 3097 1305 2825 
Q 1016 2553 972 2059 
L 3022 2063 
z
" transform="scale(0.015625)"/>
       <path id="DejaVuSans-63" d="M 3122 3366 
L 3122 2828 
Q 2878 2963 2633 3030 
Q 2388 3097 2138 3097 
Q 1578 3097 1268 2742 
Q 959 2388 959 1747 
Q 959 1106 1268 751 
Q 1578 397 2138 397 
Q 2388 397 2633 464 
Q 2878 531 3122 666 
L 3122 134 
Q 2881 22 2623 -34 
Q 2366 -91 2075 -91 
Q 1284 -91 818 406 
Q 353 903 353 1747 
Q 353 2603 823 3093 
Q 1294 3584 2113 3584 
Q 2378 3584 2631 3529 
Q 2884 3475 3122 3366 
z
" transform="scale(0.015625)"/>
       <path id="DejaVuSans-68" d="M 3513 2113 
L 3513 0 
L 2938 0 
L 2938 2094 
Q 2938 2591 2744 2837 
Q 2550 3084 2163 3084 
Q 1697 3084 1428 2787 
Q 1159 2491 1159 1978 
L 1159 0 
L 581 0 
L 581 4863 
L 1159 4863 
L 1159 2956 
Q 1366 3272 1645 3428 
Q 1925 3584 2291 3584 
Q 2894 3584 3203 3211 
Q 3513 2838 3513 2113 
z
" transform="scale(0.015625)"/>
       <path id="DejaVuSans-61" d="M 2194 1759 
Q 1497 1759 1228 1600 
Q 959 1441 959 1056 
Q 959 750 1161 570 
Q 1363 391 1709 391 
Q 2188 391 2477 730 
Q 2766 1069 2766 1631 
L 2766 1759 
L 2194 1759 
z
M 3341 1997 
L 3341 0 
L 2766 0 
L 2766 531 
Q 2569 213 2275 61 
Q 1981 -91 1556 -91 
Q 1019 -91 701 211 
Q 384 513 384 1019 
Q 384 1609 779 1909 
Q 1175 2209 1959 2209 
L 2766 2209 
L 2766 2266 
Q 2766 2663 2505 2880 
Q 2244 3097 1772 3097 
Q 1472 3097 1187 3025 
Q 903 2953 641 2809 
L 641 3341 
Q 956 3463 1253 3523 
Q 1550 3584 1831 3584 
Q 2591 3584 2966 3190 
Q 3341 2797 3341 1997 
z
" transform="scale(0.015625)"/>
      </defs>
      <use xlink:href="#DejaVuSans-46"/>
      <use xlink:href="#DejaVuSans-65" transform="translate(52.019531 0)"/>
      <use xlink:href="#DejaVuSans-63" transform="translate(113.542969 0)"/>
      <use xlink:href="#DejaVuSans-68" transform="translate(168.523438 0)"/>
      <use xlink:href="#DejaVuSans-61" transform="translate(231.902344 0)"/>
     </g>
    </g>
   </g>
   <g id="matplotlib.axis_2">
    <g id="ytick_1">
     <g id="line2d_15">
      <path d="M 53.03 391.020869 
L 1069.2 391.020869 
" clip-path="url(#paf717f2c4c)" style="fill: none; stroke-dasharray: 2.96,1.28; stroke-dashoffset: 0; stroke: #b0b0b0; stroke-opacity: 0.5; stroke-width: 0.8"/>
     </g>
     <g id="line2d_16">
      <defs>
       <path id="mf6a452c0e0" d="M 0 0 
L -3.5 0 
" style="stroke: #000000; stroke-width: 0.8"/>
      </defs>
      <g>
       <use xlink:href="#mf6a452c0e0" x="53.03" y="391.020869" style="stroke: #000000; stroke-width: 0.8"/>
      </g>
     </g>
     <g id="text_9">
      <!-- −20 -->
      <g transform="translate(24.925312 394.820088) scale(0.1 -0.1)">
       <defs>
        <path id="DejaVuSans-2212" d="M 678 2272 
L 4684 2272 
L 4684 1741 
L 678 1741 
L 678 2272 
z
" transform="scale(0.015625)"/>
       </defs>
       <use xlink:href="#DejaVuSans-2212"/>
       <use xlink:href="#DejaVuSans-32" transform="translate(83.789062 0)"/>
       <use xlink:href="#DejaVuSans-30" transform="translate(147.412109 0)"/>
      </g>
     </g>
    </g>
    <g id="ytick_2">
     <g id="line2d_17">
      <path d="M 53.03 304.164666 
L 1069.2 304.164666 
" clip-path="url(#paf717f2c4c)" style="fill: none; stroke-dasharray: 2.96,1.28; stroke-dashoffset: 0; stroke: #b0b0b0; stroke-opacity: 0.5; stroke-width: 0.8"/>
     </g>
     <g id="line2d_18">
      <g>
       <use xlink:href="#mf6a452c0e0" x="53.03" y="304.164666" style="stroke: #000000; stroke-width: 0.8"/>
      </g>
     </g>
     <g id="text_10">
      <!-- −10 -->
      <g transform="translate(24.925312 307.963885) scale(0.1 -0.1)">
       <use xlink:href="#DejaVuSans-2212"/>
       <use xlink:href="#DejaVuSans-31" transform="translate(83.789062 0)"/>
       <use xlink:href="#DejaVuSans-30" transform="translate(147.412109 0)"/>
      </g>
     </g>
    </g>
    <g id="ytick_3">
     <g id="line2d_19">
      <path d="M 53.03 217.308463 
L 1069.2 217.308463 
" clip-path="url(#paf717f2c4c)" style="fill: none; stroke-dasharray: 2.96,1.28; stroke-dashoffset: 0; stroke: #b0b0b0; stroke-opacity: 0.5; stroke-width: 0.8"/>
     </g>
     <g id="line2d_20">
      <g>
       <use xlink:href="#mf6a452c0e0" x="53.03" y="217.308463" style="stroke: #000000; stroke-width: 0.8"/>
      </g>
     </g>
     <g id="text_11">
      <!-- 0 -->
      <g transform="translate(39.6675 221.107682) scale(0.1 -0.1)">
       <use xlink:href="#DejaVuSans-30"/>
      </g>
     </g>
    </g>
    <g id="ytick_4">
     <g id="line2d_21">
      <path d="M 53.03 130.452261 
L 1069.2 130.452261 
" clip-path="url(#paf717f2c4c)" style="fill: none; stroke-dasharray: 2.96,1.28; stroke-dashoffset: 0; stroke: #b0b0b0; stroke-opacity: 0.5; stroke-width: 0.8"/>
     </g>
     <g id="line2d_22">
      <g>
       <use xlink:href="#mf6a452c0e0" x="53.03" y="130.452261" style="stroke: #000000; stroke-width: 0.8"/>
      </g>
     </g>
     <g id="text_12">
      <!-- 10 -->
      <g transform="translate(33.305 134.251479) scale(0.1 -0.1)">
       <use xlink:href="#DejaVuSans-31"/>
       <use xlink:href="#DejaVuSans-30" transform="translate(63.623047 0)"/>
      </g>
     </g>
    </g>
    <g id="ytick_5">
     <g id="line2d_23">
      <path d="M 53.03 43.596058 
L 1069.2 43.596058 
" clip-path="url(#paf717f2c4c)" style="fill: none; stroke-dasharray: 2.96,1.28; stroke-dashoffset: 0; stroke: #b0b0b0; stroke-opacity: 0.5; stroke-width: 0.8"/>
     </g>
     <g id="line2d_24">
      <g>
       <use xlink:href="#mf6a452c0e0" x="53.03" y="43.596058" style="stroke: #000000; stroke-width: 0.8"/>
      </g>
     </g>
     <g id="text_13">
      <!-- 20 -->
      <g transform="translate(33.305 47.395276) scale(0.1 -0.1)">
       <use xlink:href="#DejaVuSans-32"/>
       <use xlink:href="#DejaVuSans-30" transform="translate(63.623047 0)"/>
      </g>
     </g>
    </g>
    <g id="text_14">
     <!-- Nivel Residual de NO2 -->
     <g transform="translate(18.845625 299.466094) rotate(-90) scale(0.1 -0.1)">
      <defs>
       <path id="DejaVuSans-4e" d="M 628 4666 
L 1478 4666 
L 3547 763 
L 3547 4666 
L 4159 4666 
L 4159 0 
L 3309 0 
L 1241 3903 
L 1241 0 
L 628 0 
L 628 4666 
z
" transform="scale(0.015625)"/>
       <path id="DejaVuSans-69" d="M 603 3500 
L 1178 3500 
L 1178 0 
L 603 0 
L 603 3500 
z
M 603 4863 
L 1178 4863 
L 1178 4134 
L 603 4134 
L 603 4863 
z
" transform="scale(0.015625)"/>
       <path id="DejaVuSans-76" d="M 191 3500 
L 800 3500 
L 1894 563 
L 2988 3500 
L 3597 3500 
L 2284 0 
L 1503 0 
L 191 3500 
z
" transform="scale(0.015625)"/>
       <path id="DejaVuSans-6c" d="M 603 4863 
L 1178 4863 
L 1178 0 
L 603 0 
L 603 4863 
z
" transform="scale(0.015625)"/>
       <path id="DejaVuSans-20" transform="scale(0.015625)"/>
       <path id="DejaVuSans-52" d="M 2841 2188 
Q 3044 2119 3236 1894 
Q 3428 1669 3622 1275 
L 4263 0 
L 3584 0 
L 2988 1197 
Q 2756 1666 2539 1819 
Q 2322 1972 1947 1972 
L 1259 1972 
L 1259 0 
L 628 0 
L 628 4666 
L 2053 4666 
Q 2853 4666 3247 4331 
Q 3641 3997 3641 3322 
Q 3641 2881 3436 2590 
Q 3231 2300 2841 2188 
z
M 1259 4147 
L 1259 2491 
L 2053 2491 
Q 2509 2491 2742 2702 
Q 2975 2913 2975 3322 
Q 2975 3731 2742 3939 
Q 2509 4147 2053 4147 
L 1259 4147 
z
" transform="scale(0.015625)"/>
       <path id="DejaVuSans-73" d="M 2834 3397 
L 2834 2853 
Q 2591 2978 2328 3040 
Q 2066 3103 1784 3103 
Q 1356 3103 1142 2972 
Q 928 2841 928 2578 
Q 928 2378 1081 2264 
Q 1234 2150 1697 2047 
L 1894 2003 
Q 2506 1872 2764 1633 
Q 3022 1394 3022 966 
Q 3022 478 2636 193 
Q 2250 -91 1575 -91 
Q 1294 -91 989 -36 
Q 684 19 347 128 
L 347 722 
Q 666 556 975 473 
Q 1284 391 1588 391 
Q 1994 391 2212 530 
Q 2431 669 2431 922 
Q 2431 1156 2273 1281 
Q 2116 1406 1581 1522 
L 1381 1569 
Q 847 1681 609 1914 
Q 372 2147 372 2553 
Q 372 3047 722 3315 
Q 1072 3584 1716 3584 
Q 2034 3584 2315 3537 
Q 2597 3491 2834 3397 
z
" transform="scale(0.015625)"/>
       <path id="DejaVuSans-64" d="M 2906 2969 
L 2906 4863 
L 3481 4863 
L 3481 0 
L 2906 0 
L 2906 525 
Q 2725 213 2448 61 
Q 2172 -91 1784 -91 
Q 1150 -91 751 415 
Q 353 922 353 1747 
Q 353 2572 751 3078 
Q 1150 3584 1784 3584 
Q 2172 3584 2448 3432 
Q 2725 3281 2906 2969 
z
M 947 1747 
Q 947 1113 1208 752 
Q 1469 391 1925 391 
Q 2381 391 2643 752 
Q 2906 1113 2906 1747 
Q 2906 2381 2643 2742 
Q 2381 3103 1925 3103 
Q 1469 3103 1208 2742 
Q 947 2381 947 1747 
z
" transform="scale(0.015625)"/>
       <path id="DejaVuSans-75" d="M 544 1381 
L 544 3500 
L 1119 3500 
L 1119 1403 
Q 1119 906 1312 657 
Q 1506 409 1894 409 
Q 2359 409 2629 706 
Q 2900 1003 2900 1516 
L 2900 3500 
L 3475 3500 
L 3475 0 
L 2900 0 
L 2900 538 
Q 2691 219 2414 64 
Q 2138 -91 1772 -91 
Q 1169 -91 856 284 
Q 544 659 544 1381 
z
M 1991 3584 
L 1991 3584 
z
" transform="scale(0.015625)"/>
       <path id="DejaVuSans-4f" d="M 2522 4238 
Q 1834 4238 1429 3725 
Q 1025 3213 1025 2328 
Q 1025 1447 1429 934 
Q 1834 422 2522 422 
Q 3209 422 3611 934 
Q 4013 1447 4013 2328 
Q 4013 3213 3611 3725 
Q 3209 4238 2522 4238 
z
M 2522 4750 
Q 3503 4750 4090 4092 
Q 4678 3434 4678 2328 
Q 4678 1225 4090 567 
Q 3503 -91 2522 -91 
Q 1538 -91 948 565 
Q 359 1222 359 2328 
Q 359 3434 948 4092 
Q 1538 4750 2522 4750 
z
" transform="scale(0.015625)"/>
      </defs>
      <use xlink:href="#DejaVuSans-4e"/>
      <use xlink:href="#DejaVuSans-69" transform="translate(74.804688 0)"/>
      <use xlink:href="#DejaVuSans-76" transform="translate(102.587891 0)"/>
      <use xlink:href="#DejaVuSans-65" transform="translate(161.767578 0)"/>
      <use xlink:href="#DejaVuSans-6c" transform="translate(223.291016 0)"/>
      <use xlink:href="#DejaVuSans-20" transform="translate(251.074219 0)"/>
      <use xlink:href="#DejaVuSans-52" transform="translate(282.861328 0)"/>
      <use xlink:href="#DejaVuSans-65" transform="translate(347.84375 0)"/>
      <use xlink:href="#DejaVuSans-73" transform="translate(409.367188 0)"/>
      <use xlink:href="#DejaVuSans-69" transform="translate(461.466797 0)"/>
      <use xlink:href="#DejaVuSans-64" transform="translate(489.25 0)"/>
      <use xlink:href="#DejaVuSans-75" transform="translate(552.726562 0)"/>
      <use xlink:href="#DejaVuSans-61" transform="translate(616.105469 0)"/>
      <use xlink:href="#DejaVuSans-6c" transform="translate(677.384766 0)"/>
      <use xlink:href="#DejaVuSans-20" transform="translate(705.167969 0)"/>
      <use xlink:href="#DejaVuSans-64" transform="translate(736.955078 0)"/>
      <use xlink:href="#DejaVuSans-65" transform="translate(800.431641 0)"/>
      <use xlink:href="#DejaVuSans-20" transform="translate(861.955078 0)"/>
      <use xlink:href="#DejaVuSans-4e" transform="translate(893.742188 0)"/>
      <use xlink:href="#DejaVuSans-4f" transform="translate(968.546875 0)"/>
      <use xlink:href="#DejaVuSans-32" transform="translate(1047.257812 0)"/>
     </g>
    </g>
   </g>
   <g id="line2d_25">
    <path d="M 99.219545 348.541515 
L 100.00575 322.377353 
L 100.791956 300.907956 
L 101.578161 268.448456 
L 102.364366 268.583365 
L 103.150571 274.827091 
L 103.936776 266.105339 
L 104.722981 270.448787 
L 105.509186 283.398129 
L 106.295391 285.028902 
L 107.081596 289.798739 
L 107.867801 318.322676 
L 108.654006 323.476458 
L 109.440211 305.741177 
L 110.226416 319.514222 
L 112.585031 375.05099 
L 113.371236 389.708554 
L 114.157441 411.865908 
L 114.943646 403.520364 
L 115.729851 420.657587 
L 116.516056 394.53764 
L 117.302261 383.097723 
L 118.088466 383.755048 
L 118.874671 391.95247 
L 119.660876 384.041334 
L 120.447081 347.244325 
L 121.233286 350.478736 
L 122.019491 350.552788 
L 122.805696 342.78202 
L 123.591901 367.598464 
L 124.378106 374.431601 
L 125.164311 379.737091 
L 125.950516 400.505045 
L 126.736721 390.631308 
L 127.522926 388.473156 
L 128.309132 380.833346 
L 129.095337 387.915577 
L 129.881542 390.448381 
L 130.667747 411.666049 
L 131.453952 400.492935 
L 132.240157 374.894602 
L 133.026362 336.608512 
L 133.812567 421.238143 
L 134.598772 404.460182 
L 136.171182 442.210909 
L 136.957387 423.435856 
L 137.743592 422.565286 
L 138.529797 404.714445 
L 139.316002 395.867169 
L 140.102207 375.727036 
L 140.888412 369.815791 
L 142.460822 350.227538 
L 143.247027 325.046151 
L 144.033232 341.991384 
L 144.819437 366.089819 
L 145.605642 354.751437 
L 146.391847 330.304757 
L 147.178052 333.724565 
L 147.964257 345.688332 
L 148.750462 365.513039 
L 149.536667 377.795629 
L 150.322872 398.44061 
L 151.109077 373.842397 
L 151.895282 414.926536 
L 152.681487 439.539527 
L 153.467692 431.509509 
L 154.253897 392.996624 
L 155.040103 389.271181 
L 155.826308 387.200782 
L 156.612513 386.512361 
L 157.398718 367.542751 
L 158.184923 363.030664 
L 158.971128 348.222428 
L 159.757333 324.620955 
L 160.543538 322.542206 
L 161.329743 293.236554 
L 162.902153 286.585102 
L 163.688358 290.46569 
L 164.474563 311.293466 
L 165.260768 338.813795 
L 166.833178 320.325475 
L 167.619383 309.12158 
L 168.405588 285.498654 
L 169.191793 328.232652 
L 169.977998 343.752702 
L 170.764203 345.465844 
L 171.550408 352.377755 
L 172.336613 366.554807 
L 173.122818 336.300656 
L 173.909023 299.585568 
L 174.695228 317.367575 
L 175.481433 301.861491 
L 176.267638 296.088992 
L 177.053843 287.438037 
L 177.840048 271.438321 
L 178.626253 293.284837 
L 179.412458 263.491881 
L 180.198663 267.970885 
L 180.984868 288.046599 
L 181.771074 292.3385 
L 182.557279 303.972329 
L 183.343484 319.809561 
L 184.129689 305.711928 
L 184.915894 281.33559 
L 185.702099 277.532169 
L 186.488304 253.760939 
L 187.274509 267.516176 
L 188.060714 304.946987 
L 188.846919 305.757751 
L 189.633124 342.385335 
L 190.419329 353.82855 
L 191.205534 398.789202 
L 191.991739 380.731711 
L 192.777944 379.223198 
L 193.564149 305.770773 
L 194.350354 317.181384 
L 195.136559 340.019207 
L 195.922764 346.057865 
L 196.708969 302.423651 
L 197.495174 284.1003 
L 198.281379 270.564123 
L 199.067584 277.247374 
L 201.426199 337.793299 
L 202.212404 301.064609 
L 202.998609 303.245772 
L 203.784814 295.767734 
L 204.571019 295.668666 
L 205.357224 307.649 
L 206.143429 337.578033 
L 206.929634 317.524493 
L 207.715839 342.862036 
L 208.502044 372.898089 
L 209.28825 368.738985 
L 210.074455 390.30301 
L 210.86066 362.244385 
L 211.646865 323.674179 
L 212.43307 333.626889 
L 213.219275 348.886761 
L 214.00548 314.23306 
L 214.791685 292.01074 
L 215.57789 279.246463 
L 216.364095 275.421687 
L 217.1503 268.07566 
L 217.936505 269.250838 
L 218.72271 282.270737 
L 220.29512 305.316999 
L 221.86753 343.315727 
L 222.653735 344.220357 
L 223.43994 325.789457 
L 224.226145 342.343687 
L 225.01235 339.384677 
L 225.798555 345.293619 
L 226.58476 341.228728 
L 227.370965 356.284435 
L 228.15717 344.787561 
L 228.943375 303.773283 
L 229.72958 288.90433 
L 230.515785 340.664904 
L 231.30199 333.882228 
L 232.088195 335.943582 
L 232.8744 311.400486 
L 233.660605 280.409838 
L 234.44681 298.867137 
L 235.233015 279.247664 
L 236.019221 270.688877 
L 236.805426 237.606898 
L 237.591631 210.512601 
L 238.377836 223.383832 
L 239.164041 269.457903 
L 239.950246 275.025574 
L 240.736451 299.373807 
L 241.522656 303.604967 
L 242.308861 299.715259 
L 243.095066 300.08388 
L 243.881271 319.494814 
L 244.667476 330.012441 
L 245.453681 322.651711 
L 246.239886 298.474635 
L 247.026091 310.667964 
L 247.812296 300.719396 
L 248.598501 301.20815 
L 249.384706 288.401893 
L 250.170911 278.776662 
L 250.957116 280.581409 
L 251.743321 266.892115 
L 252.529526 257.940193 
L 253.315731 255.457909 
L 254.101936 267.409765 
L 254.888141 258.380079 
L 255.674346 257.435291 
L 256.460551 260.825453 
L 257.246756 260.01159 
L 258.032961 266.098605 
L 258.819166 284.529513 
L 259.605371 288.280585 
L 260.391576 281.679047 
L 261.177781 276.444967 
L 261.963986 291.66397 
L 262.750191 291.392379 
L 263.536397 294.552755 
L 264.322602 294.153361 
L 265.108807 279.858413 
L 265.895012 280.492562 
L 266.681217 284.501839 
L 267.467422 308.94325 
L 268.253627 283.947441 
L 269.039832 285.1038 
L 269.826037 272.773921 
L 270.612242 256.002959 
L 271.398447 249.885127 
L 272.184652 251.48618 
L 272.970857 244.13785 
L 273.757062 234.576391 
L 274.543267 247.374001 
L 275.329472 246.845446 
L 276.115677 248.494124 
L 276.901882 233.236182 
L 277.688087 227.561366 
L 278.474292 236.20837 
L 279.260497 241.83453 
L 280.046702 270.410609 
L 280.832907 277.298142 
L 281.619112 266.195444 
L 282.405317 267.360583 
L 283.191522 232.620106 
L 283.977727 249.178379 
L 285.550137 323.588663 
L 286.336342 314.126504 
L 287.122547 342.201016 
L 287.908752 305.358813 
L 288.694957 296.159333 
L 289.481162 281.580891 
L 290.267368 262.808327 
L 291.053573 255.367538 
L 291.839778 251.056851 
L 292.625983 230.41727 
L 293.412188 233.566273 
L 294.198393 241.846466 
L 295.770803 275.77443 
L 296.557008 272.471259 
L 297.343213 268.304344 
L 298.129418 249.441339 
L 298.915623 246.18134 
L 299.701828 241.502967 
L 301.274238 263.101732 
L 302.060443 264.615836 
L 302.846648 256.384088 
L 303.632853 249.681338 
L 304.419058 256.759046 
L 305.205263 253.726713 
L 305.991468 264.338952 
L 306.777673 284.735145 
L 307.563878 260.356745 
L 308.350083 251.236717 
L 309.136288 259.270322 
L 309.922493 261.667255 
L 310.708698 267.248585 
L 311.494903 278.148021 
L 312.281108 266.750869 
L 313.067313 271.410183 
L 314.639723 291.80703 
L 315.425928 298.050367 
L 316.212133 299.296499 
L 316.998338 135.952788 
L 317.784544 106.833791 
L 318.570749 186.717897 
L 319.356954 212.404413 
L 320.143159 220.136913 
L 321.715569 131.602473 
L 322.501774 114.999156 
L 323.287979 208.423366 
L 324.074184 242.032035 
L 324.860389 241.189181 
L 325.646594 245.575064 
L 327.219004 215.048212 
L 328.005209 246.791352 
L 328.791414 243.206891 
L 329.577619 250.583566 
L 330.363824 237.197606 
L 331.150029 165.460369 
L 332.722439 150.176376 
L 333.508644 214.304906 
L 334.294849 225.241517 
L 335.081054 229.538952 
L 335.867259 328.592733 
L 336.653464 316.248765 
L 338.225874 312.866083 
L 339.012079 322.870596 
L 339.798284 337.297562 
L 340.584489 319.931822 
L 341.370694 271.273294 
L 342.156899 282.081746 
L 342.943104 280.553022 
L 343.729309 289.512039 
L 344.515515 328.938335 
L 345.30172 323.806976 
L 346.087925 350.270628 
L 346.87413 332.314854 
L 347.660335 285.3629 
L 348.44654 275.58891 
L 349.232745 260.20169 
L 350.01895 282.525248 
L 350.805155 280.800608 
L 352.377565 344.09533 
L 353.16377 346.772047 
L 353.949975 336.099456 
L 354.73618 337.8564 
L 355.522385 344.664605 
L 356.30859 359.961504 
L 357.094795 352.947162 
L 357.881 359.993974 
L 358.667205 334.501451 
L 359.45341 318.943514 
L 360.239615 311.728685 
L 361.02582 298.0449 
L 361.812025 296.677898 
L 362.59823 294.850861 
L 364.17064 307.89218 
L 364.956845 258.848977 
L 365.74305 241.147036 
L 366.529255 262.425976 
L 367.31546 257.530797 
L 368.101665 255.177657 
L 368.88787 244.681285 
L 369.674075 218.647484 
L 370.46028 220.054561 
L 371.246485 238.526099 
L 372.032691 249.616232 
L 372.818896 240.52894 
L 373.605101 247.587373 
L 374.391306 253.281298 
L 375.177511 253.355731 
L 375.963716 246.951567 
L 376.749921 266.202998 
L 377.536126 262.777625 
L 378.322331 247.500391 
L 379.108536 243.613756 
L 379.894741 228.317669 
L 380.680946 261.020184 
L 381.467151 268.88384 
L 382.253356 291.630001 
L 383.039561 300.224654 
L 383.825766 292.437742 
L 385.398176 271.869986 
L 386.184381 279.620833 
L 386.970586 258.323479 
L 388.542996 198.790448 
L 389.329201 217.360996 
L 390.115406 217.573147 
L 390.901611 249.682216 
L 391.687816 271.247897 
L 392.474021 270.566293 
L 393.260226 270.760577 
L 394.046431 262.620152 
L 394.832636 263.63186 
L 395.618841 250.051069 
L 396.405046 271.865107 
L 397.191251 266.795649 
L 397.977456 242.57043 
L 398.763662 212.735097 
L 399.549867 209.203814 
L 400.336072 180.330862 
L 401.122277 212.3487 
L 401.908482 211.308605 
L 402.694687 257.994212 
L 403.480892 285.215367 
L 404.267097 296.242588 
L 405.053302 247.060624 
L 405.839507 206.049328 
L 406.625712 145.50236 
L 408.198122 112.245786 
L 408.984327 197.822757 
L 409.770532 230.740636 
L 410.556737 249.928104 
L 412.129147 214.536655 
L 412.915352 230.574748 
L 413.701557 190.471726 
L 414.487762 209.192665 
L 415.273967 209.446696 
L 416.060172 231.082933 
L 416.846377 267.23766 
L 418.418787 221.252104 
L 419.204992 206.953884 
L 419.991197 224.663545 
L 420.777402 163.499574 
L 421.563607 152.356843 
L 422.349812 153.260479 
L 423.136017 192.132601 
L 423.922222 209.542085 
L 424.708427 184.547767 
L 425.494632 179.240819 
L 426.280838 160.169541 
L 427.067043 161.412907 
L 427.853248 178.322223 
L 428.639453 228.203111 
L 429.425658 225.944194 
L 430.211863 240.284625 
L 430.998068 248.142699 
L 431.784273 258.034651 
L 432.570478 283.434252 
L 433.356683 300.7298 
L 434.142888 302.260388 
L 434.929093 303.035891 
L 435.715298 296.57116 
L 436.501503 304.976094 
L 437.287708 287.60593 
L 438.073913 214.232138 
L 438.860118 222.019796 
L 439.646323 208.901782 
L 440.432528 173.265032 
L 441.218733 175.881497 
L 442.004938 189.275426 
L 442.791143 207.848193 
L 443.577348 213.283896 
L 444.363553 202.192852 
L 445.149758 177.624227 
L 445.935963 190.203307 
L 446.722168 212.887128 
L 447.508373 315.294708 
L 448.294578 327.654928 
L 449.080783 311.674711 
L 449.866988 306.109773 
L 450.653193 307.975302 
L 451.439398 305.929563 
L 452.225603 306.417736 
L 453.011809 314.808083 
L 453.798014 329.143835 
L 454.584219 336.398183 
L 455.370424 335.703649 
L 456.156629 343.440075 
L 456.942834 337.825206 
L 457.729039 312.440539 
L 458.515244 306.679106 
L 459.301449 295.346332 
L 460.087654 279.132278 
L 460.873859 275.302756 
L 461.660064 274.117174 
L 462.446269 279.724332 
L 463.232474 292.367533 
L 464.018679 316.339036 
L 464.804884 333.708098 
L 465.591089 344.272674 
L 466.377294 334.370029 
L 467.163499 330.729092 
L 467.949704 338.240743 
L 468.735909 339.892971 
L 469.522114 342.16235 
L 470.308319 337.046331 
L 471.094524 329.174193 
L 471.880729 332.432725 
L 472.666934 312.502241 
L 473.453139 306.063553 
L 474.239344 282.521835 
L 475.025549 289.016701 
L 475.811754 304.676538 
L 476.597959 293.351194 
L 477.384164 262.188271 
L 478.170369 252.12122 
L 478.956574 234.414963 
L 479.742779 220.929554 
L 480.528985 256.046297 
L 482.101395 277.540684 
L 482.8876 267.756125 
L 483.673805 308.774429 
L 484.46001 333.711494 
L 485.246215 329.143942 
L 486.03242 340.422734 
L 486.818625 328.754257 
L 487.60483 313.115061 
L 488.391035 325.615161 
L 489.17724 288.580529 
L 489.963445 283.980657 
L 490.74965 236.832604 
L 491.535855 256.508726 
L 492.32206 278.998901 
L 493.108265 269.093406 
L 493.89447 262.101247 
L 494.680675 223.794449 
L 495.46688 233.511094 
L 496.253085 187.067698 
L 497.03929 191.950013 
L 497.825495 239.036587 
L 498.6117 266.530481 
L 499.397905 248.862551 
L 500.18411 247.084145 
L 500.970315 216.584457 
L 501.75652 210.167049 
L 502.542725 223.185092 
L 503.32893 218.766167 
L 504.115135 195.570027 
L 504.90134 136.407712 
L 505.687545 130.158611 
L 506.47375 160.208232 
L 507.259956 122.01262 
L 508.046161 107.153474 
L 509.618571 160.525986 
L 510.404776 202.846848 
L 511.190981 172.48639 
L 511.977186 208.27305 
L 512.763391 191.980562 
L 513.549596 231.112339 
L 514.335801 261.534375 
L 515.122006 264.228461 
L 515.908211 279.302872 
L 516.694416 274.846449 
L 517.480621 268.577749 
L 518.266826 269.756804 
L 519.839236 181.510075 
L 520.625441 170.678992 
L 522.197851 224.010286 
L 522.984056 222.792491 
L 523.770261 209.563307 
L 524.556466 212.600022 
L 525.342671 200.57312 
L 526.128876 208.272246 
L 526.915081 221.622821 
L 527.701286 238.585871 
L 528.487491 238.125869 
L 529.273696 183.241871 
L 530.059901 184.299178 
L 530.846106 197.818532 
L 531.632311 213.950549 
L 532.418516 265.267074 
L 533.990926 313.704737 
L 534.777132 317.887499 
L 535.563337 305.814748 
L 536.349542 311.965917 
L 537.135747 292.596159 
L 537.921952 268.765149 
L 538.708157 216.788822 
L 539.494362 205.481602 
L 540.280567 230.50294 
L 541.066772 267.868462 
L 541.852977 298.005488 
L 542.639182 291.522434 
L 543.425387 258.182209 
L 545.784002 281.093123 
L 546.570207 293.090752 
L 547.356412 284.083344 
L 548.142617 249.803218 
L 548.928822 226.217848 
L 549.715027 226.637063 
L 550.501232 232.93704 
L 551.287437 220.385559 
L 552.073642 215.639289 
L 552.859847 254.433689 
L 553.646052 262.920875 
L 554.432257 255.066695 
L 556.004667 288.100739 
L 556.790872 260.817194 
L 557.577077 251.447775 
L 558.363282 239.25143 
L 559.149487 221.366827 
L 559.935692 234.073734 
L 560.721897 251.638969 
L 561.508103 251.693009 
L 562.294308 225.877654 
L 563.080513 216.243138 
L 563.866718 236.763025 
L 564.652923 204.833802 
L 565.439128 216.615503 
L 566.225333 226.519441 
L 567.011538 227.923817 
L 567.797743 218.191193 
L 568.583948 228.70072 
L 569.370153 251.838032 
L 570.156358 207.866648 
L 570.942563 204.223144 
L 572.514973 254.553862 
L 574.087383 339.79879 
L 574.873588 328.819868 
L 576.445998 292.054799 
L 577.232203 280.316104 
L 578.018408 324.371795 
L 578.804613 380.603817 
L 579.590818 397.931389 
L 580.377023 397.074254 
L 581.163228 363.404289 
L 581.949433 358.27717 
L 582.735638 320.02635 
L 583.521843 347.159753 
L 584.308048 272.652869 
L 585.094253 233.460028 
L 585.880458 202.332342 
L 586.666663 225.045303 
L 587.452868 221.206214 
L 588.239074 201.409985 
L 589.025279 255.610424 
L 590.597689 282.453681 
L 591.383894 327.970073 
L 592.170099 302.934355 
L 592.956304 324.60795 
L 593.742509 331.020662 
L 595.314919 281.060686 
L 596.101124 266.258297 
L 596.887329 310.076374 
L 597.673534 328.151277 
L 598.459739 331.737031 
L 599.245944 332.538718 
L 600.032149 337.468347 
L 600.818354 337.976408 
L 601.604559 337.120947 
L 602.390764 345.856002 
L 603.176969 331.083731 
L 603.963174 273.357194 
L 605.535584 213.19384 
L 606.321789 177.840999 
L 607.107994 251.376688 
L 607.894199 313.766067 
L 608.680404 334.899014 
L 609.466609 279.426392 
L 610.252814 275.055319 
L 611.039019 259.279984 
L 612.611429 207.031684 
L 613.397634 218.798542 
L 614.183839 255.828891 
L 614.970044 254.451779 
L 615.75625 257.287071 
L 616.542455 277.960629 
L 617.32866 291.789395 
L 618.114865 296.343495 
L 618.90107 299.052234 
L 619.687275 303.805273 
L 620.47348 304.331574 
L 621.259685 284.065221 
L 622.04589 318.282974 
L 622.832095 305.329325 
L 623.6183 155.831386 
L 624.404505 81.222055 
L 625.19071 93.272399 
L 625.976915 85.481171 
L 626.76312 90.805166 
L 627.549325 117.975097 
L 628.33553 130.279803 
L 629.121735 100.116122 
L 629.90794 133.440055 
L 630.694145 144.204316 
L 632.266555 212.036297 
L 633.05276 194.644788 
L 633.838965 152.39179 
L 635.411375 81.057972 
L 636.19758 45.629091 
L 636.983785 77.895642 
L 638.556195 204.1505 
L 639.3424 247.746519 
L 640.128605 253.036055 
L 641.701015 165.812937 
L 643.273426 68.727828 
L 644.059631 97.000724 
L 644.845836 138.155901 
L 645.632041 123.72611 
L 646.418246 86.365143 
L 647.204451 88.481879 
L 647.990656 53.526601 
L 648.776861 173.795591 
L 649.563066 250.128542 
L 650.349271 234.258977 
L 651.135476 210.159184 
L 651.921681 182.629908 
L 652.707886 171.616035 
L 653.494091 184.451996 
L 654.280296 177.704872 
L 655.066501 217.105714 
L 655.852706 207.969344 
L 656.638911 217.526876 
L 657.425116 206.897218 
L 658.211321 191.891426 
L 658.997526 217.043192 
L 659.783731 248.749406 
L 660.569936 223.597598 
L 661.356141 220.977232 
L 662.142346 210.643766 
L 662.928551 203.34796 
L 663.714756 219.73351 
L 664.500961 212.709684 
L 665.287166 208.36815 
L 666.073371 190.506773 
L 666.859576 206.12415 
L 667.645781 198.948256 
L 668.431986 194.577813 
L 669.218191 202.28695 
L 670.004397 181.015324 
L 670.790602 150.133203 
L 671.576807 126.31027 
L 672.363012 96.50686 
L 673.149217 109.529948 
L 673.935422 196.121269 
L 674.721627 189.484611 
L 676.294037 225.728133 
L 677.080242 225.156622 
L 677.866447 209.194396 
L 678.652652 209.118654 
L 679.438857 228.600219 
L 680.225062 239.082104 
L 681.011267 262.464965 
L 681.797472 272.024386 
L 682.583677 261.085373 
L 683.369882 252.392496 
L 684.156087 268.789792 
L 684.942292 249.34006 
L 685.728497 244.650753 
L 686.514702 245.216706 
L 687.300907 248.000484 
L 688.087112 247.77016 
L 688.873317 244.548397 
L 690.445727 201.116659 
L 691.231932 211.407192 
L 692.804342 244.991526 
L 693.590547 237.061653 
L 694.376752 214.533648 
L 695.162957 202.748841 
L 695.949162 163.17497 
L 696.735368 158.073712 
L 697.521573 154.523079 
L 698.307778 169.822198 
L 699.093983 187.331255 
L 699.880188 216.892694 
L 700.666393 202.136708 
L 701.452598 184.457281 
L 702.238803 273.557632 
L 703.025008 262.628974 
L 703.811213 267.136919 
L 704.597418 212.117697 
L 705.383623 198.831744 
L 706.169828 204.611351 
L 706.956033 244.825997 
L 707.742238 186.751688 
L 708.528443 143.361611 
L 709.314648 108.292198 
L 710.100853 102.726034 
L 710.887058 90.619149 
L 711.673263 98.590421 
L 712.459468 53.045559 
L 713.245673 107.222076 
L 714.031878 105.51209 
L 714.818083 168.190231 
L 715.604288 186.667493 
L 716.390493 198.967014 
L 717.176698 191.487236 
L 717.962903 237.029829 
L 718.749108 205.058576 
L 719.535313 205.286896 
L 720.321518 138.414852 
L 721.107723 201.531385 
L 721.893928 208.946702 
L 722.680133 181.752898 
L 723.466338 130.327457 
L 724.252544 203.587884 
L 725.038749 199.914411 
L 725.824954 203.614747 
L 726.611159 169.286362 
L 727.397364 156.30088 
L 728.183569 175.895139 
L 728.969774 177.349388 
L 729.755979 143.9133 
L 730.542184 165.184297 
L 731.328389 181.892396 
L 732.114594 209.7285 
L 732.900799 227.041021 
L 733.687004 222.247378 
L 734.473209 223.406255 
L 735.259414 227.970832 
L 736.045619 258.704998 
L 736.831824 272.432584 
L 737.618029 240.733727 
L 738.404234 214.451487 
L 739.190439 248.758567 
L 739.976644 257.530201 
L 740.762849 255.837551 
L 742.335259 217.882804 
L 743.121464 209.05018 
L 743.907669 213.63067 
L 744.693874 222.689161 
L 745.480079 223.649447 
L 746.266284 209.844006 
L 747.052489 209.289678 
L 747.838694 234.767772 
L 749.411104 261.868066 
L 750.197309 263.072757 
L 750.983515 265.482819 
L 751.76972 254.717995 
L 752.555925 268.081599 
L 753.34213 277.569891 
L 754.128335 279.542324 
L 754.91454 276.758091 
L 755.700745 268.544243 
L 756.48695 273.44865 
L 757.273155 256.366114 
L 758.05936 265.505093 
L 758.845565 260.701668 
L 759.63177 250.363132 
L 760.417975 250.497938 
L 761.20418 258.67905 
L 761.990385 255.897923 
L 762.77659 247.234999 
L 763.562795 246.672939 
L 764.349 229.425384 
L 765.135205 218.450244 
L 765.92141 219.841673 
L 766.707615 193.238921 
L 767.49382 187.833104 
L 768.280025 211.578995 
L 769.06623 226.199666 
L 769.852435 176.206391 
L 770.63864 177.343035 
L 771.424845 167.493253 
L 772.21105 202.618512 
L 772.997255 232.476127 
L 773.78346 240.567432 
L 774.569665 198.264693 
L 775.35587 186.914632 
L 776.142075 201.293771 
L 776.92828 236.915321 
L 777.714485 225.848945 
L 778.500691 234.690249 
L 779.286896 218.33832 
L 780.073101 223.553697 
L 780.859306 259.058544 
L 781.645511 275.493015 
L 782.431716 270.34344 
L 784.004126 219.825773 
L 784.790331 203.462422 
L 785.576536 226.745325 
L 786.362741 243.084423 
L 787.148946 234.931109 
L 787.935151 237.006412 
L 788.721356 228.596765 
L 789.507561 202.533551 
L 790.293766 185.262653 
L 791.079971 198.877149 
L 791.866176 237.819405 
L 792.652381 247.805612 
L 793.438586 243.771684 
L 794.224791 242.895333 
L 795.010996 236.453099 
L 795.797201 235.970732 
L 796.583406 234.182179 
L 797.369611 263.575285 
L 798.155816 282.949019 
L 798.942021 274.811435 
L 799.728226 269.440914 
L 800.514431 259.079318 
L 801.300636 265.930322 
L 802.086841 269.050698 
L 802.873046 263.003501 
L 803.659251 259.170575 
L 804.445456 261.749507 
L 805.231662 256.888712 
L 806.804072 241.773929 
L 807.590277 195.133483 
L 808.376482 201.957591 
L 809.162687 216.087736 
L 809.948892 247.76707 
L 810.735097 249.305842 
L 811.521302 263.432201 
L 812.307507 205.952389 
L 813.093712 192.991069 
L 813.879917 198.648929 
L 814.666122 217.697909 
L 816.238532 264.53104 
L 817.024737 301.430017 
L 817.810942 299.795002 
L 818.597147 308.532707 
L 819.383352 289.279595 
L 820.169557 265.206225 
L 820.955762 216.096077 
L 821.741967 192.233698 
L 822.528172 198.315793 
L 823.314377 211.548505 
L 824.100582 188.486288 
L 824.886787 214.545767 
L 825.672992 221.690238 
L 826.459197 210.479982 
L 827.245402 224.387447 
L 828.031607 232.154919 
L 828.817812 229.460426 
L 829.604017 205.730629 
L 830.390222 141.562488 
L 831.176427 126.258831 
L 831.962632 146.424211 
L 832.748838 174.643713 
L 833.535043 188.737387 
L 834.321248 164.731128 
L 835.107453 152.995564 
L 835.893658 148.721472 
L 836.679863 130.63146 
L 838.252273 149.134972 
L 839.038478 157.354394 
L 839.824683 178.788256 
L 840.610888 192.846775 
L 841.397093 212.098446 
L 842.183298 225.535241 
L 842.969503 264.257776 
L 843.755708 329.050971 
L 844.541913 352.041554 
L 845.328118 328.727692 
L 846.114323 323.757774 
L 847.686733 328.88794 
L 848.472938 342.241323 
L 849.259143 323.578027 
L 850.045348 324.720255 
L 850.831553 286.515639 
L 851.617758 280.442142 
L 852.403963 289.434127 
L 853.190168 275.081088 
L 853.976373 243.224907 
L 854.762578 276.499463 
L 855.548783 272.369681 
L 857.121193 318.313738 
L 857.907398 342.537333 
L 858.693603 293.301478 
L 859.479809 279.694082 
L 860.266014 269.357742 
L 861.052219 257.506378 
L 861.838424 259.868198 
L 862.624629 277.196664 
L 863.410834 347.034245 
L 864.197039 364.432257 
L 864.983244 347.483181 
L 865.769449 363.074333 
L 866.555654 323.687018 
L 867.341859 322.111742 
L 868.128064 325.125455 
L 868.914269 324.132243 
L 869.700474 356.285147 
L 870.486679 351.837538 
L 871.272884 356.003914 
L 872.059089 357.434184 
L 872.845294 318.875757 
L 873.631499 303.004 
L 874.417704 291.209178 
L 875.203909 281.802874 
L 875.990114 267.047509 
L 876.776319 275.739665 
L 877.562524 294.171526 
L 878.348729 306.530612 
L 879.134934 305.908788 
L 880.707344 358.263122 
L 881.493549 356.859955 
L 882.279754 361.726698 
L 883.852164 347.485881 
L 884.638369 335.790822 
L 885.424574 320.166387 
L 886.210779 323.994045 
L 886.996985 282.799225 
L 887.78319 271.450025 
L 888.569395 246.498962 
L 889.3556 230.022014 
L 890.141805 226.903038 
L 890.92801 236.493902 
L 891.714215 281.636753 
L 892.50042 247.150572 
L 893.286625 282.68364 
L 894.07283 305.592997 
L 894.859035 310.817195 
L 895.64524 284.437503 
L 896.431445 217.289718 
L 897.21765 230.298642 
L 898.003855 235.216972 
L 898.79006 186.653867 
L 899.576265 214.491545 
L 900.36247 256.29043 
L 901.148675 272.030085 
L 901.93488 206.291787 
L 902.721085 204.158451 
L 903.50729 143.492304 
L 904.293495 127.106655 
L 905.0797 142.173561 
L 905.865905 133.847682 
L 906.65211 187.833336 
L 907.438315 227.682343 
L 908.22452 239.574726 
L 909.010725 240.08171 
L 909.79693 261.021128 
L 910.583135 291.53688 
L 911.36934 298.664967 
L 912.155545 282.562042 
L 912.94175 273.693436 
L 913.727956 272.699595 
L 914.514161 293.090297 
L 915.300366 274.329052 
L 916.086571 241.772157 
L 916.872776 260.765275 
L 917.658981 247.310919 
L 918.445186 212.546546 
L 919.231391 205.383818 
L 920.803801 244.072731 
L 921.590006 229.070293 
L 922.376211 210.40409 
L 923.162416 202.598168 
L 923.948621 212.916343 
L 924.734826 189.684511 
L 925.521031 195.955861 
L 926.307236 213.059751 
L 927.093441 210.681646 
L 927.879646 255.497557 
L 928.665851 291.579489 
L 929.452056 292.4158 
L 930.238261 334.540598 
L 931.024466 319.703651 
L 931.810671 294.822648 
L 932.596876 285.722716 
L 933.383081 289.685491 
L 934.955491 245.440097 
L 935.741696 242.493247 
L 936.527901 251.272286 
L 937.314106 270.314789 
L 938.100311 248.964124 
L 938.886516 293.211224 
L 939.672721 283.952104 
L 940.458926 245.29138 
L 941.245132 264.155942 
L 942.031337 288.711894 
L 942.817542 242.039739 
L 943.603747 240.912322 
L 944.389952 229.119256 
L 945.176157 232.704281 
L 945.962362 238.932624 
L 946.748567 228.64499 
L 947.534772 210.957909 
L 948.320977 204.234956 
L 949.107182 195.094336 
L 949.893387 205.233767 
L 950.679592 212.666611 
L 951.465797 287.899306 
L 952.252002 291.349 
L 953.038207 276.71284 
L 953.824412 249.916218 
L 954.610617 196.95111 
L 955.396822 171.789387 
L 956.183027 165.91116 
L 956.969232 263.232856 
L 958.541642 296.22984 
L 959.327847 260.305389 
L 960.114052 243.77397 
L 960.900257 282.494567 
L 961.686462 299.062829 
L 962.472667 266.216699 
L 963.258872 240.267272 
L 964.045077 204.28116 
L 964.831282 235.061661 
L 965.617487 215.818223 
L 966.403692 215.995104 
L 967.976103 241.159328 
L 968.762308 266.688099 
L 969.548513 306.967305 
L 970.334718 338.9371 
L 971.120923 337.509895 
L 971.907128 302.301945 
L 972.693333 216.111302 
L 973.479538 205.704123 
L 975.838153 271.228465 
L 976.624358 285.125411 
L 977.410563 311.372969 
L 978.196768 315.364585 
L 978.982973 336.508914 
L 979.769178 344.213184 
L 980.555383 332.350936 
L 981.341588 314.458779 
L 982.127793 309.119427 
L 982.913998 325.401652 
L 983.700203 360.702142 
L 984.486408 356.629565 
L 985.272613 338.794777 
L 986.058818 330.817772 
L 986.845023 331.265002 
L 987.631228 328.643584 
L 988.417433 295.101056 
L 989.203638 324.788094 
L 989.989843 318.357283 
L 990.776048 313.792142 
L 991.562253 288.087021 
L 992.348458 277.990415 
L 993.134663 285.036432 
L 993.920868 300.189235 
L 994.707074 339.957928 
L 995.493279 348.008322 
L 996.279484 323.342385 
L 997.065689 330.507465 
L 997.851894 328.6217 
L 998.638099 328.85055 
L 999.424304 341.638252 
L 1000.210509 330.645249 
L 1000.996714 264.621593 
L 1001.782919 251.013683 
L 1002.569124 325.074728 
L 1003.355329 342.643756 
L 1004.141534 321.810977 
L 1004.927739 308.72246 
L 1005.713944 301.611668 
L 1006.500149 288.05919 
L 1007.286354 291.900283 
L 1008.072559 274.825956 
L 1009.644969 247.20602 
L 1010.431174 280.895568 
L 1011.217379 264.463267 
L 1012.003584 299.519634 
L 1012.789789 318.760305 
L 1013.575994 324.759285 
L 1014.362199 317.480526 
L 1015.148404 329.755743 
L 1015.934609 321.881435 
L 1016.720814 302.139892 
L 1017.507019 302.445676 
L 1018.293224 228.775153 
L 1019.079429 187.879026 
L 1019.865634 140.385289 
L 1020.651839 122.585655 
L 1021.438044 100.416489 
L 1022.22425 93.143462 
L 1023.010455 124.119018 
L 1023.010455 124.119018 
" clip-path="url(#paf717f2c4c)" style="fill: none; stroke: #008000; stroke-width: 1.5; stroke-linecap: square"/>
   </g>
   <g id="line2d_26">
    <path d="M 53.03 217.308463 
L 1069.2 217.308463 
" clip-path="url(#paf717f2c4c)" style="fill: none; stroke-dasharray: 3.7,1.6; stroke-dashoffset: 0; stroke: #000000"/>
   </g>
   <g id="patch_5">
    <path d="M 53.03 462.04 
L 53.03 25.8 
" style="fill: none; stroke: #000000; stroke-width: 0.8; stroke-linejoin: miter; stroke-linecap: square"/>
   </g>
   <g id="patch_6">
    <path d="M 1069.2 462.04 
L 1069.2 25.8 
" style="fill: none; stroke: #000000; stroke-width: 0.8; stroke-linejoin: miter; stroke-linecap: square"/>
   </g>
   <g id="patch_7">
    <path d="M 53.03 462.04 
L 1069.2 462.04 
" style="fill: none; stroke: #000000; stroke-width: 0.8; stroke-linejoin: miter; stroke-linecap: square"/>
   </g>
   <g id="patch_8">
    <path d="M 53.03 25.8 
L 1069.2 25.8 
" style="fill: none; stroke: #000000; stroke-width: 0.8; stroke-linejoin: miter; stroke-linecap: square"/>
   </g>
   <g id="text_15">
    <!-- NO2 Análisis de Residuales (Real - Predicho) -->
    <g transform="translate(428.585312 19.8) scale(0.12 -0.12)">
     <defs>
      <path id="DejaVuSans-41" d="M 2188 4044 
L 1331 1722 
L 3047 1722 
L 2188 4044 
z
M 1831 4666 
L 2547 4666 
L 4325 0 
L 3669 0 
L 3244 1197 
L 1141 1197 
L 716 0 
L 50 0 
L 1831 4666 
z
" transform="scale(0.015625)"/>
      <path id="DejaVuSans-6e" d="M 3513 2113 
L 3513 0 
L 2938 0 
L 2938 2094 
Q 2938 2591 2744 2837 
Q 2550 3084 2163 3084 
Q 1697 3084 1428 2787 
Q 1159 2491 1159 1978 
L 1159 0 
L 581 0 
L 581 3500 
L 1159 3500 
L 1159 2956 
Q 1366 3272 1645 3428 
Q 1925 3584 2291 3584 
Q 2894 3584 3203 3211 
Q 3513 2838 3513 2113 
z
" transform="scale(0.015625)"/>
      <path id="DejaVuSans-e1" d="M 2194 1759 
Q 1497 1759 1228 1600 
Q 959 1441 959 1056 
Q 959 750 1161 570 
Q 1363 391 1709 391 
Q 2188 391 2477 730 
Q 2766 1069 2766 1631 
L 2766 1759 
L 2194 1759 
z
M 3341 1997 
L 3341 0 
L 2766 0 
L 2766 531 
Q 2569 213 2275 61 
Q 1981 -91 1556 -91 
Q 1019 -91 701 211 
Q 384 513 384 1019 
Q 384 1609 779 1909 
Q 1175 2209 1959 2209 
L 2766 2209 
L 2766 2266 
Q 2766 2663 2505 2880 
Q 2244 3097 1772 3097 
Q 1472 3097 1187 3025 
Q 903 2953 641 2809 
L 641 3341 
Q 956 3463 1253 3523 
Q 1550 3584 1831 3584 
Q 2591 3584 2966 3190 
Q 3341 2797 3341 1997 
z
M 2291 5119 
L 2913 5119 
L 1894 3944 
L 1416 3944 
L 2291 5119 
z
" transform="scale(0.015625)"/>
      <path id="DejaVuSans-28" d="M 1984 4856 
Q 1566 4138 1362 3434 
Q 1159 2731 1159 2009 
Q 1159 1288 1364 580 
Q 1569 -128 1984 -844 
L 1484 -844 
Q 1016 -109 783 600 
Q 550 1309 550 2009 
Q 550 2706 781 3412 
Q 1013 4119 1484 4856 
L 1984 4856 
z
" transform="scale(0.015625)"/>
      <path id="DejaVuSans-50" d="M 1259 4147 
L 1259 2394 
L 2053 2394 
Q 2494 2394 2734 2622 
Q 2975 2850 2975 3272 
Q 2975 3691 2734 3919 
Q 2494 4147 2053 4147 
L 1259 4147 
z
M 628 4666 
L 2053 4666 
Q 2838 4666 3239 4311 
Q 3641 3956 3641 3272 
Q 3641 2581 3239 2228 
Q 2838 1875 2053 1875 
L 1259 1875 
L 1259 0 
L 628 0 
L 628 4666 
z
" transform="scale(0.015625)"/>
      <path id="DejaVuSans-72" d="M 2631 2963 
Q 2534 3019 2420 3045 
Q 2306 3072 2169 3072 
Q 1681 3072 1420 2755 
Q 1159 2438 1159 1844 
L 1159 0 
L 581 0 
L 581 3500 
L 1159 3500 
L 1159 2956 
Q 1341 3275 1631 3429 
Q 1922 3584 2338 3584 
Q 2397 3584 2469 3576 
Q 2541 3569 2628 3553 
L 2631 2963 
z
" transform="scale(0.015625)"/>
      <path id="DejaVuSans-6f" d="M 1959 3097 
Q 1497 3097 1228 2736 
Q 959 2375 959 1747 
Q 959 1119 1226 758 
Q 1494 397 1959 397 
Q 2419 397 2687 759 
Q 2956 1122 2956 1747 
Q 2956 2369 2687 2733 
Q 2419 3097 1959 3097 
z
M 1959 3584 
Q 2709 3584 3137 3096 
Q 3566 2609 3566 1747 
Q 3566 888 3137 398 
Q 2709 -91 1959 -91 
Q 1206 -91 779 398 
Q 353 888 353 1747 
Q 353 2609 779 3096 
Q 1206 3584 1959 3584 
z
" transform="scale(0.015625)"/>
      <path id="DejaVuSans-29" d="M 513 4856 
L 1013 4856 
Q 1481 4119 1714 3412 
Q 1947 2706 1947 2009 
Q 1947 1309 1714 600 
Q 1481 -109 1013 -844 
L 513 -844 
Q 928 -128 1133 580 
Q 1338 1288 1338 2009 
Q 1338 2731 1133 3434 
Q 928 4138 513 4856 
z
" transform="scale(0.015625)"/>
     </defs>
     <use xlink:href="#DejaVuSans-4e"/>
     <use xlink:href="#DejaVuSans-4f" transform="translate(74.804688 0)"/>
     <use xlink:href="#DejaVuSans-32" transform="translate(153.515625 0)"/>
     <use xlink:href="#DejaVuSans-20" transform="translate(217.138672 0)"/>
     <use xlink:href="#DejaVuSans-41" transform="translate(248.925781 0)"/>
     <use xlink:href="#DejaVuSans-6e" transform="translate(317.333984 0)"/>
     <use xlink:href="#DejaVuSans-e1" transform="translate(380.712891 0)"/>
     <use xlink:href="#DejaVuSans-6c" transform="translate(441.992188 0)"/>
     <use xlink:href="#DejaVuSans-69" transform="translate(469.775391 0)"/>
     <use xlink:href="#DejaVuSans-73" transform="translate(497.558594 0)"/>
     <use xlink:href="#DejaVuSans-69" transform="translate(549.658203 0)"/>
     <use xlink:href="#DejaVuSans-73" transform="translate(577.441406 0)"/>
     <use xlink:href="#DejaVuSans-20" transform="translate(629.541016 0)"/>
     <use xlink:href="#DejaVuSans-64" transform="translate(661.328125 0)"/>
     <use xlink:href="#DejaVuSans-65" transform="translate(724.804688 0)"/>
     <use xlink:href="#DejaVuSans-20" transform="translate(786.328125 0)"/>
     <use xlink:href="#DejaVuSans-52" transform="translate(818.115234 0)"/>
     <use xlink:href="#DejaVuSans-65" transform="translate(883.097656 0)"/>
     <use xlink:href="#DejaVuSans-73" transform="translate(944.621094 0)"/>
     <use xlink:href="#DejaVuSans-69" transform="translate(996.720703 0)"/>
     <use xlink:href="#DejaVuSans-64" transform="translate(1024.503906 0)"/>
     <use xlink:href="#DejaVuSans-75" transform="translate(1087.980469 0)"/>
     <use xlink:href="#DejaVuSans-61" transform="translate(1151.359375 0)"/>
     <use xlink:href="#DejaVuSans-6c" transform="translate(1212.638672 0)"/>
     <use xlink:href="#DejaVuSans-65" transform="translate(1240.421875 0)"/>
     <use xlink:href="#DejaVuSans-73" transform="translate(1301.945312 0)"/>
     <use xlink:href="#DejaVuSans-20" transform="translate(1354.044922 0)"/>
     <use xlink:href="#DejaVuSans-28" transform="translate(1385.832031 0)"/>
     <use xlink:href="#DejaVuSans-52" transform="translate(1424.845703 0)"/>
     <use xlink:href="#DejaVuSans-65" transform="translate(1489.828125 0)"/>
     <use xlink:href="#DejaVuSans-61" transform="translate(1551.351562 0)"/>
     <use xlink:href="#DejaVuSans-6c" transform="translate(1612.630859 0)"/>
     <use xlink:href="#DejaVuSans-20" transform="translate(1640.414062 0)"/>
     <use xlink:href="#DejaVuSans-2d" transform="translate(1672.201172 0)"/>
     <use xlink:href="#DejaVuSans-20" transform="translate(1708.285156 0)"/>
     <use xlink:href="#DejaVuSans-50" transform="translate(1740.072266 0)"/>
     <use xlink:href="#DejaVuSans-72" transform="translate(1798.625 0)"/>
     <use xlink:href="#DejaVuSans-65" transform="translate(1837.488281 0)"/>
     <use xlink:href="#DejaVuSans-64" transform="translate(1899.011719 0)"/>
     <use xlink:href="#DejaVuSans-69" transform="translate(1962.488281 0)"/>
     <use xlink:href="#DejaVuSans-63" transform="translate(1990.271484 0)"/>
     <use xlink:href="#DejaVuSans-68" transform="translate(2045.251953 0)"/>
     <use xlink:href="#DejaVuSans-6f" transform="translate(2108.630859 0)"/>
     <use xlink:href="#DejaVuSans-29" transform="translate(2169.8125 0)"/>
    </g>
   </g>
   <g id="legend_1">
    <g id="patch_9">
     <path d="M 902.490625 77.834375 
L 1062.2 77.834375 
Q 1064.2 77.834375 1064.2 75.834375 
L 1064.2 32.8 
Q 1064.2 30.8 1062.2 30.8 
L 902.490625 30.8 
Q 900.490625 30.8 900.490625 32.8 
L 900.490625 75.834375 
Q 900.490625 77.834375 902.490625 77.834375 
z
" style="fill: #ffffff; opacity: 0.8; stroke: #cccccc; stroke-linejoin: miter"/>
    </g>
    <g id="line2d_27">
     <path d="M 904.490625 38.898437 
L 914.490625 38.898437 
L 924.490625 38.898437 
" style="fill: none; stroke: #008000; stroke-width: 1.5; stroke-linecap: square"/>
    </g>
    <g id="text_16">
     <!-- Residual (Real - Predicho) -->
     <g transform="translate(932.490625 42.398437) scale(0.1 -0.1)">
      <use xlink:href="#DejaVuSans-52"/>
      <use xlink:href="#DejaVuSans-65" transform="translate(64.982422 0)"/>
      <use xlink:href="#DejaVuSans-73" transform="translate(126.505859 0)"/>
      <use xlink:href="#DejaVuSans-69" transform="translate(178.605469 0)"/>
      <use xlink:href="#DejaVuSans-64" transform="translate(206.388672 0)"/>
      <use xlink:href="#DejaVuSans-75" transform="translate(269.865234 0)"/>
      <use xlink:href="#DejaVuSans-61" transform="translate(333.244141 0)"/>
      <use xlink:href="#DejaVuSans-6c" transform="translate(394.523438 0)"/>
      <use xlink:href="#DejaVuSans-20" transform="translate(422.306641 0)"/>
      <use xlink:href="#DejaVuSans-28" transform="translate(454.09375 0)"/>
      <use xlink:href="#DejaVuSans-52" transform="translate(493.107422 0)"/>
      <use xlink:href="#DejaVuSans-65" transform="translate(558.089844 0)"/>
      <use xlink:href="#DejaVuSans-61" transform="translate(619.613281 0)"/>
      <use xlink:href="#DejaVuSans-6c" transform="translate(680.892578 0)"/>
      <use xlink:href="#DejaVuSans-20" transform="translate(708.675781 0)"/>
      <use xlink:href="#DejaVuSans-2d" transform="translate(740.462891 0)"/>
      <use xlink:href="#DejaVuSans-20" transform="translate(776.546875 0)"/>
      <use xlink:href="#DejaVuSans-50" transform="translate(808.333984 0)"/>
      <use xlink:href="#DejaVuSans-72" transform="translate(866.886719 0)"/>
      <use xlink:href="#DejaVuSans-65" transform="translate(905.75 0)"/>
      <use xlink:href="#DejaVuSans-64" transform="translate(967.273438 0)"/>
      <use xlink:href="#DejaVuSans-69" transform="translate(1030.75 0)"/>
      <use xlink:href="#DejaVuSans-63" transform="translate(1058.533203 0)"/>
      <use xlink:href="#DejaVuSans-68" transform="translate(1113.513672 0)"/>
      <use xlink:href="#DejaVuSans-6f" transform="translate(1176.892578 0)"/>
      <use xlink:href="#DejaVuSans-29" transform="translate(1238.074219 0)"/>
     </g>
    </g>
    <g id="patch_10">
     <path d="M 904.490625 57.076562 
L 924.490625 57.076562 
L 924.490625 50.076562 
L 904.490625 50.076562 
z
" style="fill: #ffa500; opacity: 0.3; stroke: #ffa500; stroke-linejoin: miter"/>
    </g>
    <g id="text_17">
     <!-- Período 1 (Estricto) -->
     <g transform="translate(932.490625 57.076562) scale(0.1 -0.1)">
      <defs>
       <path id="DejaVuSans-ed" d="M 1325 5119 
L 1947 5119 
L 928 3944 
L 450 3944 
L 1325 5119 
z
M 603 3500 
L 1178 3500 
L 1178 0 
L 603 0 
L 603 3500 
z
M 891 3584 
L 891 3584 
z
" transform="scale(0.015625)"/>
       <path id="DejaVuSans-45" d="M 628 4666 
L 3578 4666 
L 3578 4134 
L 1259 4134 
L 1259 2753 
L 3481 2753 
L 3481 2222 
L 1259 2222 
L 1259 531 
L 3634 531 
L 3634 0 
L 628 0 
L 628 4666 
z
" transform="scale(0.015625)"/>
       <path id="DejaVuSans-74" d="M 1172 4494 
L 1172 3500 
L 2356 3500 
L 2356 3053 
L 1172 3053 
L 1172 1153 
Q 1172 725 1289 603 
Q 1406 481 1766 481 
L 2356 481 
L 2356 0 
L 1766 0 
Q 1100 0 847 248 
Q 594 497 594 1153 
L 594 3053 
L 172 3053 
L 172 3500 
L 594 3500 
L 594 4494 
L 1172 4494 
z
" transform="scale(0.015625)"/>
      </defs>
      <use xlink:href="#DejaVuSans-50"/>
      <use xlink:href="#DejaVuSans-65" transform="translate(56.677734 0)"/>
      <use xlink:href="#DejaVuSans-72" transform="translate(118.201172 0)"/>
      <use xlink:href="#DejaVuSans-ed" transform="translate(159.314453 0)"/>
      <use xlink:href="#DejaVuSans-6f" transform="translate(187.097656 0)"/>
      <use xlink:href="#DejaVuSans-64" transform="translate(248.279297 0)"/>
      <use xlink:href="#DejaVuSans-6f" transform="translate(311.755859 0)"/>
      <use xlink:href="#DejaVuSans-20" transform="translate(372.9375 0)"/>
      <use xlink:href="#DejaVuSans-31" transform="translate(404.724609 0)"/>
      <use xlink:href="#DejaVuSans-20" transform="translate(468.347656 0)"/>
      <use xlink:href="#DejaVuSans-28" transform="translate(500.134766 0)"/>
      <use xlink:href="#DejaVuSans-45" transform="translate(539.148438 0)"/>
      <use xlink:href="#DejaVuSans-73" transform="translate(602.332031 0)"/>
      <use xlink:href="#DejaVuSans-74" transform="translate(654.431641 0)"/>
      <use xlink:href="#DejaVuSans-72" transform="translate(693.640625 0)"/>
      <use xlink:href="#DejaVuSans-69" transform="translate(734.753906 0)"/>
      <use xlink:href="#DejaVuSans-63" transform="translate(762.537109 0)"/>
      <use xlink:href="#DejaVuSans-74" transform="translate(817.517578 0)"/>
      <use xlink:href="#DejaVuSans-6f" transform="translate(856.726562 0)"/>
      <use xlink:href="#DejaVuSans-29" transform="translate(917.908203 0)"/>
     </g>
    </g>
    <g id="patch_11">
     <path d="M 904.490625 71.754687 
L 924.490625 71.754687 
L 924.490625 64.754687 
L 904.490625 64.754687 
z
" style="fill: #ffff00; opacity: 0.3; stroke: #ffff00; stroke-linejoin: miter"/>
    </g>
    <g id="text_18">
     <!-- Período 2 (Extendido) -->
     <g transform="translate(932.490625 71.754687) scale(0.1 -0.1)">
      <defs>
       <path id="DejaVuSans-78" d="M 3513 3500 
L 2247 1797 
L 3578 0 
L 2900 0 
L 1881 1375 
L 863 0 
L 184 0 
L 1544 1831 
L 300 3500 
L 978 3500 
L 1906 2253 
L 2834 3500 
L 3513 3500 
z
" transform="scale(0.015625)"/>
      </defs>
      <use xlink:href="#DejaVuSans-50"/>
      <use xlink:href="#DejaVuSans-65" transform="translate(56.677734 0)"/>
      <use xlink:href="#DejaVuSans-72" transform="translate(118.201172 0)"/>
      <use xlink:href="#DejaVuSans-ed" transform="translate(159.314453 0)"/>
      <use xlink:href="#DejaVuSans-6f" transform="translate(187.097656 0)"/>
      <use xlink:href="#DejaVuSans-64" transform="translate(248.279297 0)"/>
      <use xlink:href="#DejaVuSans-6f" transform="translate(311.755859 0)"/>
      <use xlink:href="#DejaVuSans-20" transform="translate(372.9375 0)"/>
      <use xlink:href="#DejaVuSans-32" transform="translate(404.724609 0)"/>
      <use xlink:href="#DejaVuSans-20" transform="translate(468.347656 0)"/>
      <use xlink:href="#DejaVuSans-28" transform="translate(500.134766 0)"/>
      <use xlink:href="#DejaVuSans-45" transform="translate(539.148438 0)"/>
      <use xlink:href="#DejaVuSans-78" transform="translate(602.332031 0)"/>
      <use xlink:href="#DejaVuSans-74" transform="translate(661.511719 0)"/>
      <use xlink:href="#DejaVuSans-65" transform="translate(700.720703 0)"/>
      <use xlink:href="#DejaVuSans-6e" transform="translate(762.244141 0)"/>
      <use xlink:href="#DejaVuSans-64" transform="translate(825.623047 0)"/>
      <use xlink:href="#DejaVuSans-69" transform="translate(889.099609 0)"/>
      <use xlink:href="#DejaVuSans-64" transform="translate(916.882812 0)"/>
      <use xlink:href="#DejaVuSans-6f" transform="translate(980.359375 0)"/>
      <use xlink:href="#DejaVuSans-29" transform="translate(1041.541016 0)"/>
     </g>
    </g>
   </g>
  </g>
 </g>
 <defs>
  <clipPath id="paf717f2c4c">
   <rect x="53.03" y="25.8" width="1016.17" height="436.24"/>
  </clipPath>
 </defs>
</svg>
