<?xml version="1.0" encoding="utf-8" standalone="no"?>
<!DOCTYPE svg PUBLIC "-//W3C//DTD SVG 1.1//EN"
  "http://www.w3.org/Graphics/SVG/1.1/DTD/svg11.dtd">
<svg xmlns:xlink="http://www.w3.org/1999/xlink" width="1080pt" height="504pt" viewBox="0 0 1080 504" xmlns="http://www.w3.org/2000/svg" version="1.1">
 <metadata>
  <rdf:RDF xmlns:dc="http://purl.org/dc/elements/1.1/" xmlns:cc="http://creativecommons.org/ns#" xmlns:rdf="http://www.w3.org/1999/02/22-rdf-syntax-ns#">
   <cc:Work>
    <dc:type rdf:resource="http://purl.org/dc/dcmitype/StillImage"/>
    <dc:date>2025-11-12T07:27:57.394203</dc:date>
    <dc:format>image/svg+xml</dc:format>
    <dc:creator>
     <cc:Agent>
      <dc:title>Matplotlib v3.10.7, https://matplotlib.org/</dc:title>
     </cc:Agent>
    </dc:creator>
   </cc:Work>
  </rdf:RDF>
 </metadata>
 <defs>
  <style type="text/css">*{stroke-linejoin: round; stroke-linecap: butt}</style>
 </defs>
 <g id="figure_1">
  <g id="patch_1">
   <path d="M 0 504 
L 1080 504 
L 1080 0 
L 0 0 
z
" style="fill: #ffffff"/>
  </g>
  <g id="axes_1">
   <g id="patch_2">
    <path d="M 53.03 462.04 
L 1069.2 462.04 
L 1069.2 25.8 
L 53.03 25.8 
z
" style="fill: #ffffff"/>
   </g>
   <g id="patch_3">
    <path d="M 99.219545 462.04 
L 494.680675 462.04 
L 494.680675 25.8 
L 99.219545 25.8 
z
" clip-path="url(#p05e1732c07)" style="fill: #ffa500; opacity: 0.3; stroke: #ffa500; stroke-linejoin: miter"/>
   </g>
   <g id="patch_4">
    <path d="M 494.680675 462.04 
L 1023.010455 462.04 
L 1023.010455 25.8 
L 494.680675 25.8 
z
" clip-path="url(#p05e1732c07)" style="fill: #ffff00; opacity: 0.3; stroke: #ffff00; stroke-linejoin: miter"/>
   </g>
   <g id="matplotlib.axis_1">
    <g id="xtick_1">
     <g id="line2d_1">
      <path d="M 80.350625 462.04 
L 80.350625 25.8 
" clip-path="url(#p05e1732c07)" style="fill: none; stroke-dasharray: 2.96,1.28; stroke-dashoffset: 0; stroke: #b0b0b0; stroke-opacity: 0.5; stroke-width: 0.8"/>
     </g>
     <g id="line2d_2">
      <defs>
       <path id="m03be777af2" d="M 0 0 
L 0 3.5 
" style="stroke: #000000; stroke-width: 0.8"/>
      </defs>
      <g>
       <use xlink:href="#m03be777af2" x="80.350625" y="462.04" style="stroke: #000000; stroke-width: 0.8"/>
      </g>
     </g>
     <g id="text_1">
      <!-- 2020-03-22 -->
      <g transform="translate(51.292812 476.638438) scale(0.1 -0.1)">
       <defs>
        <path id="DejaVuSans-32" d="M 1228 531 
L 3431 531 
L 3431 0 
L 469 0 
L 469 531 
Q 828 903 1448 1529 
Q 2069 2156 2228 2338 
Q 2531 2678 2651 2914 
Q 2772 3150 2772 3378 
Q 2772 3750 2511 3984 
Q 2250 4219 1831 4219 
Q 1534 4219 1204 4116 
Q 875 4013 500 3803 
L 500 4441 
Q 881 4594 1212 4672 
Q 1544 4750 1819 4750 
Q 2544 4750 2975 4387 
Q 3406 4025 3406 3419 
Q 3406 3131 3298 2873 
Q 3191 2616 2906 2266 
Q 2828 2175 2409 1742 
Q 1991 1309 1228 531 
z
" transform="scale(0.015625)"/>
        <path id="DejaVuSans-30" d="M 2034 4250 
Q 1547 4250 1301 3770 
Q 1056 3291 1056 2328 
Q 1056 1369 1301 889 
Q 1547 409 2034 409 
Q 2525 409 2770 889 
Q 3016 1369 3016 2328 
Q 3016 3291 2770 3770 
Q 2525 4250 2034 4250 
z
M 2034 4750 
Q 2819 4750 3233 4129 
Q 3647 3509 3647 2328 
Q 3647 1150 3233 529 
Q 2819 -91 2034 -91 
Q 1250 -91 836 529 
Q 422 1150 422 2328 
Q 422 3509 836 4129 
Q 1250 4750 2034 4750 
z
" transform="scale(0.015625)"/>
        <path id="DejaVuSans-2d" d="M 313 2009 
L 1997 2009 
L 1997 1497 
L 313 1497 
L 313 2009 
z
" transform="scale(0.015625)"/>
        <path id="DejaVuSans-33" d="M 2597 2516 
Q 3050 2419 3304 2112 
Q 3559 1806 3559 1356 
Q 3559 666 3084 287 
Q 2609 -91 1734 -91 
Q 1441 -91 1130 -33 
Q 819 25 488 141 
L 488 750 
Q 750 597 1062 519 
Q 1375 441 1716 441 
Q 2309 441 2620 675 
Q 2931 909 2931 1356 
Q 2931 1769 2642 2001 
Q 2353 2234 1838 2234 
L 1294 2234 
L 1294 2753 
L 1863 2753 
Q 2328 2753 2575 2939 
Q 2822 3125 2822 3475 
Q 2822 3834 2567 4026 
Q 2313 4219 1838 4219 
Q 1578 4219 1281 4162 
Q 984 4106 628 3988 
L 628 4550 
Q 988 4650 1302 4700 
Q 1616 4750 1894 4750 
Q 2613 4750 3031 4423 
Q 3450 4097 3450 3541 
Q 3450 3153 3228 2886 
Q 3006 2619 2597 2516 
z
" transform="scale(0.015625)"/>
       </defs>
       <use xlink:href="#DejaVuSans-32"/>
       <use xlink:href="#DejaVuSans-30" transform="translate(63.623047 0)"/>
       <use xlink:href="#DejaVuSans-32" transform="translate(127.246094 0)"/>
       <use xlink:href="#DejaVuSans-30" transform="translate(190.869141 0)"/>
       <use xlink:href="#DejaVuSans-2d" transform="translate(254.492188 0)"/>
       <use xlink:href="#DejaVuSans-30" transform="translate(290.576172 0)"/>
       <use xlink:href="#DejaVuSans-33" transform="translate(354.199219 0)"/>
       <use xlink:href="#DejaVuSans-2d" transform="translate(417.822266 0)"/>
       <use xlink:href="#DejaVuSans-32" transform="translate(453.90625 0)"/>
       <use xlink:href="#DejaVuSans-32" transform="translate(517.529297 0)"/>
      </g>
     </g>
    </g>
    <g id="xtick_2">
     <g id="line2d_3">
      <path d="M 269.039832 462.04 
L 269.039832 25.8 
" clip-path="url(#p05e1732c07)" style="fill: none; stroke-dasharray: 2.96,1.28; stroke-dashoffset: 0; stroke: #b0b0b0; stroke-opacity: 0.5; stroke-width: 0.8"/>
     </g>
     <g id="line2d_4">
      <g>
       <use xlink:href="#m03be777af2" x="269.039832" y="462.04" style="stroke: #000000; stroke-width: 0.8"/>
      </g>
     </g>
     <g id="text_2">
      <!-- 2020-04-01 -->
      <g transform="translate(239.982019 476.638438) scale(0.1 -0.1)">
       <defs>
        <path id="DejaVuSans-34" d="M 2419 4116 
L 825 1625 
L 2419 1625 
L 2419 4116 
z
M 2253 4666 
L 3047 4666 
L 3047 1625 
L 3713 1625 
L 3713 1100 
L 3047 1100 
L 3047 0 
L 2419 0 
L 2419 1100 
L 313 1100 
L 313 1709 
L 2253 4666 
z
" transform="scale(0.015625)"/>
        <path id="DejaVuSans-31" d="M 794 531 
L 1825 531 
L 1825 4091 
L 703 3866 
L 703 4441 
L 1819 4666 
L 2450 4666 
L 2450 531 
L 3481 531 
L 3481 0 
L 794 0 
L 794 531 
z
" transform="scale(0.015625)"/>
       </defs>
       <use xlink:href="#DejaVuSans-32"/>
       <use xlink:href="#DejaVuSans-30" transform="translate(63.623047 0)"/>
       <use xlink:href="#DejaVuSans-32" transform="translate(127.246094 0)"/>
       <use xlink:href="#DejaVuSans-30" transform="translate(190.869141 0)"/>
       <use xlink:href="#DejaVuSans-2d" transform="translate(254.492188 0)"/>
       <use xlink:href="#DejaVuSans-30" transform="translate(290.576172 0)"/>
       <use xlink:href="#DejaVuSans-34" transform="translate(354.199219 0)"/>
       <use xlink:href="#DejaVuSans-2d" transform="translate(417.822266 0)"/>
       <use xlink:href="#DejaVuSans-30" transform="translate(453.90625 0)"/>
       <use xlink:href="#DejaVuSans-31" transform="translate(517.529297 0)"/>
      </g>
     </g>
    </g>
    <g id="xtick_3">
     <g id="line2d_5">
      <path d="M 401.122277 462.04 
L 401.122277 25.8 
" clip-path="url(#p05e1732c07)" style="fill: none; stroke-dasharray: 2.96,1.28; stroke-dashoffset: 0; stroke: #b0b0b0; stroke-opacity: 0.5; stroke-width: 0.8"/>
     </g>
     <g id="line2d_6">
      <g>
       <use xlink:href="#m03be777af2" x="401.122277" y="462.04" style="stroke: #000000; stroke-width: 0.8"/>
      </g>
     </g>
     <g id="text_3">
      <!-- 2020-04-08 -->
      <g transform="translate(372.064464 476.638438) scale(0.1 -0.1)">
       <defs>
        <path id="DejaVuSans-38" d="M 2034 2216 
Q 1584 2216 1326 1975 
Q 1069 1734 1069 1313 
Q 1069 891 1326 650 
Q 1584 409 2034 409 
Q 2484 409 2743 651 
Q 3003 894 3003 1313 
Q 3003 1734 2745 1975 
Q 2488 2216 2034 2216 
z
M 1403 2484 
Q 997 2584 770 2862 
Q 544 3141 544 3541 
Q 544 4100 942 4425 
Q 1341 4750 2034 4750 
Q 2731 4750 3128 4425 
Q 3525 4100 3525 3541 
Q 3525 3141 3298 2862 
Q 3072 2584 2669 2484 
Q 3125 2378 3379 2068 
Q 3634 1759 3634 1313 
Q 3634 634 3220 271 
Q 2806 -91 2034 -91 
Q 1263 -91 848 271 
Q 434 634 434 1313 
Q 434 1759 690 2068 
Q 947 2378 1403 2484 
z
M 1172 3481 
Q 1172 3119 1398 2916 
Q 1625 2713 2034 2713 
Q 2441 2713 2670 2916 
Q 2900 3119 2900 3481 
Q 2900 3844 2670 4047 
Q 2441 4250 2034 4250 
Q 1625 4250 1398 4047 
Q 1172 3844 1172 3481 
z
" transform="scale(0.015625)"/>
       </defs>
       <use xlink:href="#DejaVuSans-32"/>
       <use xlink:href="#DejaVuSans-30" transform="translate(63.623047 0)"/>
       <use xlink:href="#DejaVuSans-32" transform="translate(127.246094 0)"/>
       <use xlink:href="#DejaVuSans-30" transform="translate(190.869141 0)"/>
       <use xlink:href="#DejaVuSans-2d" transform="translate(254.492188 0)"/>
       <use xlink:href="#DejaVuSans-30" transform="translate(290.576172 0)"/>
       <use xlink:href="#DejaVuSans-34" transform="translate(354.199219 0)"/>
       <use xlink:href="#DejaVuSans-2d" transform="translate(417.822266 0)"/>
       <use xlink:href="#DejaVuSans-30" transform="translate(453.90625 0)"/>
       <use xlink:href="#DejaVuSans-38" transform="translate(517.529297 0)"/>
      </g>
     </g>
    </g>
    <g id="xtick_4">
     <g id="line2d_7">
      <path d="M 533.204721 462.04 
L 533.204721 25.8 
" clip-path="url(#p05e1732c07)" style="fill: none; stroke-dasharray: 2.96,1.28; stroke-dashoffset: 0; stroke: #b0b0b0; stroke-opacity: 0.5; stroke-width: 0.8"/>
     </g>
     <g id="line2d_8">
      <g>
       <use xlink:href="#m03be777af2" x="533.204721" y="462.04" style="stroke: #000000; stroke-width: 0.8"/>
      </g>
     </g>
     <g id="text_4">
      <!-- 2020-04-15 -->
      <g transform="translate(504.146909 476.638438) scale(0.1 -0.1)">
       <defs>
        <path id="DejaVuSans-35" d="M 691 4666 
L 3169 4666 
L 3169 4134 
L 1269 4134 
L 1269 2991 
Q 1406 3038 1543 3061 
Q 1681 3084 1819 3084 
Q 2600 3084 3056 2656 
Q 3513 2228 3513 1497 
Q 3513 744 3044 326 
Q 2575 -91 1722 -91 
Q 1428 -91 1123 -41 
Q 819 9 494 109 
L 494 744 
Q 775 591 1075 516 
Q 1375 441 1709 441 
Q 2250 441 2565 725 
Q 2881 1009 2881 1497 
Q 2881 1984 2565 2268 
Q 2250 2553 1709 2553 
Q 1456 2553 1204 2497 
Q 953 2441 691 2322 
L 691 4666 
z
" transform="scale(0.015625)"/>
       </defs>
       <use xlink:href="#DejaVuSans-32"/>
       <use xlink:href="#DejaVuSans-30" transform="translate(63.623047 0)"/>
       <use xlink:href="#DejaVuSans-32" transform="translate(127.246094 0)"/>
       <use xlink:href="#DejaVuSans-30" transform="translate(190.869141 0)"/>
       <use xlink:href="#DejaVuSans-2d" transform="translate(254.492188 0)"/>
       <use xlink:href="#DejaVuSans-30" transform="translate(290.576172 0)"/>
       <use xlink:href="#DejaVuSans-34" transform="translate(354.199219 0)"/>
       <use xlink:href="#DejaVuSans-2d" transform="translate(417.822266 0)"/>
       <use xlink:href="#DejaVuSans-31" transform="translate(453.90625 0)"/>
       <use xlink:href="#DejaVuSans-35" transform="translate(517.529297 0)"/>
      </g>
     </g>
    </g>
    <g id="xtick_5">
     <g id="line2d_9">
      <path d="M 665.287166 462.04 
L 665.287166 25.8 
" clip-path="url(#p05e1732c07)" style="fill: none; stroke-dasharray: 2.96,1.28; stroke-dashoffset: 0; stroke: #b0b0b0; stroke-opacity: 0.5; stroke-width: 0.8"/>
     </g>
     <g id="line2d_10">
      <g>
       <use xlink:href="#m03be777af2" x="665.287166" y="462.04" style="stroke: #000000; stroke-width: 0.8"/>
      </g>
     </g>
     <g id="text_5">
      <!-- 2020-04-22 -->
      <g transform="translate(636.229354 476.638438) scale(0.1 -0.1)">
       <use xlink:href="#DejaVuSans-32"/>
       <use xlink:href="#DejaVuSans-30" transform="translate(63.623047 0)"/>
       <use xlink:href="#DejaVuSans-32" transform="translate(127.246094 0)"/>
       <use xlink:href="#DejaVuSans-30" transform="translate(190.869141 0)"/>
       <use xlink:href="#DejaVuSans-2d" transform="translate(254.492188 0)"/>
       <use xlink:href="#DejaVuSans-30" transform="translate(290.576172 0)"/>
       <use xlink:href="#DejaVuSans-34" transform="translate(354.199219 0)"/>
       <use xlink:href="#DejaVuSans-2d" transform="translate(417.822266 0)"/>
       <use xlink:href="#DejaVuSans-32" transform="translate(453.90625 0)"/>
       <use xlink:href="#DejaVuSans-32" transform="translate(517.529297 0)"/>
      </g>
     </g>
    </g>
    <g id="xtick_6">
     <g id="line2d_11">
      <path d="M 835.107453 462.04 
L 835.107453 25.8 
" clip-path="url(#p05e1732c07)" style="fill: none; stroke-dasharray: 2.96,1.28; stroke-dashoffset: 0; stroke: #b0b0b0; stroke-opacity: 0.5; stroke-width: 0.8"/>
     </g>
     <g id="line2d_12">
      <g>
       <use xlink:href="#m03be777af2" x="835.107453" y="462.04" style="stroke: #000000; stroke-width: 0.8"/>
      </g>
     </g>
     <g id="text_6">
      <!-- 2020-05-01 -->
      <g transform="translate(806.04964 476.638438) scale(0.1 -0.1)">
       <use xlink:href="#DejaVuSans-32"/>
       <use xlink:href="#DejaVuSans-30" transform="translate(63.623047 0)"/>
       <use xlink:href="#DejaVuSans-32" transform="translate(127.246094 0)"/>
       <use xlink:href="#DejaVuSans-30" transform="translate(190.869141 0)"/>
       <use xlink:href="#DejaVuSans-2d" transform="translate(254.492188 0)"/>
       <use xlink:href="#DejaVuSans-30" transform="translate(290.576172 0)"/>
       <use xlink:href="#DejaVuSans-35" transform="translate(354.199219 0)"/>
       <use xlink:href="#DejaVuSans-2d" transform="translate(417.822266 0)"/>
       <use xlink:href="#DejaVuSans-30" transform="translate(453.90625 0)"/>
       <use xlink:href="#DejaVuSans-31" transform="translate(517.529297 0)"/>
      </g>
     </g>
    </g>
    <g id="xtick_7">
     <g id="line2d_13">
      <path d="M 967.189897 462.04 
L 967.189897 25.8 
" clip-path="url(#p05e1732c07)" style="fill: none; stroke-dasharray: 2.96,1.28; stroke-dashoffset: 0; stroke: #b0b0b0; stroke-opacity: 0.5; stroke-width: 0.8"/>
     </g>
     <g id="line2d_14">
      <g>
       <use xlink:href="#m03be777af2" x="967.189897" y="462.04" style="stroke: #000000; stroke-width: 0.8"/>
      </g>
     </g>
     <g id="text_7">
      <!-- 2020-05-08 -->
      <g transform="translate(938.132085 476.638438) scale(0.1 -0.1)">
       <use xlink:href="#DejaVuSans-32"/>
       <use xlink:href="#DejaVuSans-30" transform="translate(63.623047 0)"/>
       <use xlink:href="#DejaVuSans-32" transform="translate(127.246094 0)"/>
       <use xlink:href="#DejaVuSans-30" transform="translate(190.869141 0)"/>
       <use xlink:href="#DejaVuSans-2d" transform="translate(254.492188 0)"/>
       <use xlink:href="#DejaVuSans-30" transform="translate(290.576172 0)"/>
       <use xlink:href="#DejaVuSans-35" transform="translate(354.199219 0)"/>
       <use xlink:href="#DejaVuSans-2d" transform="translate(417.822266 0)"/>
       <use xlink:href="#DejaVuSans-30" transform="translate(453.90625 0)"/>
       <use xlink:href="#DejaVuSans-38" transform="translate(517.529297 0)"/>
      </g>
     </g>
    </g>
    <g id="text_8">
     <!-- Fecha -->
     <g transform="translate(546.455625 490.316563) scale(0.1 -0.1)">
      <defs>
       <path id="DejaVuSans-46" d="M 628 4666 
L 3309 4666 
L 3309 4134 
L 1259 4134 
L 1259 2759 
L 3109 2759 
L 3109 2228 
L 1259 2228 
L 1259 0 
L 628 0 
L 628 4666 
z
" transform="scale(0.015625)"/>
       <path id="DejaVuSans-65" d="M 3597 1894 
L 3597 1613 
L 953 1613 
Q 991 1019 1311 708 
Q 1631 397 2203 397 
Q 2534 397 2845 478 
Q 3156 559 3463 722 
L 3463 178 
Q 3153 47 2828 -22 
Q 2503 -91 2169 -91 
Q 1331 -91 842 396 
Q 353 884 353 1716 
Q 353 2575 817 3079 
Q 1281 3584 2069 3584 
Q 2775 3584 3186 3129 
Q 3597 2675 3597 1894 
z
M 3022 2063 
Q 3016 2534 2758 2815 
Q 2500 3097 2075 3097 
Q 1594 3097 1305 2825 
Q 1016 2553 972 2059 
L 3022 2063 
z
" transform="scale(0.015625)"/>
       <path id="DejaVuSans-63" d="M 3122 3366 
L 3122 2828 
Q 2878 2963 2633 3030 
Q 2388 3097 2138 3097 
Q 1578 3097 1268 2742 
Q 959 2388 959 1747 
Q 959 1106 1268 751 
Q 1578 397 2138 397 
Q 2388 397 2633 464 
Q 2878 531 3122 666 
L 3122 134 
Q 2881 22 2623 -34 
Q 2366 -91 2075 -91 
Q 1284 -91 818 406 
Q 353 903 353 1747 
Q 353 2603 823 3093 
Q 1294 3584 2113 3584 
Q 2378 3584 2631 3529 
Q 2884 3475 3122 3366 
z
" transform="scale(0.015625)"/>
       <path id="DejaVuSans-68" d="M 3513 2113 
L 3513 0 
L 2938 0 
L 2938 2094 
Q 2938 2591 2744 2837 
Q 2550 3084 2163 3084 
Q 1697 3084 1428 2787 
Q 1159 2491 1159 1978 
L 1159 0 
L 581 0 
L 581 4863 
L 1159 4863 
L 1159 2956 
Q 1366 3272 1645 3428 
Q 1925 3584 2291 3584 
Q 2894 3584 3203 3211 
Q 3513 2838 3513 2113 
z
" transform="scale(0.015625)"/>
       <path id="DejaVuSans-61" d="M 2194 1759 
Q 1497 1759 1228 1600 
Q 959 1441 959 1056 
Q 959 750 1161 570 
Q 1363 391 1709 391 
Q 2188 391 2477 730 
Q 2766 1069 2766 1631 
L 2766 1759 
L 2194 1759 
z
M 3341 1997 
L 3341 0 
L 2766 0 
L 2766 531 
Q 2569 213 2275 61 
Q 1981 -91 1556 -91 
Q 1019 -91 701 211 
Q 384 513 384 1019 
Q 384 1609 779 1909 
Q 1175 2209 1959 2209 
L 2766 2209 
L 2766 2266 
Q 2766 2663 2505 2880 
Q 2244 3097 1772 3097 
Q 1472 3097 1187 3025 
Q 903 2953 641 2809 
L 641 3341 
Q 956 3463 1253 3523 
Q 1550 3584 1831 3584 
Q 2591 3584 2966 3190 
Q 3341 2797 3341 1997 
z
" transform="scale(0.015625)"/>
      </defs>
      <use xlink:href="#DejaVuSans-46"/>
      <use xlink:href="#DejaVuSans-65" transform="translate(52.019531 0)"/>
      <use xlink:href="#DejaVuSans-63" transform="translate(113.542969 0)"/>
      <use xlink:href="#DejaVuSans-68" transform="translate(168.523438 0)"/>
      <use xlink:href="#DejaVuSans-61" transform="translate(231.902344 0)"/>
     </g>
    </g>
   </g>
   <g id="matplotlib.axis_2">
    <g id="ytick_1">
     <g id="line2d_15">
      <path d="M 53.03 395.649119 
L 1069.2 395.649119 
" clip-path="url(#p05e1732c07)" style="fill: none; stroke-dasharray: 2.96,1.28; stroke-dashoffset: 0; stroke: #b0b0b0; stroke-opacity: 0.5; stroke-width: 0.8"/>
     </g>
     <g id="line2d_16">
      <defs>
       <path id="md0de70ae0f" d="M 0 0 
L -3.5 0 
" style="stroke: #000000; stroke-width: 0.8"/>
      </defs>
      <g>
       <use xlink:href="#md0de70ae0f" x="53.03" y="395.649119" style="stroke: #000000; stroke-width: 0.8"/>
      </g>
     </g>
     <g id="text_9">
      <!-- −30 -->
      <g transform="translate(24.925312 399.448337) scale(0.1 -0.1)">
       <defs>
        <path id="DejaVuSans-2212" d="M 678 2272 
L 4684 2272 
L 4684 1741 
L 678 1741 
L 678 2272 
z
" transform="scale(0.015625)"/>
       </defs>
       <use xlink:href="#DejaVuSans-2212"/>
       <use xlink:href="#DejaVuSans-33" transform="translate(83.789062 0)"/>
       <use xlink:href="#DejaVuSans-30" transform="translate(147.412109 0)"/>
      </g>
     </g>
    </g>
    <g id="ytick_2">
     <g id="line2d_17">
      <path d="M 53.03 308.001633 
L 1069.2 308.001633 
" clip-path="url(#p05e1732c07)" style="fill: none; stroke-dasharray: 2.96,1.28; stroke-dashoffset: 0; stroke: #b0b0b0; stroke-opacity: 0.5; stroke-width: 0.8"/>
     </g>
     <g id="line2d_18">
      <g>
       <use xlink:href="#md0de70ae0f" x="53.03" y="308.001633" style="stroke: #000000; stroke-width: 0.8"/>
      </g>
     </g>
     <g id="text_10">
      <!-- −20 -->
      <g transform="translate(24.925312 311.800852) scale(0.1 -0.1)">
       <use xlink:href="#DejaVuSans-2212"/>
       <use xlink:href="#DejaVuSans-32" transform="translate(83.789062 0)"/>
       <use xlink:href="#DejaVuSans-30" transform="translate(147.412109 0)"/>
      </g>
     </g>
    </g>
    <g id="ytick_3">
     <g id="line2d_19">
      <path d="M 53.03 220.354148 
L 1069.2 220.354148 
" clip-path="url(#p05e1732c07)" style="fill: none; stroke-dasharray: 2.96,1.28; stroke-dashoffset: 0; stroke: #b0b0b0; stroke-opacity: 0.5; stroke-width: 0.8"/>
     </g>
     <g id="line2d_20">
      <g>
       <use xlink:href="#md0de70ae0f" x="53.03" y="220.354148" style="stroke: #000000; stroke-width: 0.8"/>
      </g>
     </g>
     <g id="text_11">
      <!-- −10 -->
      <g transform="translate(24.925312 224.153367) scale(0.1 -0.1)">
       <use xlink:href="#DejaVuSans-2212"/>
       <use xlink:href="#DejaVuSans-31" transform="translate(83.789062 0)"/>
       <use xlink:href="#DejaVuSans-30" transform="translate(147.412109 0)"/>
      </g>
     </g>
    </g>
    <g id="ytick_4">
     <g id="line2d_21">
      <path d="M 53.03 132.706662 
L 1069.2 132.706662 
" clip-path="url(#p05e1732c07)" style="fill: none; stroke-dasharray: 2.96,1.28; stroke-dashoffset: 0; stroke: #b0b0b0; stroke-opacity: 0.5; stroke-width: 0.8"/>
     </g>
     <g id="line2d_22">
      <g>
       <use xlink:href="#md0de70ae0f" x="53.03" y="132.706662" style="stroke: #000000; stroke-width: 0.8"/>
      </g>
     </g>
     <g id="text_12">
      <!-- 0 -->
      <g transform="translate(39.6675 136.505881) scale(0.1 -0.1)">
       <use xlink:href="#DejaVuSans-30"/>
      </g>
     </g>
    </g>
    <g id="ytick_5">
     <g id="line2d_23">
      <path d="M 53.03 45.059177 
L 1069.2 45.059177 
" clip-path="url(#p05e1732c07)" style="fill: none; stroke-dasharray: 2.96,1.28; stroke-dashoffset: 0; stroke: #b0b0b0; stroke-opacity: 0.5; stroke-width: 0.8"/>
     </g>
     <g id="line2d_24">
      <g>
       <use xlink:href="#md0de70ae0f" x="53.03" y="45.059177" style="stroke: #000000; stroke-width: 0.8"/>
      </g>
     </g>
     <g id="text_13">
      <!-- 10 -->
      <g transform="translate(33.305 48.858396) scale(0.1 -0.1)">
       <use xlink:href="#DejaVuSans-31"/>
       <use xlink:href="#DejaVuSans-30" transform="translate(63.623047 0)"/>
      </g>
     </g>
    </g>
    <g id="text_14">
     <!-- Nivel Residual de PM10 -->
     <g transform="translate(18.845625 302.299687) rotate(-90) scale(0.1 -0.1)">
      <defs>
       <path id="DejaVuSans-4e" d="M 628 4666 
L 1478 4666 
L 3547 763 
L 3547 4666 
L 4159 4666 
L 4159 0 
L 3309 0 
L 1241 3903 
L 1241 0 
L 628 0 
L 628 4666 
z
" transform="scale(0.015625)"/>
       <path id="DejaVuSans-69" d="M 603 3500 
L 1178 3500 
L 1178 0 
L 603 0 
L 603 3500 
z
M 603 4863 
L 1178 4863 
L 1178 4134 
L 603 4134 
L 603 4863 
z
" transform="scale(0.015625)"/>
       <path id="DejaVuSans-76" d="M 191 3500 
L 800 3500 
L 1894 563 
L 2988 3500 
L 3597 3500 
L 2284 0 
L 1503 0 
L 191 3500 
z
" transform="scale(0.015625)"/>
       <path id="DejaVuSans-6c" d="M 603 4863 
L 1178 4863 
L 1178 0 
L 603 0 
L 603 4863 
z
" transform="scale(0.015625)"/>
       <path id="DejaVuSans-20" transform="scale(0.015625)"/>
       <path id="DejaVuSans-52" d="M 2841 2188 
Q 3044 2119 3236 1894 
Q 3428 1669 3622 1275 
L 4263 0 
L 3584 0 
L 2988 1197 
Q 2756 1666 2539 1819 
Q 2322 1972 1947 1972 
L 1259 1972 
L 1259 0 
L 628 0 
L 628 4666 
L 2053 4666 
Q 2853 4666 3247 4331 
Q 3641 3997 3641 3322 
Q 3641 2881 3436 2590 
Q 3231 2300 2841 2188 
z
M 1259 4147 
L 1259 2491 
L 2053 2491 
Q 2509 2491 2742 2702 
Q 2975 2913 2975 3322 
Q 2975 3731 2742 3939 
Q 2509 4147 2053 4147 
L 1259 4147 
z
" transform="scale(0.015625)"/>
       <path id="DejaVuSans-73" d="M 2834 3397 
L 2834 2853 
Q 2591 2978 2328 3040 
Q 2066 3103 1784 3103 
Q 1356 3103 1142 2972 
Q 928 2841 928 2578 
Q 928 2378 1081 2264 
Q 1234 2150 1697 2047 
L 1894 2003 
Q 2506 1872 2764 1633 
Q 3022 1394 3022 966 
Q 3022 478 2636 193 
Q 2250 -91 1575 -91 
Q 1294 -91 989 -36 
Q 684 19 347 128 
L 347 722 
Q 666 556 975 473 
Q 1284 391 1588 391 
Q 1994 391 2212 530 
Q 2431 669 2431 922 
Q 2431 1156 2273 1281 
Q 2116 1406 1581 1522 
L 1381 1569 
Q 847 1681 609 1914 
Q 372 2147 372 2553 
Q 372 3047 722 3315 
Q 1072 3584 1716 3584 
Q 2034 3584 2315 3537 
Q 2597 3491 2834 3397 
z
" transform="scale(0.015625)"/>
       <path id="DejaVuSans-64" d="M 2906 2969 
L 2906 4863 
L 3481 4863 
L 3481 0 
L 2906 0 
L 2906 525 
Q 2725 213 2448 61 
Q 2172 -91 1784 -91 
Q 1150 -91 751 415 
Q 353 922 353 1747 
Q 353 2572 751 3078 
Q 1150 3584 1784 3584 
Q 2172 3584 2448 3432 
Q 2725 3281 2906 2969 
z
M 947 1747 
Q 947 1113 1208 752 
Q 1469 391 1925 391 
Q 2381 391 2643 752 
Q 2906 1113 2906 1747 
Q 2906 2381 2643 2742 
Q 2381 3103 1925 3103 
Q 1469 3103 1208 2742 
Q 947 2381 947 1747 
z
" transform="scale(0.015625)"/>
       <path id="DejaVuSans-75" d="M 544 1381 
L 544 3500 
L 1119 3500 
L 1119 1403 
Q 1119 906 1312 657 
Q 1506 409 1894 409 
Q 2359 409 2629 706 
Q 2900 1003 2900 1516 
L 2900 3500 
L 3475 3500 
L 3475 0 
L 2900 0 
L 2900 538 
Q 2691 219 2414 64 
Q 2138 -91 1772 -91 
Q 1169 -91 856 284 
Q 544 659 544 1381 
z
M 1991 3584 
L 1991 3584 
z
" transform="scale(0.015625)"/>
       <path id="DejaVuSans-50" d="M 1259 4147 
L 1259 2394 
L 2053 2394 
Q 2494 2394 2734 2622 
Q 2975 2850 2975 3272 
Q 2975 3691 2734 3919 
Q 2494 4147 2053 4147 
L 1259 4147 
z
M 628 4666 
L 2053 4666 
Q 2838 4666 3239 4311 
Q 3641 3956 3641 3272 
Q 3641 2581 3239 2228 
Q 2838 1875 2053 1875 
L 1259 1875 
L 1259 0 
L 628 0 
L 628 4666 
z
" transform="scale(0.015625)"/>
       <path id="DejaVuSans-4d" d="M 628 4666 
L 1569 4666 
L 2759 1491 
L 3956 4666 
L 4897 4666 
L 4897 0 
L 4281 0 
L 4281 4097 
L 3078 897 
L 2444 897 
L 1241 4097 
L 1241 0 
L 628 0 
L 628 4666 
z
" transform="scale(0.015625)"/>
      </defs>
      <use xlink:href="#DejaVuSans-4e"/>
      <use xlink:href="#DejaVuSans-69" transform="translate(74.804688 0)"/>
      <use xlink:href="#DejaVuSans-76" transform="translate(102.587891 0)"/>
      <use xlink:href="#DejaVuSans-65" transform="translate(161.767578 0)"/>
      <use xlink:href="#DejaVuSans-6c" transform="translate(223.291016 0)"/>
      <use xlink:href="#DejaVuSans-20" transform="translate(251.074219 0)"/>
      <use xlink:href="#DejaVuSans-52" transform="translate(282.861328 0)"/>
      <use xlink:href="#DejaVuSans-65" transform="translate(347.84375 0)"/>
      <use xlink:href="#DejaVuSans-73" transform="translate(409.367188 0)"/>
      <use xlink:href="#DejaVuSans-69" transform="translate(461.466797 0)"/>
      <use xlink:href="#DejaVuSans-64" transform="translate(489.25 0)"/>
      <use xlink:href="#DejaVuSans-75" transform="translate(552.726562 0)"/>
      <use xlink:href="#DejaVuSans-61" transform="translate(616.105469 0)"/>
      <use xlink:href="#DejaVuSans-6c" transform="translate(677.384766 0)"/>
      <use xlink:href="#DejaVuSans-20" transform="translate(705.167969 0)"/>
      <use xlink:href="#DejaVuSans-64" transform="translate(736.955078 0)"/>
      <use xlink:href="#DejaVuSans-65" transform="translate(800.431641 0)"/>
      <use xlink:href="#DejaVuSans-20" transform="translate(861.955078 0)"/>
      <use xlink:href="#DejaVuSans-50" transform="translate(893.742188 0)"/>
      <use xlink:href="#DejaVuSans-4d" transform="translate(954.044922 0)"/>
      <use xlink:href="#DejaVuSans-31" transform="translate(1040.324219 0)"/>
      <use xlink:href="#DejaVuSans-30" transform="translate(1103.947266 0)"/>
     </g>
    </g>
   </g>
   <g id="line2d_25">
    <path d="M 99.219545 320.735284 
L 100.00575 318.327372 
L 100.791956 326.357924 
L 102.364366 325.078623 
L 103.150571 322.722836 
L 103.936776 314.722458 
L 104.722981 309.257112 
L 105.509186 309.59982 
L 106.295391 309.414457 
L 107.081596 308.816407 
L 107.867801 312.149211 
L 108.654006 314.292653 
L 109.440211 308.766188 
L 110.226416 311.433438 
L 111.798826 326.060739 
L 112.585031 326.879525 
L 113.371236 326.005186 
L 114.157441 323.65159 
L 114.943646 320.284331 
L 115.729851 323.712558 
L 116.516056 319.163578 
L 117.302261 318.433461 
L 118.088466 317.156383 
L 118.874671 328.377256 
L 119.660876 319.349576 
L 120.447081 316.294516 
L 121.233286 315.908644 
L 122.019491 308.545351 
L 122.805696 296.448634 
L 123.591901 289.534656 
L 124.378106 285.767199 
L 125.164311 284.071684 
L 125.950516 284.299409 
L 126.736721 283.956484 
L 127.522926 275.64008 
L 128.309132 283.887207 
L 129.095337 274.670553 
L 129.881542 275.290786 
L 130.667747 267.495264 
L 131.453952 269.090124 
L 132.240157 271.461174 
L 133.026362 262.172484 
L 133.812567 259.339164 
L 134.598772 246.099426 
L 135.384977 247.877008 
L 136.171182 244.328683 
L 136.957387 253.561101 
L 137.743592 242.467631 
L 138.529797 239.555054 
L 139.316002 229.014061 
L 140.102207 229.437062 
L 140.888412 228.151826 
L 141.674617 224.577974 
L 142.460822 214.879139 
L 144.033232 212.247581 
L 144.819437 209.708454 
L 145.605642 208.355412 
L 146.391847 209.890607 
L 147.964257 228.553998 
L 148.750462 227.896401 
L 149.536667 231.569137 
L 150.322872 232.677118 
L 151.109077 239.913074 
L 151.895282 234.017054 
L 152.681487 243.037361 
L 153.467692 249.511304 
L 154.253897 248.135727 
L 155.826308 259.681938 
L 156.612513 258.606071 
L 157.398718 257.941954 
L 158.184923 267.732133 
L 158.971128 258.428565 
L 160.543538 255.255162 
L 161.329743 251.743181 
L 162.902153 250.119484 
L 163.688358 237.656873 
L 164.474563 229.661578 
L 165.260768 216.491301 
L 166.046973 212.987227 
L 166.833178 204.155291 
L 167.619383 214.47227 
L 168.405588 203.428652 
L 169.191793 202.706592 
L 169.977998 200.302559 
L 170.764203 200.073781 
L 171.550408 198.366028 
L 172.336613 187.864991 
L 173.122818 183.27843 
L 174.695228 178.217712 
L 175.481433 176.074989 
L 176.267638 178.432331 
L 177.053843 177.816878 
L 177.840048 174.625738 
L 178.626253 171.926191 
L 179.412458 171.07646 
L 180.198663 172.034837 
L 180.984868 171.668257 
L 181.771074 183.369322 
L 183.343484 179.099991 
L 184.129689 186.577782 
L 184.915894 183.470496 
L 185.702099 181.278874 
L 186.488304 179.61982 
L 187.274509 186.634905 
L 188.060714 187.329765 
L 189.633124 182.004996 
L 190.419329 190.671245 
L 191.205534 192.122402 
L 191.991739 194.137973 
L 192.777944 198.524008 
L 193.564149 204.129881 
L 194.350354 199.403763 
L 195.136559 210.147939 
L 195.922764 209.080397 
L 196.708969 202.115163 
L 197.495174 203.79809 
L 198.281379 200.549793 
L 199.067584 198.297152 
L 199.853789 199.459515 
L 200.639994 194.163868 
L 201.426199 198.211609 
L 202.998609 197.144084 
L 203.784814 197.801531 
L 204.571019 195.508601 
L 205.357224 198.376644 
L 206.143429 195.965071 
L 206.929634 191.804186 
L 207.715839 188.675602 
L 208.502044 177.056035 
L 209.28825 181.674041 
L 210.074455 180.710381 
L 210.86066 185.292997 
L 211.646865 171.302747 
L 212.43307 172.295194 
L 213.219275 175.842199 
L 214.00548 183.734097 
L 214.791685 176.60764 
L 215.57789 180.513199 
L 216.364095 177.817631 
L 217.1503 177.873082 
L 217.936505 174.18612 
L 218.72271 174.422337 
L 219.508915 176.16986 
L 220.29512 179.530081 
L 221.081325 183.383164 
L 221.86753 183.815393 
L 222.653735 186.526576 
L 224.226145 190.294802 
L 225.01235 179.990763 
L 225.798555 187.568774 
L 226.58476 177.222958 
L 227.370965 185.549927 
L 228.15717 175.520054 
L 228.943375 177.717209 
L 230.515785 190.26563 
L 231.30199 186.437823 
L 232.088195 178.515533 
L 232.8744 180.75612 
L 233.660605 174.867037 
L 234.44681 167.279296 
L 235.233015 170.565659 
L 236.019221 161.162706 
L 236.805426 160.357561 
L 237.591631 154.855052 
L 239.164041 158.977453 
L 239.950246 159.474446 
L 240.736451 163.169032 
L 241.522656 163.763403 
L 242.308861 171.60326 
L 243.095066 171.322708 
L 244.667476 165.419984 
L 245.453681 166.059994 
L 246.239886 162.162291 
L 247.026091 169.926351 
L 247.812296 170.312323 
L 248.598501 177.824334 
L 249.384706 177.455397 
L 250.170911 180.545163 
L 251.743321 184.925698 
L 252.529526 192.216103 
L 253.315731 192.470643 
L 254.101936 188.21497 
L 254.888141 187.050768 
L 255.674346 184.045542 
L 256.460551 193.387978 
L 257.246756 191.007684 
L 258.032961 195.820732 
L 258.819166 198.798575 
L 259.605371 211.329443 
L 260.391576 213.534757 
L 261.177781 226.291277 
L 261.963986 223.903777 
L 262.750191 232.350426 
L 263.536397 229.028455 
L 264.322602 231.217101 
L 265.108807 229.311732 
L 265.895012 231.983629 
L 266.681217 231.757793 
L 267.467422 228.036777 
L 268.253627 226.292079 
L 269.039832 228.897558 
L 269.826037 226.43085 
L 270.612242 226.357511 
L 271.398447 223.443395 
L 272.184652 228.621001 
L 272.970857 226.807711 
L 273.757062 223.147681 
L 274.543267 220.105075 
L 275.329472 220.41734 
L 276.115677 222.949044 
L 276.901882 223.588335 
L 277.688087 212.243753 
L 278.474292 210.679737 
L 279.260497 198.909161 
L 280.046702 197.136662 
L 280.832907 198.060835 
L 281.619112 197.549883 
L 282.405317 195.096717 
L 283.191522 200.156582 
L 283.977727 200.424111 
L 284.763932 195.533494 
L 287.122547 215.238681 
L 287.908752 207.902102 
L 288.694957 207.644888 
L 289.481162 218.900517 
L 290.267368 221.15065 
L 291.053573 221.774461 
L 291.839778 229.736722 
L 293.412188 218.279398 
L 294.198393 218.622306 
L 294.984598 219.901323 
L 295.770803 221.991236 
L 296.557008 224.887999 
L 297.343213 222.750976 
L 298.129418 212.686832 
L 298.915623 213.579342 
L 299.701828 211.163807 
L 300.488033 201.140002 
L 301.274238 201.967464 
L 302.060443 203.937497 
L 302.846648 195.338234 
L 303.632853 204.969982 
L 304.419058 205.012628 
L 305.205263 194.984008 
L 305.991468 197.323078 
L 306.777673 200.120757 
L 307.563878 202.340146 
L 308.350083 208.018656 
L 309.136288 201.473966 
L 309.922493 202.713229 
L 310.708698 206.106099 
L 311.494903 205.767805 
L 312.281108 206.083045 
L 313.067313 211.947269 
L 313.853518 216.630323 
L 314.639723 210.476336 
L 315.425928 221.408015 
L 316.212133 226.967413 
L 316.998338 299.3845 
L 317.784544 299.091527 
L 318.570749 291.624402 
L 319.356954 292.064923 
L 320.143159 284.552076 
L 320.929364 282.312659 
L 321.715569 275.961072 
L 322.501774 273.684743 
L 323.287979 272.929265 
L 324.074184 265.29092 
L 324.860389 276.317303 
L 325.646594 268.465343 
L 326.432799 270.419444 
L 327.219004 265.437616 
L 328.005209 255.782748 
L 328.791414 255.92844 
L 329.577619 254.933903 
L 330.363824 255.230621 
L 331.150029 257.873162 
L 331.936234 259.311262 
L 332.722439 250.261314 
L 333.508644 248.237335 
L 334.294849 241.075621 
L 335.081054 249.010901 
L 335.867259 262.109794 
L 336.653464 262.390379 
L 337.439669 264.851887 
L 338.225874 266.078646 
L 339.012079 272.927961 
L 339.798284 270.628328 
L 340.584489 274.799778 
L 341.370694 282.753715 
L 342.156899 285.939221 
L 342.943104 284.795582 
L 343.729309 287.980169 
L 344.515515 308.647026 
L 346.087925 338.695071 
L 347.660335 351.120034 
L 348.44654 352.38755 
L 349.232745 352.072794 
L 350.01895 363.516043 
L 350.805155 369.593832 
L 351.59136 372.373874 
L 352.377565 366.078156 
L 353.16377 368.503321 
L 354.73618 372.151733 
L 356.30859 383.767438 
L 357.094795 383.045914 
L 357.881 392.899135 
L 358.667205 405.617188 
L 359.45341 393.909703 
L 360.239615 395.575863 
L 361.02582 406.65514 
L 361.812025 415.289058 
L 362.59823 433.688062 
L 363.384435 442.210909 
L 364.956845 431.875926 
L 365.74305 429.807244 
L 366.529255 425.434031 
L 367.31546 412.958748 
L 368.101665 403.336295 
L 368.88787 382.112781 
L 369.674075 369.442606 
L 370.46028 361.094657 
L 371.246485 355.369672 
L 372.032691 354.943578 
L 372.818896 356.166358 
L 373.605101 351.027988 
L 374.391306 361.115152 
L 375.177511 353.436 
L 375.963716 352.836914 
L 376.749921 361.938252 
L 377.536126 359.220833 
L 378.322331 349.167572 
L 379.108536 358.581993 
L 379.894741 358.630875 
L 380.680946 360.297837 
L 381.467151 356.801085 
L 382.253356 359.627936 
L 383.039561 373.928963 
L 383.825766 372.496245 
L 384.611971 374.997307 
L 385.398176 374.29153 
L 386.970586 390.62874 
L 387.756791 385.742436 
L 388.542996 389.445648 
L 389.329201 395.296247 
L 390.115406 394.653027 
L 390.901611 385.953778 
L 391.687816 385.094268 
L 392.474021 388.155831 
L 393.260226 387.193275 
L 394.046431 388.190503 
L 394.832636 385.227405 
L 395.618841 387.025198 
L 396.405046 379.891335 
L 397.191251 369.570963 
L 398.763662 345.491944 
L 399.549867 329.797452 
L 400.336072 311.538841 
L 401.122277 304.253652 
L 402.694687 292.904255 
L 403.480892 293.79934 
L 404.267097 272.388757 
L 405.053302 264.727493 
L 405.839507 264.459145 
L 406.625712 254.576886 
L 407.411917 258.741549 
L 408.198122 265.916604 
L 408.984327 258.486541 
L 409.770532 256.931252 
L 410.556737 234.295583 
L 411.342942 219.954635 
L 412.129147 211.588597 
L 412.915352 204.707886 
L 415.273967 154.92799 
L 416.060172 146.207777 
L 416.846377 129.104942 
L 417.632582 132.012204 
L 418.418787 127.311947 
L 419.204992 130.908953 
L 419.991197 149.443034 
L 420.777402 156.281601 
L 421.563607 159.503417 
L 422.349812 150.373293 
L 423.136017 135.181411 
L 423.922222 138.174784 
L 424.708427 137.712463 
L 425.494632 145.94324 
L 426.280838 158.584544 
L 427.853248 179.133159 
L 428.639453 177.515028 
L 429.425658 181.374063 
L 430.211863 180.821937 
L 430.998068 182.695025 
L 431.784273 177.995855 
L 432.570478 183.974794 
L 433.356683 180.217652 
L 434.142888 177.056687 
L 434.929093 181.491002 
L 435.715298 181.468183 
L 436.501503 168.379454 
L 437.287708 165.989513 
L 438.073913 162.425691 
L 438.860118 160.576442 
L 439.646323 162.050769 
L 440.432528 157.744861 
L 441.218733 159.293965 
L 442.004938 173.695814 
L 442.791143 182.520261 
L 443.577348 194.084895 
L 444.363553 190.767438 
L 445.149758 192.134489 
L 445.935963 191.61349 
L 446.722168 189.174701 
L 447.508373 187.640626 
L 448.294578 192.242283 
L 449.080783 193.350141 
L 449.866988 191.498913 
L 450.653193 195.343131 
L 452.225603 200.003119 
L 453.798014 205.51675 
L 455.370424 214.109782 
L 456.156629 216.748021 
L 456.942834 216.254282 
L 457.729039 216.735671 
L 458.515244 219.855171 
L 459.301449 224.106458 
L 460.087654 226.225721 
L 460.873859 230.544078 
L 461.660064 236.812858 
L 462.446269 235.094902 
L 463.232474 238.066219 
L 464.018679 241.862624 
L 464.804884 249.050328 
L 465.591089 251.861408 
L 466.377294 251.148437 
L 467.163499 248.883236 
L 467.949704 248.987012 
L 468.735909 252.125693 
L 469.522114 251.287832 
L 470.308319 250.766298 
L 471.094524 254.090275 
L 471.880729 258.914307 
L 472.666934 260.242022 
L 473.453139 262.851011 
L 474.239344 263.081411 
L 475.025549 254.952744 
L 475.811754 253.240595 
L 476.597959 257.24554 
L 477.384164 252.286013 
L 478.170369 250.475716 
L 478.956574 243.868452 
L 479.742779 236.264194 
L 480.528985 225.651016 
L 481.31519 221.51305 
L 482.101395 224.562878 
L 482.8876 223.874304 
L 483.673805 222.497088 
L 484.46001 215.5086 
L 486.03242 211.145836 
L 486.818625 218.682037 
L 487.60483 215.156782 
L 488.391035 215.201518 
L 489.17724 217.385684 
L 490.74965 225.001577 
L 491.535855 225.388017 
L 492.32206 227.337788 
L 493.108265 228.794428 
L 493.89447 231.887002 
L 494.680675 227.049696 
L 495.46688 224.560404 
L 496.253085 224.995174 
L 497.03929 218.738525 
L 497.825495 217.782021 
L 498.6117 215.668085 
L 499.397905 213.90799 
L 500.18411 210.54675 
L 500.970315 209.462691 
L 502.542725 216.151235 
L 503.32893 216.645737 
L 504.115135 214.284216 
L 504.90134 208.620785 
L 505.687545 213.762331 
L 506.47375 213.295079 
L 507.259956 207.064626 
L 508.046161 207.371591 
L 508.832366 204.012023 
L 509.618571 185.898135 
L 510.404776 188.860614 
L 511.190981 190.424797 
L 511.977186 191.061213 
L 512.763391 184.243493 
L 513.549596 175.36571 
L 514.335801 171.710394 
L 515.122006 181.175368 
L 515.908211 188.296317 
L 516.694416 186.104996 
L 517.480621 181.413951 
L 519.053031 175.592816 
L 519.839236 173.68193 
L 520.625441 175.38379 
L 521.411646 182.184307 
L 522.197851 190.802394 
L 522.984056 187.835234 
L 523.770261 194.331393 
L 524.556466 192.400664 
L 525.342671 194.357924 
L 526.128876 205.291976 
L 526.915081 213.57553 
L 527.701286 213.742755 
L 528.487491 215.960172 
L 529.273696 223.640728 
L 530.059901 218.401368 
L 530.846106 218.861783 
L 531.632311 218.930926 
L 532.418516 222.497222 
L 533.204721 217.07586 
L 534.777132 235.215142 
L 535.563337 231.215914 
L 536.349542 221.220846 
L 537.135747 212.730347 
L 537.921952 213.342205 
L 538.708157 213.315624 
L 539.494362 212.620965 
L 540.280567 206.723507 
L 541.066772 216.300906 
L 541.852977 223.73814 
L 542.639182 225.323304 
L 543.425387 233.280049 
L 544.211592 234.565268 
L 544.997797 233.732807 
L 545.784002 228.934185 
L 546.570207 228.62162 
L 548.142617 230.02147 
L 548.928822 232.542359 
L 549.715027 233.044049 
L 550.501232 228.626902 
L 551.287437 232.553526 
L 552.073642 229.215891 
L 552.859847 222.458187 
L 553.646052 226.803081 
L 554.432257 220.628832 
L 555.218462 210.334522 
L 556.004667 206.363213 
L 556.790872 203.231871 
L 557.577077 206.064756 
L 558.363282 201.773208 
L 559.149487 208.999284 
L 559.935692 209.927051 
L 560.721897 211.741929 
L 561.508103 201.574805 
L 562.294308 196.990067 
L 563.080513 188.423838 
L 563.866718 188.452943 
L 564.652923 190.146352 
L 565.439128 186.755822 
L 566.225333 189.39059 
L 567.011538 179.194863 
L 567.797743 180.486886 
L 568.583948 173.828684 
L 569.370153 175.440479 
L 570.156358 191.418498 
L 570.942563 198.986696 
L 571.728768 192.032947 
L 572.514973 202.619327 
L 573.301178 215.456141 
L 574.087383 203.719786 
L 574.873588 194.076068 
L 575.659793 187.546055 
L 576.445998 197.163694 
L 577.232203 201.003053 
L 578.018408 206.011177 
L 578.804613 209.111776 
L 579.590818 209.656597 
L 580.377023 207.051051 
L 581.163228 213.735265 
L 581.949433 210.47214 
L 582.735638 209.645145 
L 583.521843 211.257876 
L 584.308048 204.841508 
L 585.094253 214.189077 
L 585.880458 211.820785 
L 586.666663 206.766705 
L 587.452868 208.807151 
L 588.239074 213.339096 
L 589.025279 215.860887 
L 590.597689 231.082074 
L 591.383894 231.946466 
L 592.170099 245.204877 
L 592.956304 242.177233 
L 593.742509 235.306703 
L 594.528714 233.718029 
L 595.314919 232.500415 
L 596.101124 229.277127 
L 596.887329 222.607591 
L 597.673534 220.881315 
L 598.459739 213.842625 
L 599.245944 212.183019 
L 600.032149 219.554052 
L 600.818354 219.966103 
L 601.604559 220.800286 
L 602.390764 225.463864 
L 603.176969 233.455097 
L 603.963174 239.303707 
L 604.749379 242.198414 
L 605.535584 239.610238 
L 606.321789 235.92147 
L 607.107994 230.209809 
L 607.894199 227.423297 
L 608.680404 227.895247 
L 609.466609 223.766811 
L 610.252814 224.678329 
L 611.039019 223.405848 
L 611.825224 220.681124 
L 614.183839 210.51726 
L 614.970044 214.747255 
L 615.75625 221.827572 
L 616.542455 221.067447 
L 617.32866 221.772053 
L 618.114865 222.155969 
L 618.90107 224.518226 
L 620.47348 233.208532 
L 621.259685 235.264425 
L 622.04589 226.86002 
L 622.832095 229.314574 
L 623.6183 228.424571 
L 624.404505 226.413665 
L 625.19071 227.64054 
L 626.76312 251.537206 
L 627.549325 262.022061 
L 628.33553 259.469961 
L 629.90794 271.43018 
L 630.694145 271.10419 
L 631.48035 278.39732 
L 632.266555 269.109065 
L 633.05276 264.59805 
L 633.838965 259.172859 
L 636.19758 226.507082 
L 636.983785 222.912918 
L 637.76999 208.332476 
L 638.556195 203.055452 
L 639.3424 205.4918 
L 640.128605 195.892032 
L 640.91481 206.218874 
L 641.701015 190.720946 
L 642.487221 191.43886 
L 643.273426 200.726964 
L 644.059631 203.851335 
L 644.845836 216.249517 
L 645.632041 221.23977 
L 646.418246 218.222976 
L 647.204451 218.983151 
L 647.990656 221.637478 
L 649.563066 178.038284 
L 650.349271 175.182245 
L 651.921681 170.545581 
L 652.707886 170.069319 
L 653.494091 181.988262 
L 655.066501 177.313232 
L 655.852706 185.564772 
L 656.638911 195.678283 
L 657.425116 202.803904 
L 658.211321 203.47414 
L 658.997526 201.33028 
L 659.783731 195.166596 
L 660.569936 193.220537 
L 661.356141 192.91113 
L 662.142346 203.530979 
L 662.928551 199.163784 
L 663.714756 206.229724 
L 665.287166 201.337518 
L 666.073371 210.271715 
L 666.859576 210.216564 
L 667.645781 223.394196 
L 668.431986 230.974815 
L 669.218191 231.145517 
L 670.004397 229.442028 
L 670.790602 228.464442 
L 672.363012 232.248734 
L 673.149217 230.513882 
L 673.935422 231.444943 
L 674.721627 230.600746 
L 675.507832 231.310501 
L 676.294037 230.600713 
L 677.080242 232.408369 
L 677.866447 232.051635 
L 678.652652 222.355208 
L 679.438857 208.781807 
L 680.225062 189.027019 
L 681.011267 185.047869 
L 681.797472 188.600992 
L 682.583677 186.444009 
L 683.369882 179.699027 
L 684.156087 173.924642 
L 684.942292 164.755131 
L 685.728497 162.550838 
L 686.514702 163.51112 
L 687.300907 152.786521 
L 688.087112 156.907016 
L 688.873317 155.76453 
L 690.445727 150.880366 
L 691.231932 145.698764 
L 692.018137 146.492007 
L 692.804342 150.164893 
L 693.590547 149.621777 
L 694.376752 148.902393 
L 695.162957 140.909321 
L 695.949162 140.364533 
L 696.735368 145.516444 
L 699.093983 113.209574 
L 699.880188 111.159131 
L 700.666393 109.767003 
L 701.452598 106.643903 
L 702.238803 99.111012 
L 703.025008 101.745763 
L 703.811213 96.435654 
L 704.597418 108.597235 
L 705.383623 111.583436 
L 706.169828 112.91625 
L 706.956033 101.894481 
L 707.742238 99.060676 
L 708.528443 103.058231 
L 709.314648 101.982782 
L 710.100853 97.552713 
L 710.887058 89.455425 
L 711.673263 86.757499 
L 712.459468 79.276716 
L 713.245673 70.409272 
L 714.031878 74.659178 
L 714.818083 71.576584 
L 715.604288 71.285817 
L 716.390493 78.814446 
L 717.176698 79.639869 
L 717.962903 76.921213 
L 718.749108 75.064826 
L 719.535313 69.622383 
L 720.321518 62.246034 
L 721.107723 66.299359 
L 721.893928 71.128322 
L 722.680133 63.69816 
L 723.466338 57.85388 
L 724.252544 55.865859 
L 725.824954 55.255656 
L 726.611159 54.243784 
L 727.397364 45.629091 
L 728.969774 52.05467 
L 729.755979 60.979471 
L 730.542184 63.637793 
L 731.328389 73.759211 
L 733.687004 87.194359 
L 734.473209 89.910691 
L 735.259414 81.957164 
L 736.045619 92.819933 
L 736.831824 94.101851 
L 737.618029 99.612142 
L 738.404234 97.902877 
L 739.190439 106.062103 
L 739.976644 109.509956 
L 740.762849 119.199045 
L 741.549054 125.713619 
L 742.335259 135.048164 
L 743.121464 134.110927 
L 743.907669 140.04559 
L 744.693874 134.635653 
L 745.480079 140.676714 
L 746.266284 138.185834 
L 747.052489 137.470395 
L 747.838694 140.23957 
L 748.624899 138.795544 
L 749.411104 132.910222 
L 750.197309 119.487588 
L 750.983515 116.791969 
L 751.76972 115.212974 
L 753.34213 91.150138 
L 754.128335 88.550109 
L 754.91454 78.305651 
L 755.700745 78.705732 
L 756.48695 78.244849 
L 757.273155 75.202411 
L 758.05936 77.050121 
L 758.845565 76.669114 
L 759.63177 77.187121 
L 760.417975 77.231221 
L 761.20418 68.317754 
L 761.990385 65.540805 
L 762.77659 66.539237 
L 763.562795 65.327992 
L 764.349 65.896117 
L 765.92141 71.649137 
L 766.707615 73.43715 
L 767.49382 78.666663 
L 768.280025 78.662802 
L 769.06623 78.095028 
L 769.852435 78.495026 
L 770.63864 83.039509 
L 772.21105 89.106231 
L 772.997255 91.282774 
L 773.78346 90.458253 
L 774.569665 86.704287 
L 775.35587 87.621824 
L 776.142075 85.773494 
L 776.92828 92.333899 
L 777.714485 96.171862 
L 778.500691 97.326167 
L 779.286896 96.533828 
L 780.859306 101.058492 
L 781.645511 107.707892 
L 782.431716 105.60611 
L 783.217921 105.152758 
L 784.004126 109.950143 
L 784.790331 103.758157 
L 785.576536 106.080325 
L 786.362741 114.717135 
L 787.148946 115.812043 
L 787.935151 120.770316 
L 788.721356 141.113382 
L 789.507561 145.255201 
L 790.293766 151.878054 
L 791.079971 169.55066 
L 791.866176 164.935312 
L 792.652381 168.389233 
L 793.438586 165.223011 
L 794.224791 160.618921 
L 795.010996 155.261143 
L 796.583406 171.815571 
L 798.942021 190.930048 
L 799.728226 200.839414 
L 800.514431 197.095512 
L 801.300636 189.156847 
L 802.086841 187.855637 
L 802.873046 191.6962 
L 803.659251 196.466477 
L 804.445456 184.813366 
L 805.231662 194.115805 
L 806.017867 193.662713 
L 806.804072 195.651234 
L 807.590277 207.333777 
L 808.376482 213.09467 
L 809.162687 208.717562 
L 809.948892 207.410443 
L 810.735097 208.255292 
L 811.521302 211.209211 
L 812.307507 217.974806 
L 813.093712 217.702446 
L 814.666122 212.108559 
L 816.238532 227.599065 
L 817.024737 231.980503 
L 817.810942 227.165715 
L 818.597147 235.148623 
L 819.383352 224.490207 
L 820.169557 219.637756 
L 820.955762 206.239704 
L 821.741967 205.225474 
L 822.528172 203.000852 
L 823.314377 206.205216 
L 824.100582 217.362814 
L 824.886787 219.523108 
L 825.672992 206.65112 
L 826.459197 201.97039 
L 827.245402 195.687979 
L 828.031607 190.946047 
L 828.817812 193.740165 
L 829.604017 193.99783 
L 830.390222 186.280629 
L 831.176427 183.969094 
L 831.962632 170.731546 
L 832.748838 172.950601 
L 833.535043 186.446082 
L 834.321248 190.379493 
L 835.107453 186.040266 
L 836.679863 183.258218 
L 837.466068 188.159869 
L 838.252273 169.138024 
L 839.038478 168.123142 
L 839.824683 171.256808 
L 840.610888 156.538648 
L 841.397093 152.18359 
L 842.183298 153.263135 
L 842.969503 145.916743 
L 843.755708 127.300379 
L 844.541913 120.325465 
L 845.328118 119.651519 
L 846.114323 118.451174 
L 846.900528 125.738369 
L 847.686733 129.500744 
L 848.472938 131.19111 
L 849.259143 142.203818 
L 850.045348 143.579863 
L 850.831553 147.912654 
L 851.617758 142.193621 
L 852.403963 142.463607 
L 853.190168 150.047269 
L 853.976373 151.193684 
L 854.762578 152.880456 
L 855.548783 165.577612 
L 856.334988 164.341994 
L 857.121193 170.459152 
L 857.907398 175.351191 
L 858.693603 186.405041 
L 859.479809 203.184025 
L 860.266014 210.322837 
L 861.052219 209.087569 
L 861.838424 208.550722 
L 862.624629 213.734998 
L 863.410834 214.383952 
L 864.197039 211.681596 
L 864.983244 207.659081 
L 865.769449 214.173596 
L 866.555654 206.187479 
L 867.341859 205.694983 
L 868.128064 206.238267 
L 868.914269 193.632805 
L 869.700474 192.235429 
L 870.486679 189.382315 
L 871.272884 197.292251 
L 872.059089 194.650496 
L 872.845294 202.086944 
L 873.631499 214.01005 
L 874.417704 212.475356 
L 875.203909 213.143 
L 875.990114 217.577349 
L 876.776319 214.532403 
L 877.562524 217.191929 
L 878.348729 218.166137 
L 879.921139 214.535546 
L 880.707344 224.264556 
L 881.493549 226.909153 
L 882.279754 228.310174 
L 883.065959 228.316075 
L 883.852164 231.062381 
L 884.638369 229.827615 
L 885.424574 230.453583 
L 886.210779 229.7457 
L 886.996985 218.184693 
L 887.78319 211.949844 
L 888.569395 212.025841 
L 889.3556 207.888979 
L 890.141805 210.002631 
L 890.92801 229.832413 
L 891.714215 238.401517 
L 892.50042 243.737136 
L 893.286625 239.893582 
L 894.07283 235.331863 
L 894.859035 234.923339 
L 895.64524 232.161903 
L 896.431445 228.989002 
L 897.21765 227.901098 
L 898.003855 228.071198 
L 898.79006 240.10723 
L 899.576265 246.842734 
L 900.36247 235.309679 
L 901.148675 227.850428 
L 901.93488 223.590709 
L 902.721085 230.860803 
L 903.50729 221.113052 
L 904.293495 220.334137 
L 905.0797 221.077628 
L 905.865905 207.672305 
L 906.65211 217.111301 
L 908.22452 219.463226 
L 909.010725 217.046922 
L 909.79693 216.502702 
L 910.583135 212.908672 
L 911.36934 225.246404 
L 912.155545 217.174275 
L 912.94175 217.947373 
L 914.514161 212.479987 
L 915.300366 217.027045 
L 916.086571 224.756182 
L 916.872776 220.717401 
L 917.658981 224.604755 
L 918.445186 212.983131 
L 919.231391 208.958092 
L 920.017596 220.972258 
L 920.803801 225.648358 
L 921.590006 225.595146 
L 922.376211 228.305643 
L 923.162416 237.364987 
L 923.948621 231.488241 
L 925.521031 234.429289 
L 926.307236 233.137265 
L 927.093441 223.096442 
L 927.879646 222.609028 
L 928.665851 220.164137 
L 929.452056 220.90497 
L 930.238261 224.883669 
L 931.024466 239.118177 
L 931.810671 239.296619 
L 932.596876 231.208358 
L 933.383081 230.536535 
L 934.169286 236.211283 
L 934.955491 243.808687 
L 935.741696 250.089242 
L 936.527901 258.049681 
L 937.314106 263.463103 
L 938.100311 266.984864 
L 938.886516 265.04377 
L 939.672721 267.15794 
L 940.458926 273.124943 
L 941.245132 269.400984 
L 942.031337 260.059936 
L 942.817542 262.561265 
L 943.603747 256.260181 
L 944.389952 252.041704 
L 945.176157 244.729466 
L 945.962362 238.519308 
L 946.748567 248.364505 
L 947.534772 241.371352 
L 948.320977 235.772935 
L 949.107182 226.886434 
L 949.893387 205.312873 
L 951.465797 169.265478 
L 952.252002 170.605998 
L 953.824412 157.070262 
L 954.610617 151.740912 
L 956.183027 156.457602 
L 956.969232 150.362995 
L 957.755437 142.151426 
L 958.541642 140.727017 
L 959.327847 144.255933 
L 960.114052 137.206159 
L 960.900257 133.453112 
L 961.686462 132.653133 
L 962.472667 133.20648 
L 963.258872 131.15704 
L 964.045077 133.566707 
L 964.831282 126.766591 
L 965.617487 133.000538 
L 966.403692 138.011304 
L 967.189897 139.280157 
L 968.762308 175.182796 
L 969.548513 181.625092 
L 970.334718 189.014398 
L 971.120923 197.591142 
L 971.907128 192.686849 
L 972.693333 196.921843 
L 973.479538 197.522851 
L 974.265743 205.376366 
L 975.051948 210.259728 
L 975.838153 203.874405 
L 976.624358 196.083547 
L 977.410563 196.088262 
L 978.196768 194.866919 
L 978.982973 199.611845 
L 979.769178 203.053496 
L 980.555383 209.214972 
L 981.341588 210.563534 
L 982.127793 213.9992 
L 982.913998 215.706669 
L 983.700203 221.095766 
L 984.486408 221.206436 
L 986.058818 213.544419 
L 986.845023 217.15169 
L 987.631228 218.726288 
L 988.417433 221.475102 
L 989.203638 212.58845 
L 989.989843 209.234933 
L 990.776048 204.697588 
L 991.562253 198.793159 
L 992.348458 197.093765 
L 993.134663 186.249284 
L 993.920868 183.54101 
L 994.707074 185.672316 
L 995.493279 195.61123 
L 996.279484 197.409691 
L 997.851894 199.488637 
L 998.638099 198.548532 
L 999.424304 193.686719 
L 1000.210509 204.677477 
L 1000.996714 197.472047 
L 1001.782919 196.467028 
L 1002.569124 197.690995 
L 1003.355329 196.298115 
L 1004.141534 189.64411 
L 1004.927739 196.795192 
L 1005.713944 185.564271 
L 1006.500149 182.038297 
L 1007.286354 183.827029 
L 1008.072559 177.336887 
L 1008.858764 173.417536 
L 1009.644969 172.544568 
L 1010.431174 165.258844 
L 1011.217379 154.927405 
L 1012.003584 153.495223 
L 1012.789789 152.342623 
L 1013.575994 149.236039 
L 1014.362199 143.00144 
L 1015.148404 148.477001 
L 1015.934609 150.805371 
L 1016.720814 145.36898 
L 1017.507019 145.05185 
L 1018.293224 142.260189 
L 1019.079429 140.605164 
L 1019.865634 137.237738 
L 1020.651839 131.563942 
L 1021.438044 136.280063 
L 1023.010455 95.621499 
L 1023.010455 95.621499 
" clip-path="url(#p05e1732c07)" style="fill: none; stroke: #008000; stroke-width: 1.5; stroke-linecap: square"/>
   </g>
   <g id="line2d_26">
    <path d="M 53.03 132.706662 
L 1069.2 132.706662 
" clip-path="url(#p05e1732c07)" style="fill: none; stroke-dasharray: 3.7,1.6; stroke-dashoffset: 0; stroke: #000000"/>
   </g>
   <g id="patch_5">
    <path d="M 53.03 462.04 
L 53.03 25.8 
" style="fill: none; stroke: #000000; stroke-width: 0.8; stroke-linejoin: miter; stroke-linecap: square"/>
   </g>
   <g id="patch_6">
    <path d="M 1069.2 462.04 
L 1069.2 25.8 
" style="fill: none; stroke: #000000; stroke-width: 0.8; stroke-linejoin: miter; stroke-linecap: square"/>
   </g>
   <g id="patch_7">
    <path d="M 53.03 462.04 
L 1069.2 462.04 
" style="fill: none; stroke: #000000; stroke-width: 0.8; stroke-linejoin: miter; stroke-linecap: square"/>
   </g>
   <g id="patch_8">
    <path d="M 53.03 25.8 
L 1069.2 25.8 
" style="fill: none; stroke: #000000; stroke-width: 0.8; stroke-linejoin: miter; stroke-linecap: square"/>
   </g>
   <g id="text_15">
    <!-- PM10 Análisis de Residuales (Real - Predicho) -->
    <g transform="translate(425.185 19.8) scale(0.12 -0.12)">
     <defs>
      <path id="DejaVuSans-41" d="M 2188 4044 
L 1331 1722 
L 3047 1722 
L 2188 4044 
z
M 1831 4666 
L 2547 4666 
L 4325 0 
L 3669 0 
L 3244 1197 
L 1141 1197 
L 716 0 
L 50 0 
L 1831 4666 
z
" transform="scale(0.015625)"/>
      <path id="DejaVuSans-6e" d="M 3513 2113 
L 3513 0 
L 2938 0 
L 2938 2094 
Q 2938 2591 2744 2837 
Q 2550 3084 2163 3084 
Q 1697 3084 1428 2787 
Q 1159 2491 1159 1978 
L 1159 0 
L 581 0 
L 581 3500 
L 1159 3500 
L 1159 2956 
Q 1366 3272 1645 3428 
Q 1925 3584 2291 3584 
Q 2894 3584 3203 3211 
Q 3513 2838 3513 2113 
z
" transform="scale(0.015625)"/>
      <path id="DejaVuSans-e1" d="M 2194 1759 
Q 1497 1759 1228 1600 
Q 959 1441 959 1056 
Q 959 750 1161 570 
Q 1363 391 1709 391 
Q 2188 391 2477 730 
Q 2766 1069 2766 1631 
L 2766 1759 
L 2194 1759 
z
M 3341 1997 
L 3341 0 
L 2766 0 
L 2766 531 
Q 2569 213 2275 61 
Q 1981 -91 1556 -91 
Q 1019 -91 701 211 
Q 384 513 384 1019 
Q 384 1609 779 1909 
Q 1175 2209 1959 2209 
L 2766 2209 
L 2766 2266 
Q 2766 2663 2505 2880 
Q 2244 3097 1772 3097 
Q 1472 3097 1187 3025 
Q 903 2953 641 2809 
L 641 3341 
Q 956 3463 1253 3523 
Q 1550 3584 1831 3584 
Q 2591 3584 2966 3190 
Q 3341 2797 3341 1997 
z
M 2291 5119 
L 2913 5119 
L 1894 3944 
L 1416 3944 
L 2291 5119 
z
" transform="scale(0.015625)"/>
      <path id="DejaVuSans-28" d="M 1984 4856 
Q 1566 4138 1362 3434 
Q 1159 2731 1159 2009 
Q 1159 1288 1364 580 
Q 1569 -128 1984 -844 
L 1484 -844 
Q 1016 -109 783 600 
Q 550 1309 550 2009 
Q 550 2706 781 3412 
Q 1013 4119 1484 4856 
L 1984 4856 
z
" transform="scale(0.015625)"/>
      <path id="DejaVuSans-72" d="M 2631 2963 
Q 2534 3019 2420 3045 
Q 2306 3072 2169 3072 
Q 1681 3072 1420 2755 
Q 1159 2438 1159 1844 
L 1159 0 
L 581 0 
L 581 3500 
L 1159 3500 
L 1159 2956 
Q 1341 3275 1631 3429 
Q 1922 3584 2338 3584 
Q 2397 3584 2469 3576 
Q 2541 3569 2628 3553 
L 2631 2963 
z
" transform="scale(0.015625)"/>
      <path id="DejaVuSans-6f" d="M 1959 3097 
Q 1497 3097 1228 2736 
Q 959 2375 959 1747 
Q 959 1119 1226 758 
Q 1494 397 1959 397 
Q 2419 397 2687 759 
Q 2956 1122 2956 1747 
Q 2956 2369 2687 2733 
Q 2419 3097 1959 3097 
z
M 1959 3584 
Q 2709 3584 3137 3096 
Q 3566 2609 3566 1747 
Q 3566 888 3137 398 
Q 2709 -91 1959 -91 
Q 1206 -91 779 398 
Q 353 888 353 1747 
Q 353 2609 779 3096 
Q 1206 3584 1959 3584 
z
" transform="scale(0.015625)"/>
      <path id="DejaVuSans-29" d="M 513 4856 
L 1013 4856 
Q 1481 4119 1714 3412 
Q 1947 2706 1947 2009 
Q 1947 1309 1714 600 
Q 1481 -109 1013 -844 
L 513 -844 
Q 928 -128 1133 580 
Q 1338 1288 1338 2009 
Q 1338 2731 1133 3434 
Q 928 4138 513 4856 
z
" transform="scale(0.015625)"/>
     </defs>
     <use xlink:href="#DejaVuSans-50"/>
     <use xlink:href="#DejaVuSans-4d" transform="translate(60.302734 0)"/>
     <use xlink:href="#DejaVuSans-31" transform="translate(146.582031 0)"/>
     <use xlink:href="#DejaVuSans-30" transform="translate(210.205078 0)"/>
     <use xlink:href="#DejaVuSans-20" transform="translate(273.828125 0)"/>
     <use xlink:href="#DejaVuSans-41" transform="translate(305.615234 0)"/>
     <use xlink:href="#DejaVuSans-6e" transform="translate(374.023438 0)"/>
     <use xlink:href="#DejaVuSans-e1" transform="translate(437.402344 0)"/>
     <use xlink:href="#DejaVuSans-6c" transform="translate(498.681641 0)"/>
     <use xlink:href="#DejaVuSans-69" transform="translate(526.464844 0)"/>
     <use xlink:href="#DejaVuSans-73" transform="translate(554.248047 0)"/>
     <use xlink:href="#DejaVuSans-69" transform="translate(606.347656 0)"/>
     <use xlink:href="#DejaVuSans-73" transform="translate(634.130859 0)"/>
     <use xlink:href="#DejaVuSans-20" transform="translate(686.230469 0)"/>
     <use xlink:href="#DejaVuSans-64" transform="translate(718.017578 0)"/>
     <use xlink:href="#DejaVuSans-65" transform="translate(781.494141 0)"/>
     <use xlink:href="#DejaVuSans-20" transform="translate(843.017578 0)"/>
     <use xlink:href="#DejaVuSans-52" transform="translate(874.804688 0)"/>
     <use xlink:href="#DejaVuSans-65" transform="translate(939.787109 0)"/>
     <use xlink:href="#DejaVuSans-73" transform="translate(1001.310547 0)"/>
     <use xlink:href="#DejaVuSans-69" transform="translate(1053.410156 0)"/>
     <use xlink:href="#DejaVuSans-64" transform="translate(1081.193359 0)"/>
     <use xlink:href="#DejaVuSans-75" transform="translate(1144.669922 0)"/>
     <use xlink:href="#DejaVuSans-61" transform="translate(1208.048828 0)"/>
     <use xlink:href="#DejaVuSans-6c" transform="translate(1269.328125 0)"/>
     <use xlink:href="#DejaVuSans-65" transform="translate(1297.111328 0)"/>
     <use xlink:href="#DejaVuSans-73" transform="translate(1358.634766 0)"/>
     <use xlink:href="#DejaVuSans-20" transform="translate(1410.734375 0)"/>
     <use xlink:href="#DejaVuSans-28" transform="translate(1442.521484 0)"/>
     <use xlink:href="#DejaVuSans-52" transform="translate(1481.535156 0)"/>
     <use xlink:href="#DejaVuSans-65" transform="translate(1546.517578 0)"/>
     <use xlink:href="#DejaVuSans-61" transform="translate(1608.041016 0)"/>
     <use xlink:href="#DejaVuSans-6c" transform="translate(1669.320312 0)"/>
     <use xlink:href="#DejaVuSans-20" transform="translate(1697.103516 0)"/>
     <use xlink:href="#DejaVuSans-2d" transform="translate(1728.890625 0)"/>
     <use xlink:href="#DejaVuSans-20" transform="translate(1764.974609 0)"/>
     <use xlink:href="#DejaVuSans-50" transform="translate(1796.761719 0)"/>
     <use xlink:href="#DejaVuSans-72" transform="translate(1855.314453 0)"/>
     <use xlink:href="#DejaVuSans-65" transform="translate(1894.177734 0)"/>
     <use xlink:href="#DejaVuSans-64" transform="translate(1955.701172 0)"/>
     <use xlink:href="#DejaVuSans-69" transform="translate(2019.177734 0)"/>
     <use xlink:href="#DejaVuSans-63" transform="translate(2046.960938 0)"/>
     <use xlink:href="#DejaVuSans-68" transform="translate(2101.941406 0)"/>
     <use xlink:href="#DejaVuSans-6f" transform="translate(2165.320312 0)"/>
     <use xlink:href="#DejaVuSans-29" transform="translate(2226.501953 0)"/>
    </g>
   </g>
   <g id="legend_1">
    <g id="patch_9">
     <path d="M 902.490625 77.834375 
L 1062.2 77.834375 
Q 1064.2 77.834375 1064.2 75.834375 
L 1064.2 32.8 
Q 1064.2 30.8 1062.2 30.8 
L 902.490625 30.8 
Q 900.490625 30.8 900.490625 32.8 
L 900.490625 75.834375 
Q 900.490625 77.834375 902.490625 77.834375 
z
" style="fill: #ffffff; opacity: 0.8; stroke: #cccccc; stroke-linejoin: miter"/>
    </g>
    <g id="line2d_27">
     <path d="M 904.490625 38.898437 
L 914.490625 38.898437 
L 924.490625 38.898437 
" style="fill: none; stroke: #008000; stroke-width: 1.5; stroke-linecap: square"/>
    </g>
    <g id="text_16">
     <!-- Residual (Real - Predicho) -->
     <g transform="translate(932.490625 42.398437) scale(0.1 -0.1)">
      <use xlink:href="#DejaVuSans-52"/>
      <use xlink:href="#DejaVuSans-65" transform="translate(64.982422 0)"/>
      <use xlink:href="#DejaVuSans-73" transform="translate(126.505859 0)"/>
      <use xlink:href="#DejaVuSans-69" transform="translate(178.605469 0)"/>
      <use xlink:href="#DejaVuSans-64" transform="translate(206.388672 0)"/>
      <use xlink:href="#DejaVuSans-75" transform="translate(269.865234 0)"/>
      <use xlink:href="#DejaVuSans-61" transform="translate(333.244141 0)"/>
      <use xlink:href="#DejaVuSans-6c" transform="translate(394.523438 0)"/>
      <use xlink:href="#DejaVuSans-20" transform="translate(422.306641 0)"/>
      <use xlink:href="#DejaVuSans-28" transform="translate(454.09375 0)"/>
      <use xlink:href="#DejaVuSans-52" transform="translate(493.107422 0)"/>
      <use xlink:href="#DejaVuSans-65" transform="translate(558.089844 0)"/>
      <use xlink:href="#DejaVuSans-61" transform="translate(619.613281 0)"/>
      <use xlink:href="#DejaVuSans-6c" transform="translate(680.892578 0)"/>
      <use xlink:href="#DejaVuSans-20" transform="translate(708.675781 0)"/>
      <use xlink:href="#DejaVuSans-2d" transform="translate(740.462891 0)"/>
      <use xlink:href="#DejaVuSans-20" transform="translate(776.546875 0)"/>
      <use xlink:href="#DejaVuSans-50" transform="translate(808.333984 0)"/>
      <use xlink:href="#DejaVuSans-72" transform="translate(866.886719 0)"/>
      <use xlink:href="#DejaVuSans-65" transform="translate(905.75 0)"/>
      <use xlink:href="#DejaVuSans-64" transform="translate(967.273438 0)"/>
      <use xlink:href="#DejaVuSans-69" transform="translate(1030.75 0)"/>
      <use xlink:href="#DejaVuSans-63" transform="translate(1058.533203 0)"/>
      <use xlink:href="#DejaVuSans-68" transform="translate(1113.513672 0)"/>
      <use xlink:href="#DejaVuSans-6f" transform="translate(1176.892578 0)"/>
      <use xlink:href="#DejaVuSans-29" transform="translate(1238.074219 0)"/>
     </g>
    </g>
    <g id="patch_10">
     <path d="M 904.490625 57.076562 
L 924.490625 57.076562 
L 924.490625 50.076562 
L 904.490625 50.076562 
z
" style="fill: #ffa500; opacity: 0.3; stroke: #ffa500; stroke-linejoin: miter"/>
    </g>
    <g id="text_17">
     <!-- Período 1 (Estricto) -->
     <g transform="translate(932.490625 57.076562) scale(0.1 -0.1)">
      <defs>
       <path id="DejaVuSans-ed" d="M 1325 5119 
L 1947 5119 
L 928 3944 
L 450 3944 
L 1325 5119 
z
M 603 3500 
L 1178 3500 
L 1178 0 
L 603 0 
L 603 3500 
z
M 891 3584 
L 891 3584 
z
" transform="scale(0.015625)"/>
       <path id="DejaVuSans-45" d="M 628 4666 
L 3578 4666 
L 3578 4134 
L 1259 4134 
L 1259 2753 
L 3481 2753 
L 3481 2222 
L 1259 2222 
L 1259 531 
L 3634 531 
L 3634 0 
L 628 0 
L 628 4666 
z
" transform="scale(0.015625)"/>
       <path id="DejaVuSans-74" d="M 1172 4494 
L 1172 3500 
L 2356 3500 
L 2356 3053 
L 1172 3053 
L 1172 1153 
Q 1172 725 1289 603 
Q 1406 481 1766 481 
L 2356 481 
L 2356 0 
L 1766 0 
Q 1100 0 847 248 
Q 594 497 594 1153 
L 594 3053 
L 172 3053 
L 172 3500 
L 594 3500 
L 594 4494 
L 1172 4494 
z
" transform="scale(0.015625)"/>
      </defs>
      <use xlink:href="#DejaVuSans-50"/>
      <use xlink:href="#DejaVuSans-65" transform="translate(56.677734 0)"/>
      <use xlink:href="#DejaVuSans-72" transform="translate(118.201172 0)"/>
      <use xlink:href="#DejaVuSans-ed" transform="translate(159.314453 0)"/>
      <use xlink:href="#DejaVuSans-6f" transform="translate(187.097656 0)"/>
      <use xlink:href="#DejaVuSans-64" transform="translate(248.279297 0)"/>
      <use xlink:href="#DejaVuSans-6f" transform="translate(311.755859 0)"/>
      <use xlink:href="#DejaVuSans-20" transform="translate(372.9375 0)"/>
      <use xlink:href="#DejaVuSans-31" transform="translate(404.724609 0)"/>
      <use xlink:href="#DejaVuSans-20" transform="translate(468.347656 0)"/>
      <use xlink:href="#DejaVuSans-28" transform="translate(500.134766 0)"/>
      <use xlink:href="#DejaVuSans-45" transform="translate(539.148438 0)"/>
      <use xlink:href="#DejaVuSans-73" transform="translate(602.332031 0)"/>
      <use xlink:href="#DejaVuSans-74" transform="translate(654.431641 0)"/>
      <use xlink:href="#DejaVuSans-72" transform="translate(693.640625 0)"/>
      <use xlink:href="#DejaVuSans-69" transform="translate(734.753906 0)"/>
      <use xlink:href="#DejaVuSans-63" transform="translate(762.537109 0)"/>
      <use xlink:href="#DejaVuSans-74" transform="translate(817.517578 0)"/>
      <use xlink:href="#DejaVuSans-6f" transform="translate(856.726562 0)"/>
      <use xlink:href="#DejaVuSans-29" transform="translate(917.908203 0)"/>
     </g>
    </g>
    <g id="patch_11">
     <path d="M 904.490625 71.754687 
L 924.490625 71.754687 
L 924.490625 64.754687 
L 904.490625 64.754687 
z
" style="fill: #ffff00; opacity: 0.3; stroke: #ffff00; stroke-linejoin: miter"/>
    </g>
    <g id="text_18">
     <!-- Período 2 (Extendido) -->
     <g transform="translate(932.490625 71.754687) scale(0.1 -0.1)">
      <defs>
       <path id="DejaVuSans-78" d="M 3513 3500 
L 2247 1797 
L 3578 0 
L 2900 0 
L 1881 1375 
L 863 0 
L 184 0 
L 1544 1831 
L 300 3500 
L 978 3500 
L 1906 2253 
L 2834 3500 
L 3513 3500 
z
" transform="scale(0.015625)"/>
      </defs>
      <use xlink:href="#DejaVuSans-50"/>
      <use xlink:href="#DejaVuSans-65" transform="translate(56.677734 0)"/>
      <use xlink:href="#DejaVuSans-72" transform="translate(118.201172 0)"/>
      <use xlink:href="#DejaVuSans-ed" transform="translate(159.314453 0)"/>
      <use xlink:href="#DejaVuSans-6f" transform="translate(187.097656 0)"/>
      <use xlink:href="#DejaVuSans-64" transform="translate(248.279297 0)"/>
      <use xlink:href="#DejaVuSans-6f" transform="translate(311.755859 0)"/>
      <use xlink:href="#DejaVuSans-20" transform="translate(372.9375 0)"/>
      <use xlink:href="#DejaVuSans-32" transform="translate(404.724609 0)"/>
      <use xlink:href="#DejaVuSans-20" transform="translate(468.347656 0)"/>
      <use xlink:href="#DejaVuSans-28" transform="translate(500.134766 0)"/>
      <use xlink:href="#DejaVuSans-45" transform="translate(539.148438 0)"/>
      <use xlink:href="#DejaVuSans-78" transform="translate(602.332031 0)"/>
      <use xlink:href="#DejaVuSans-74" transform="translate(661.511719 0)"/>
      <use xlink:href="#DejaVuSans-65" transform="translate(700.720703 0)"/>
      <use xlink:href="#DejaVuSans-6e" transform="translate(762.244141 0)"/>
      <use xlink:href="#DejaVuSans-64" transform="translate(825.623047 0)"/>
      <use xlink:href="#DejaVuSans-69" transform="translate(889.099609 0)"/>
      <use xlink:href="#DejaVuSans-64" transform="translate(916.882812 0)"/>
      <use xlink:href="#DejaVuSans-6f" transform="translate(980.359375 0)"/>
      <use xlink:href="#DejaVuSans-29" transform="translate(1041.541016 0)"/>
     </g>
    </g>
   </g>
  </g>
 </g>
 <defs>
  <clipPath id="p05e1732c07">
   <rect x="53.03" y="25.8" width="1016.17" height="436.24"/>
  </clipPath>
 </defs>
</svg>
